<mxfile host="Electron" agent="Mozilla/5.0 (X11; Linux x86_64) AppleWebKit/537.36 (KHTML, like Gecko) draw.io/27.0.9 Chrome/134.0.6998.205 Electron/35.4.0 Safari/537.36" version="27.0.9">
  <diagram name="Page-1" id="s3S5-uuGG6PUxp5wizyh">
    <mxGraphModel dx="1426" dy="875" grid="1" gridSize="10" guides="1" tooltips="1" connect="1" arrows="1" fold="1" page="1" pageScale="1" pageWidth="827" pageHeight="1169" math="0" shadow="0">
      <root>
        <mxCell id="0" />
        <mxCell id="1" parent="0" />
        <mxCell id="Cq-9Z9GXgd56kL1-xHdN-1" value="" style="shape=image;verticalLabelPosition=bottom;labelBackgroundColor=default;verticalAlign=top;aspect=fixed;imageAspect=0;image=data:image/png,iVBORw0KGgoAAAANSUhEUgAAA1cAAAMyCAYAAACB+zsZAAAACXBIWXMAAA7EAAAOxAGVKw4bAAAgAElEQVR4nOzdZ0AURxvA8f8d7ehFVFRUxGBXVOwlGjVqYooxMXZjbxhjbzGxG2PUxN5rjDVGo7Fi772LHRAFsSBwRz/u9v2AOUNAipzGvHl+n7ibndlnd5Zjn5vZQaUoioIQQgghhBBCiFxR/9MBCCGEEEIIIcT/A0muhBBCCCGEEMIMJLkSQgghhBBCCDOQ5EoIIYQQQgghzECSKyGEEEIIIYQwA7MnV4lJSfgP/pbzl66au2khhBBCCCGEeGNZmqsho9HI3XthLF/9K4lJSeZq9l9BUUClevPbFEIIIYQQQrw6Zhu5OnHmPItXrqNpw3p4FfE0V7OvTGColrrDDlLhyz349tvD2kP3TGW6hBS6zDxLmT4B+Pbbw9ztQaayFIOCS+st3AjTUXvoAdzbbaX77LMYjApFu+xg36XHpm0fa5NwaPk7958kALD9bASV+++lrH8AzcYeJSwywbTt+HXXGbfmGpN/vUHhzttxaPk7dx/Fp4m5QeP3+f6Haa/qlAghhBBCCCFywWwjV7Wq+VGrmh8Aew4eNVezr8yYNdfo+0FxWtX15Ik2mUFLLtGqbmFUKhi/9hrJeiNX5jQiKlZPzSH7qV7CFb+3XLG0UFHQzZauM8/yU3dfqvq4YlQU1CoVrep6sv7IfRpUyAvAhiNh1CmTB093Wx5GJ/HF9DPsmVAX32LOzNhyG/95F9g8qiYAPgXsGbv2GvXK5eXWwibYWFqkizmvuzuOjo6v9TwJIYQQQgghsuc/u6CFq4MVm0+Ec+2eDncna1YMqGKahvfH6Qh6v++NWqUij6M1resWZsvJB6a6LvZWNKnsQVUfVwDUzyq2rVeYzcfD0RuMAKw9dI8O7xQBYP+lR/i95YJvMWcAejQtRsCFRySnpG7rbG/Fw6gkpnWpgMbKApUq/bTAdatX0qdXj1d2ToQQQgghhBAvz2wjV/82U7tUYPzaa3w4/hgA49qVoW29wgA8jkmi3bTTWKpTsxt9ipHmNQqa6qrV4OvlnK7Nit4ueLhpCLjwiDKeTlwN1fJJzUIAPIpJ4uTNp7zVY5dpewdbCx7HJFEojy1qtQpvD3vsNelHrIQQQgghhBBvvv9scuVoa8mUzuWZ0rk8p25G8eH4ozTwzYuHi4b8rjYs7VeFaiVcX1jfxjrjQb+29Qqz4UgYpTy1tKhVCDub1GTJw1VDndLubP221gvb1LygTSGEEEIIIcSb7z97N//JxONcv68DoHRhR+xsLFFSZ+jRvHpB5m6/g1FRSNIbGbrsMqduRmWr3bZvF2bfxUdsPRVOx2dTAgEa+ubj7J0oLofEAHD6VhT9Fl7MUcwtW7dn9tz5OaojhBBCCCGEeD3MNnJ17uIV5i9bDUBCfAKzQ+9jYWFB57afUbNaZXPtxmy6NS5Gu2mn0acYUatVfNOqFAXcNACMaFmKAYsvUqZPAAlJBprXKEhF7/TTADPi6W5LSU9H7j6Kp04Zd9P7eRytWTmwKp1nnOVpbDJ5HK2Z3rVCjmKOfPqUuLi4HNURQgghhBBCvB4qRVGUfzoIIYQQQgghhPi3+89OCxRCCCGEEEIIc5LkSgghhBBCCCHMQJIrIYQQQgghhDADSa6EEEIIIYQQwgwkuRJCCCGEEEIIM5DkSgghhBBCCCHMQJIrIYQQQgghhDADSa6EEEIIIYQQwgwkuRJCCCGEEEIIM5DkSgghhBBCCCHMwNKcjZ2/dJVV6zcTo9VRpFBBunZsRaEC+c25i3/c3O1BnLzxlBUDqmRYHhQRxze/BPLLoKoZltcccoDjP9Q3a0xl/QOI1Cbj6W7LmR8bpCvfcvIBQ5df5vq8xjlqt9NPZxjRsiQlCzmaK9R/RFZ98jKu3dPRZ955roZq8XS3ZfGXflQu7gJAot5A77kX+OPUA+xsLPi6VSl6NClmqjtmdSBrD9/HqCjUKePOrB4VsddYADB10y1++v0WeoORz2p7MrOHLxZqVa7jDXvwkJNnztPiw6YcPHoS9zyulC1VItM6v6zfzI49B7FQq7GysqKkjzdd2n9OHjeXXMdz4PAJUgwGGtWv/dJt7Ag4wL3wB/T4oo3pvQuXA/lxzhJWzJ+WYZ3bQSGsXLuJnp3bvpbPplETpjFh1CCztffL+s0YjEY6tm4BwKGjJzl47BRD+vWgi//QjGMY8iW/rN9M8N176co+/agpzZo0oIv/UKwsU/8cuLm68EHTBjSsl/O+yahPcioxKcls8eRUbvpr5drfSExKSnfsg76eiC42ljxurnw3OuM+EkII8f/DbMmVLjaO2YtWMrRfT0q8VYwt2/ewaMVaxgz/yly7+FcIDNW+sEwbn0LYkwSz7/PqnHc5ei2SrxZezLC8bll31g2tnuN2A+/pchvaP0ZRQPUsJ8msT15W6x9O0q1xMfZNfJslASG0+eEU1+a9i1ql4offbhGlSyZ02Xs8eJpI/RGHqFHSjQpezmw8Fsb2sw85P6MhNlZqWk85xfcbbzCuXRkOXX3C/B1BnJj6Di4OVjSfcJx5O4Lo26x4ruMNC4+gUAEP08++5Upnq17jBnXp2LoFiUlJrFq3iQXLVzNyYJ8c719RFFSq50ni/fAHeOTPl+N2smJvZ4etre0Lyx8+esLXg/2xsbY2+77/LiEhkadR0a98PwAaGxtWL54BwB+79hEcEsqXPTuZyid+MxiAoJBQfpi5kHnTJ5jKEpOSAJg3fQK2thqCQkKZ/ON8ChcqQIm3vF9L/BnJSTx/v75eRm776/1362M0Kunenzbxa27cCmL56l9zE54QQoh/CbMlV3q9nnYtm1PSJ/WPXzU/X7bt3meu5t8oeoOR1j+c4sSNpxRxt2X98Op4uGhYe+gefRdcIFmvULjzdgB2ja1DmSJO3H0UT80h+3mq05vKxrQtQ9d3vQDI1/4Phn9Wkr0XHxH+NJFe73nTs2mxF4WQLdr4FMr67ybFoOBsb5Vu5GrT8XDGrr2G0ajgaGvJ3N6V8C3mDEC1Qfu5FBzDOyMPYaFW0aRyfhZ/6QeALiGFrxZd5MT1p1hZqujZ1Js+76f2+6w/7nA5JIYkvZHgh3GkGBQ2jqhBATdNprFeConh8+9P0qqOJ8euRxIVq2d2r4rUKOkGwI0wHf7zLhD+NBGNtZpJHcvRtHLqyMOhq08Yu+YaQz8twZcLLvAoOomZPSrSsUGRTPvkTyO/GUNg4DU2b1yXrfP64GkiIQ/j8W/mjUoF3Rp7MWH9dS4Gx1DJ24VNx8OY1bMittYWeHvY0/ptT347FkYFL2cC7+moUdINW+vUkap65dw5Ehhp6o8u73rh6Z6aHAz42Iepm26aJ7l6EEHVyr4ARMVocXF2yqJGWhobG5o3a8yAkRMwGI1YqNWcu3iFdZu2odfrcXVxpnvH1njkzwvAxi07URQFK0tLdu49SGxcPNMnjiKvuxvLf/mV/UdOYGlpwcYtO7CztWXaxK+zjMFgMLBoxVoCr9/Czc0Vr8KF0m1jZ2eLnV36a+3Bw0csXrmO6Ggt2wP206FVC0qVSD2vSUnJ/LzuNy5dvYHRaKR2jSq0bvEBKpUKRVHYvG03R46fQUHBp7gXndu1RGNjw+59h7kVFIJ/tw4A7DlwlBu3g/Dv1oHHT54yasJUYuPi6T1wFAAtmzejwds108Wj0VinieefpFKpKF6sKH6VynM58GaWyVVWffL7tgAOHT8FQNlSPnRo3cI0IvWy8Vy7cZsNv2/n4/ffZemqDWi1Ojq3+4y3a1fPtL/6DRtLjSoVOXn2As2bNWbfoeN45M+brf66HRTC0lUbiE9IwN7Olp6d21HEsyAAF69cY/7SX0hKTqZG1Uq5GrUTQgjx72e25MrN1cX0hwjg7IXL+BTPXXLwpgo4/4g9E+riW8yZNj+cYtHOYL5pXZrWbxdGm5DCwStP0k1BK5rPjv2T3qbRqMPcW/Z+ujYt1CrCIhPYNro2D6OTKOu/m+Y1CpLfxeal43Sys+Tesve5GBxDqykn05X7zz/P2R8bUsBNw8ErT9hxNsKUXJ2a9g6FO29nz4S66aYFjl97jWS9kStzGhEVq6fmkP1UL+GK31uuWKhVbDoezrmfGlA4rx295p5n4a5gRrfJfKTEQq0i+GEclYq7MLZdGbaeeoD//Auc/bEBigLtp52m13vedH3Xi8shMTQcdZjr8xvj5mCNTwEHLgXHMHdbEIcm18PDRYNRSf0GObM++ZOzsxPuefJk/8SqwKgoKErqzwB21hYER8RRyduF2+Fx+BR0MG3uU9CB/ZcfA9CgQl56zjnHE20yTnaW7Dr3kE9qpt6Q3g6PpXbpPGnq3QqPzX5cGYiO0bLk5/XcDb3PneBQVCoVwXfvMW32Yvp274iNTfZHcPT6lD8Pn+gYLXMXr2LMiP54FvQgYP8R5i/9hTEj+gPgkT8vv/6+nTIlfZj5/Wgs/3JD3andZ+hiYyld0idH0wJPnD7P/fAIpk/6Br1ez7eTpuPzVtrPGHs7W+wyGLmavXAl9evU4N136hAUEsrUWYuYMflbrKys2Lh1J8nJen767huSk/WMnvwTngU8qFurKmcvXOHYybNMGDUIjcaGWQtX8Pv2AFp98kGmseZ1d2P08K8YP2VWmlGi7MTzJtDr9aizMR01sz45d/EKh46fYtzIAdhqNMyYv4xdew/xQZP0U5dzEo9H/ryE3gtn195DjB3RHxdnJ5Rnv++Z9ZfRaMCnuBf2dnYcOHKCMcO/olu/4ehTUrLsr0Ur19G8WWNqVq3E1p17WfPrFob17wWAb7nSzJs+wTQlUgghxH/bK1nQ4sq1m/yxax/tP2/+Kpr/x9Us5WZKQuqWdSf4UbxZ2m1RK/UmO7+LDWUKO3HmdpRZ2n0RJzsrlu+7y4OoROqVc2f4ZyWzVe+P0xH0ft8btUpFHkdrWtctzJaTz28q6pTNQ+G8dgD4FnPm7uPsnR8rCzUfVisAQJPK+bkcEkNsYgphkQncuB/LFw2KAlDey5lSno4cezbi42xvRUy8nkGf+ODhkjpqoc7BFKFhgweyeOHcbG9fwFWDT0EHZmy5jd5gZPXBe9x7Ek+i3oiipD5zpbGyoFzfAL7++SoaawviEg0A1C6dh4YV8uHVdQcFOm4jOcVI+3cKAxCfbEBjpcZ//gXqDDuAxlpNbGJKtuPKiIuzE4P6dqPEW94M/rI7vbq0pbJvOQb17ZajxCouPp71m7dRzc8XtVrN5cAbeBcrgmfB1KmG9evW4FZQCAkJiUBqkhMTo6Nj6xZYWVmhUqlyPW3r+q0g/CqWw9LSAltbDVUqVUi3jbOTI6OG9E3zXlR0DPfCwmlYrxYA3l5FyOeehxu3ggA4fe4i775TF7VajUZjw9jh/alVvTKQmiDUrlEFW1sNKpWK+nVqcPHytVwdR1bxZGXvwWP06D+SHv1Hsnz1xlzF8neKonD1+k3OX7pqGunMTGZ9cu7iFerUqIK9nR1qtZpG9etw5vzlXMdjZ2dLfEICHzZtaBqB/fPayqq/ingWwtHRgYIe+bGwsMDO1paEhKynao8fOZDqfqn7L+VTnIePn+ToOIQQQvx3mHVBC0h9oHzh8jUM9O9KAQ/zP1PxJnB1eH5TammhwmBIP8/+ZeRxfN6uk50V0bHJZmn3RbZ+U4vx665Tsd8eins4MLtXRdOiDJl5HJNEu2mnsXz2TbI+xUjzGgVN5U62z799t1Bn//y42FuZFm+wtlRjY6UmOlbPw+hEXB2tsLR4fnOex8maRzGpz4qon31FUMHLOVv7MYdfBlWj19xzzNhym8/reuJX3BUXBytUKrC1tkCXoKdtvSJUKOpEyON404IVSwNCuHZfR/iKZtjZWDBk2WW+XHCR+X0qYW9jgTYhhfrl3HmrgD0xcXocNLn/FTUYDFhapbZzPywCz0Ie2a67e99h9h44ioWlBRXLl6FL+5YAxGh1ODs+H52zsrTExsYarS7WdGObP597jhK4rMTGxVG4UAHTazs7W2J0aZ8LVKlUaGzSjvZqdbEYjQr9R4w3vZecnIwuNg5IHYVzdLA3lWk0z+vHaHW85e1leu3o4IBWl7tnEbOKJyu1a/jx2UfvAXDizAXOXshZwvIif06Hy5PHlR5ftDElzpnJrE9itLGcOneJ/YdPAKAoRhzs7TNsJyfx/PnFSdEMpoVm1V9WVpaoVJhGUlUqMnxO6u9OnbvInv1HMBiNJCcno2SjjhBCiP8msyZXgddvsXjlOob175XhHz6RuahYvennSF0yro6v9qF7n4IOrBxQBYNRYcXeu3zx4xkuz26UZb38rjYs7VeFaiVczRpPTLweo6KgVqmISzSQpDeaEtkonZ4Ug2JKsJ7EJJPfNe2zNRrr1/efBUp6OnDwu3oAJOmNFOmynQpFU5O7EoUcuH5fx8iWqSOB/vMvULpw6jfsO889pEXNgjjZpf7qfV7Hk04/nXlWz5Eb93WMbVcGgPVH7lO6cO5Wajx38QrbAw6g1eqYNnsxj59EYmurISLiMR3btMiy/p8LWvyds5MjMbrnUxb1ej1JSck4Oz+P18rKvN/d2NvZEhv3PAGJicneQiXOTo5YWVoyY/K3GY6eOTs5otXpTM+LRT9r18XZyVT2J11sLM5OqX2pVqswGo2mssTERLPEkxWNjQ1urqlfgjjYvXjxjpyaN30CdjlsL7M+cXF24sMmDfjwvaw/U14mnoyur8z662U9iXzKgmWrmfTtEAoXKkDg9VssWrE2V20KIYT4/2W2u9HYuHhmLVyBf7cO/+nEytHWkpthOlIMCrqEFKLjnidMjhpLInXJPIhKJDnFaBp5+dPqg6EA3AqP5do9LVV9sp+8WKhVJCQbsr19RHQi7405SkKyAQu1iore6UesHGwtuXpXi1FRCI98PnWmefWCzN1+B6OikKQ3MnTZZU7dzP0UxhSDwvrD9wHYcPQ+vsWcsddY4OluS+nCjqzcdxeA80HR3ImIpW4Z92y1m1mfAEyeMpXO3XrmKNZqA/ez6Xg4BqPCdxuu41fc1bQQxae1CjF98y1iE1MIDNWy6XgYLWun/k6UL+rEzrMPSU5JvSnfdvoB5b2cTPVW7g8l5GE80XF6Zmy5Teu3C+corr+r7FuOmlUr0bVDKwb17Ya3VxFGDOiTrcQqMxXKliIoOJSw8AggdapamZI+6UaNXkSj0XA/LHUqqVYXi16vz6IGlChejNPnLpGcrCc6RsvZi1eytS8XZyeKFC7IvkPHgNTRjdkLV5qmMFar7EvA/iMoikJiUhLf/zSfK9duAuBXsTxHT5whMTEJRVHYd+gYVSqVB8DVxYWIh49QFIWUFANnLqSNR2OjITY2jugYLSkpBtNNf1bx/Jtk1idVK1fg0PHTxMXHPzt3x9l/+PgrjSez/srKi/orLj4BKytLCuTPh6IoHDx20rTCYnap1WqSk7O+xoUQQvz7me2r5TPnLqHVxfLjvKVp3p8ydniOVyb7N2ta2YN524Nwb7cVJ1srpnUtT8s6ngAUzGNLh3eKULZPAFaWKjo19OL7TuVMdT3d7ajcfy/RcXp+6FyevE7ZX8zizwUUPDpsw8pSxY35TRiy7DJbToaTYlCIjnu+SuG5GQ3xcNHwdjl3qgzYh4VahYPGkoV9K6dpc1DzEvSZd4Hus89RtogThyanjtSMaFmKAYsvUqZPAAlJBprXKEhF79xPySvgpuFSSAzj1l5HrYYl/fxMZT8PrEqvueeYuukWDraWrBlS3TT6k5XM+gRSb+6jcrgE84wevvSac54es89RxceVpV89j3Vgcx9uP4jFq+sO7DWWTOlUnlKeqSM6g1uUoP+ii5TvuweVCkp7OjKnV0Ug9Vm+/h+9RZ1hB0hOMdKxQVG6NPLKUVwZCQq5x9u1qgGpI0zW1rlfNMHZyZE+3dozc8Fy9Ckp5HPPQ8/O2V8l7Z26NZm1cAUH+wzBxdmJYf17mUaOXqRmdT8uB96g37Ax5HXPQ61qfkRms9/8u3Vk8cq1bNmxF1D4sGlDbG1TRz5bfNSUlWt+o/+IcRiNRhrVq0OdGqn/x86vYjlC74fx9fipKCiUKelDs8apCzL4livNvkPHGDnuB9xcXShfpiThDyJM+3RzdaZu7WoMHDkBCwsL6tepTrtnz6FmFs+/SWZ9UqFsKerVrs63E38kITGRooUL0f0Vr6SXWX9l5UX9VcSzIH6+5Rg5bgqOjg583rwZN28HM2/JKnp3bc+wMd+j1epISk7GaDRy/uJVPPLnZfSw5/+GpMCza7vHVyOwsLDgp8nfvpZ/ByCEEOL1Uyl/LrMk/lEFOm7j6JT6eHtk/5mE/ydXQ7V8MO4YwYub/tOhCCGEEEII8VLMvqCFeHkZpbnfb7xJUETGy3F/UrOQ6X89vek2nwhnx9mIDMvKFnGioW8+JMsXQgghhBD/ZpJcveGGfVrinw7BLJrXKJhmRcG/uxqavcUJhBBCCCGEeFPJtEAhhBBCCCGEMIPXt3a1EEIIIYQQQvwfk+RKCCGEEEIIIcxAkishhBBCCCGEMANJroQQQgghhBDCDCS5EkIIIYQQQggzkORKCCGEEEIIIcxAkishhBBCCCGEMAOzJldnL1xm0NcT6dZvOGMmz+B+eIQ5mxcvUNY/AI8O26gyYF+G5VtOPqBU7905brfTT2e4EabLbXj/uKCIONpNO23WNkMexvPOyEPkabuVCl/u4dj1SLO2b25hDx7y29adABw8epKr129mWeeX9Ztp2+0rOvQcyJBvJrH34NEMtwvYf4TpcxaTkJBo1pgz8vDxE2YtWP7C8vj4BNp2+4qnUdGvbZ9nzl9mwIjxZttfTuwIOMDCFWty3c6TyKd8N30uX/QeTL+hYzhw5ISp7OvxU+nQcyBf9BpEt37DmT5nMVpd6ufCL+s3077HgNSyL4fzw8yFRD59fu73HDjCl0NH09l/CD/MXIhWF5ujuG7eCWbwqEkkJ+tzfYzwz1w/L2v+stX0HjiKtt2+Ij4+IV35DzMXsnv/4X8gMiGEEJkxW3IVFR3D/KWr6dO9A4tmfEfF8qVZuHy1uZr/13od/6L56px32TiyxgvL65Z1Z93Q6jluN/Devzex+ut5DwzVmr397rPP0rhyfh6t+oDvOpajzQ+nSNIbzb4fcwkLj6BQAY90P2elaaN6LJ45mfatPuG3rbs4cPhEmvKEhEQcHewZ6N8NW1uN2eP+u/thmX9ho9HYMG7kAJwcHV/bPkuXLE7/Pl3Mtr9/wswFK3B1dWHetPEM8O/Gml+3cCck1FT+Va/OrJg/jZnfj0atVrN24x+mssYN6rJi/jRmTx2Lq4sTC5597l+9fpPVG7bQq0s75k2fgLOTI/OX/pLtmIxGI4uWr6FL+5ZYW1uZ5Tj/ievnZfXq3JZ50yegVmf8Z7pbx1b8tmUX0THm/3wTQgjx8izN1VBKSgpftP2U4l5FAKhUoSzbAw6Yq/k3ht5gpM+8C+y79BivfHY0qJCXa/d0rBpUlRSDgnu7rZyc9g5dZpzlRpiO5jUKsvhLPy6FxPD59ydpVceTY9cjiYrVM7tXRWqUdAMg+GEc/vMucO2+DltrC0a3KU2rup65ilUbn0JZ/92kGBSc7a24Pq9xmvJNx8MZu/YaRqOCo60lc3tXwreYMwDVBu3nUnAM74w8hIVaRZPK+Vn8pR8AuoQUvlp0kRPXn2JlqaJnU2/6vO8NwKw/7nA5JIYkvZHgh3GkGBQ2jqhBAbfMb7yzOj83wnT4z7tA+NNENNZqJnUsR9PK+QE4dPUJY9dcY+inJfhywQUeRScxs0dFOjYowtpD9+i74ALJeoXCnbcDsGtsHcoUcTLte+Q3YwgMvMbmjeuydV4jdcmcvhXF9jG1sVCraFbVA4+1Go5ei6RBhbzZauN1C3sQQdXKvgBExWhxcXbKosZzNjbW+JYrTesWH7Jl5x7q101N5M9fusra3/4gRZ/CgSMn6NGpDW6uLgDcD49g4fI1JCQkgEpF82aNqV099frR6mKZu/hnIh49RoWKz1t8QM2qlUz72757P3sOHiU5ORlvryL07NwWezs7jp48y9JV60lJMdB74CgAvh7cF8+CqYnipGlzuBf2AK0ulllTxphiCdh/hGOnzjJ62FemfaxYs5HkZD3dv2idaTyZ7TMhIZGBX0/AYDRib2vLj999k+a8nbt4hXWbtqHX63F1caZ7x9Z45E+9Prr1G07bzz7i1NmLPHz8hHfr1+H9xu9k2RcGg4FFK9YSeP0Wbm6ueBUulKb8920BHDp+CoCypXzo0LoFVpaZf8w/ehzJneC7DPTvip2dLcWKejJiYB/y5c2Tbls7W1uqVqpAwP4j6co0NjY0b9aYASNTz8nhY6epVb0yZUuVAKBjmxacPHMhy2P80+nzl7Czs6VMKZ807yckJLJ89a/cvBOMWq3m7VrV+Pj9dwHYuecgN+8Eo1KpeBoVjYVazZc9O+Hs5PjS1w9AeMRDlvy8nqjoGKysrGjz6YdULF8GgOlzFuPtVYSbt4OJjIrGs0B++vb4ApVKxc49Bwm9H44+JYVHj59gNBgZ2Lcbri6pn7Mv019/cnVxpnoVX3btPUSrFh9k+7wKIYR4xZRXQKeLVWYtWKEsXrnuVTT/j9pw5L7i13+vkpCcojyOSVJK996tdJx+2lReuvdupfbQ/cqpm08VRVEUg9GoKIqiXLkbo1h/8puy6XiYoiiKsuVkuFK5/15TvVpD9isLdwYpiqIo1+9rFZfWvyvBEXHZjutI4BPF7y/t/dWFoGilZK9d6d4v0PEPJTwyQVEURTlw+bHy3Ybraco9O21Trt/Xpqs3ZOklpd3UU4rBaFSeaJMUn547lTO3Uo93zrY7invbrUroo9TYe845p4xZHZhl/JmdH6NRUaoM2Kss3h2sKIqiXAqOVvK226pE6pIURVGU8MgExb3tVuWj8ceUB1Gpx/PneVcURVmwM0hpO/XUC/c9+YdpSmzgUOgAACAASURBVNfuvbOM8U8nbzxVyvcNSPNeu6mnlPk7grLdxusSFR2jTJ21SPlyyGjlh5kLlamzFin+g79Vps5apCQmJmVad9W6TcqKNRtNrx89fqK07faVkpycrETHaJWufYcpIaH3FUVRlG279ytTZiwwbTt9zhLl6MkziqIoilYXq8xetFIxPuuT5at/VZb8nPrZcDsoROncZ4hiMBgURVGU85euKkO+maToYuMUo9GoLFi+Wpm/9BdTuwH7jygz5y/LNO6ufYcpkU+jTK91ulilY8+BpvcMBoPSa8DXyvWbd7KMJzv7DAm9r/QfPi7Ne1HRMUrXvsOUe2EPFEVRlN37DiujJ/1oKu/+1Qjl57W/KYqiKI8jnyodew1SkpOTMz0uRVGUI8dPK1+Pn6ro9SlKfHyCMnjURGXB8tWKoijK2QuXlYFfT1Bi4+IUg8GgTJ+zWNm6M+PPhL86f+mq0rP/1y8sHznuB+X0uUuKoihKXFy88v1P85XVG35XFCX9NRL+4KHSvscAxWAwKKPGT1V27TuU5f5f5Kd5S5UdAQfSvb9izUZlzrPrKS4+Xhkwcrxy6WrqZ9euvYeUTn0Gm/p65drflBWrn8f3MteP0WhUho/5Xtl78JiiKIpy916Y0vXLYYouNvUz7se5S5RvJ01XkvV6JcVgUAZ9PVG5cu2GKZ6ufYcpjyNTPx8XLl+jrN+0TVGU7PdXu+79lbi4+AxjvXbjtjJg5PhMj0cIIcTrZfYFLTZu2UmP/iN59CSSVp80M3fz/7jj1yP5qFoBNFYWuDtZ80nNgmnKXeytaFLZg6o+rgCoVSpTmZWFmg+rFQCgSeX8XA6JITYxhfDIBK7c1dLlXS8AShZyJHjxexTJZ/tKj8XJzorl++7yICqReuXcGf5ZyWzV++N0BL3f90atUpHH0ZrWdQuz5eQDU3mdsnkonNcOAN9iztx9HJ+tdl90fsIiE7hxP5YvGhQFoLyXM6U8HTkWmPqck7O9FTHxegZ94oOHS+oI2V/Pe1aGDR7I4oVzs719fFIKGmsLIqITsf5kE7vOP0RjrSY2MSXbbbwuLs5ODOrbjRJveTP4y+706tKWyr7lGNS3GzY21jlqy8HeHkVRSEpK5sq1m3h7Fabos5GTRvVqc+nqdVJSDADY29ty+twlwsIjcHSwx79bB1TP+qR9q09o//knABQvVpQUQwox2tQpqKfPXaJ2jSo42NuhUqno3PYzOrX7LFfnwMHBngrlSnH89HkArly7icbGhpI+3lnG87IuB97Au1gR06hI/bo1uBUUkua5tNo1qgLg7uaKxsY6W9O7rt8Kwq9iOSwtLbC11VClUgVT2bmLV6hTowr2dnao1Woa1a/DmfOXs2wzOVmPrcYGgFNnL9J74Ch6DxzFngPPR6fmLFpJl75D6TP4Gwp65OOzj99L105cfDzrN2+jmp8varWaxORkbDUvP1X0TnAob3kXTff+uYtXaFS/NiqVCjtbW6r7VeTi5UBTuY+3l2nUybdcaW7cDnrpGACeRsUQHvGIenVSp1YX8SxIoQL5uXHrebvV/SpiZWmJhVpN4UIFeBIZZSorVaI47m6pfw+KFinEk6dPTcfxMv31V295e/Hw0RPi4rP3GSuEEOLVM9u0wD99+lFT3mtUj70HjzJuyky+GzMMixfMGf83ehqrxyu/vem1h6uG+0+eP2ysVoOvl3OGdV3srbBQp95gWluqsbFSEx2r52F0Ii4Oz8v+3PZV2/pNLcavu07Ffnso7uHA7F4VqVzcJct6j2OSaDftNJbP4tWnGGle43mS6WT7PHYLtQqDIXsPnmV2flwdrbC0eH5+8jhZ8ygmCUg95wAVXnDezc1eY4k2Xo+9jSW93/OmaF47YuJTcNCY/dfJLAwGA5ZWqbHdD4vAs1D2nrf6O21sLGq1Go1Gg1ar41ZQCP2GjTWVa2xs0Op0uLm60LFVC37dsoPvZywA4PNPmlGnRhUAQu7eY8Pm7cTFxaNSqzAYjCjPHpKLjtFSvNjzG2orK/P8HtSpWZWtO/bSrPE7HDt5lrdrVzOVZRbPy4rR6nB2dDC9trK0xMbGGq0u1vRsmt1fnlFTq9UYjVnvMzYujsKFCphe29nZEvNscYkYbSynzl1i/7Pn4hTFiIO9fYbt/JWzk6Pp5rxShTKUeGsoy1f/SmJSsmkb/+4dKV2yOANGTuDt2tXT9MvufYfZe+AoFpYWVCxfhi7tWwJgq9FkuBBDdsVodTg7pX/2KUarS/NMlKODPcGh902vHRyeH7OdrSbXiUeMVouDvV2av2OODg6mRT2ANM8bqtUqjEZjxmWq5/38sv31V5aWFtjZ2qLVxWJvZ5ezAxNCCPFKmO1uMCgklIePnlCzWmXs7Gz58L1GbNq2mydPnpI/n7u5dvOPc7JNvbH+U1hk+psHG+uMk8mYeD1GRUGtUhGXaCBJb8TVIXX0IEqnx2BUTMlFUEQceZ1tcLR9dTfsPgUdWDmgCgajwoq9d/nixzNcnt0oy3r5XW1Y2q8K1Uq4mjWerM5PikExJVhPYpLJ75r2W3HNC867ub1VwIHwyETUKhUzeqQ+x3TtnpYvPyj+WvafE+cuXmF7wAG0Wh3TZi/m8ZNIbG01REQ8pmObFjlq6+q1WxTxLIilpQUuzk6U8inOsP69MtxWo7Gh/efNaf95c24H3eX7n+ZTrnQJXJydmL1wJc2avEOj+nXQp6TQxX+oqZ6zk2Oam9bExCRidDry583dZ0hl33IsWrGWsPAIzpy/zHejn+8zs3helrOTIzF/WRlPr9eTlJSMs3PuFkqwt7MlNi7O9DrmL6NdLs5OfNikAR++l/Xv8F8VLJCfhMQkHj2OJF/ePLg4W2WY1Nrb2fFBkwasWr+ZkQP7mN5v3KAuHVunv5a8ihQi6O7zRTGMRiMLl6+hc7uWOR41/as/r5E/n1/T6mJx+UsSFhf3PJnSxcblOGFJvz8nYuPiMRiNpgRLq4vN0XOLGXnZ/hJCCPFmM+vd6LLVv5qWXz919iJqtRo3t6xHQv5Nqvi4suNsBCkGhUhdMjvPPcx23RSDwvrDqd+wbjh6H99izthrLPB0t6VsUSeWBIQAcCs8lmqD9vFUl5xJa2lZqFUkJBuyvX1EdCLvjTlKQrIBC7WKit7p+8nB1pKrd7UYFYXwvySRzasXZO72OxgVhSS9kaHLLnPqZlS6+jmV2fkpXdiRlfvuAnA+KJo7EbHULZO9G25HW0tuhulIMSjoElKIjku7rPPkKVPp3K1ntuN0dbCiTpk8TNt0E73ByLrD90lMNlKzlFu223hdKvuWo2bVSnTt0IpBfbvh7VWEEQP65CixMhiNXL95h19/385779YHoHyZkgSFhBJ6PxyAO8F3WfbLBlOdH2YuJOxB6u+GZ0EPbGysTaNButg4vIqkLtay//Bx1CoViUmpo5BVK1fg6IkzxMXHoygKq9Zv4vftAaZ2bTU2hEc8wmA0kpiYlO2REStLS6r7VWTtb3/gVdSTvO7P+yqzeF52nxXKliIoOJSwZ5+Hew8eo0xJHzQ2NtmK90VKFC/G6XOXSE7WEx2j5ezFK6ayqpUrcOj4adO523foOPsPH8+yTUcHe6r7VWTV+k3Exsbx5GkUERGPMty2acN63A97wPlLV7Ns9526NTl19iIXLgeSlJzM6g2/ExUdk+3EytnRgRht+qXbq1Qsz54Dqf8WIDYunhNnzuNXqbyp/NadEB4+fgLAidPnTdM/4eX6Mo+bC54F83Po6EkAgu/e5+Gjx5Tyyd2XKdntL7VaRbI+46XoU1IMxCck4PSXUVIhhBD/LLMNi3h7FaHtZx8xddZCYuPiyZvHjf69u2R75aN/i5Z1CrHtTASl++ymZCFHWtQoSNDDuKwrAgXcNFwKiWHc2uuo1bCkn5+pbNXAqvjPP8/3G29iY6lm5cCqFM2X/WkePgVT/7h6dNiGlaWKG/ObMGTZZbacDCfFoBAdpzetlnduRkM8XDS8Xc6dKgP2YaFW4aCxZGHfymnaHNS8BH3mXaD77HOULeLEocn1ABjRshQDFl+kTJ8AEpIMNK9RkIreuZ+Sl9n5+XlgVXrNPcfUTbdwsLVkzZDqONll79pqWtmDeduDcG+3FSdbK6Z1LU/LOs9XYtTqYonK4f+1WeBfiU4zzjK93S28PexZP6w6VhZv5vTXoJB7vF0rdRqcXq/P0bLWu/YeYve+w7i5uvDR+42oWzP1OSEHB3v69viCeUtWERuXOjrwRZtPTfUa1qvFrAXLMRgMqFQqPv2oqWmFtM+av8ecRT/j7OxEg7o1qObny7TZi5k8eiiVKpQlLDyCbyZOJzk5mdIl3qJrx1amditWKMPu/Yfp1ncYtrYaOrRuQc2qlTh87DSrf/0dgITEREaO+wGVSkW3jq3wq5h64123ZlXGTZlJry7t0hxjZvFYWVm9cJ9Lfl7PmfOXMBiNxMcnmFag+37scJydHOnTrT0zFyxHn5JCPvc89OzcJqddl07N6n5cDrxBv2FjyOueh1rV/Ih8du1WKFuKerWr8+3EH0lITKRo4UJ0/yJ7++zU9lMWrlhD36GjcXZyorqfL+/UTf/vHaytrWjxYVN+Wf87FcqVzrTNYkUL0+OLNixf/SsxMTrKlPLBv3vHbB9r8WJFuR0Uku65q88+fp8lq9YzYOR4LNQWNG1UL02iU65MCX5eu4nQ++Hkc3ej3ecfm8pe9vrp2/0LFq1Yy9ade9HY2PBV7y65/tcD2e2vShXKMXDkBGxsrPHv1oFyZZ4/G3s7OIT8+dxlSqAQQrxBVEpuHy74j5u2+Rahj+JN08Ne5Gqolg/GHSN4cdPXFNm/i5wfIcRfHT99nl17DzFm+FdZb/zM7n2HuR0UQp9uHV5hZG+O5b/8ikZjQ+tPP/ynQxFCCPHM/9ew0mvwWJtE9UH7OTDpbQq4adh68gHdGntlq+7LZLHfb7xJUET6qTEAn9QsZPpfT2+6zSfC2XE243/gWbaIEw19873U+RFC/H+q7ufLr79vJ/DGbcqUfCvb9f4rnyPRMVpOnLnA5DG5f0ZQCCGE+UhylUN5nWzo/9FbNBx1GJUKGlTIR+u3C7+y/Q37tMQra/t1al6jYJoVBf/uamjWy1ALIf471Go1PTu1YeHytUz6dkiOprP+FyxeuY4WHzbJ9cIaQgghzEumBQohhBBCCCGEGbyZT+ALIYQQQgghxL+MJFdCCCGEEEIIYQaSXAkhhBBCCCGEGUhyJYQQQgghhBBmIMmVEEIIIYQQQpiBJFdCCCGEEEIIYQaSXAkhhBBCCCGEGbyS5OrGrSDade/PjVtBr6J5IYQQQgghhHjjmD25MhiN/LJhM85OjuZuWgghhBBCCCHeWGZPrnbs3k81v4qSXAkhhBBCCCH+U8yaXEU+jebM+cu89259czYrhBBCCCGEEG88syZXK9f+RvtWzbFQyzoZQgghhBBCiP8Ws2VB5y9dxdnJkbe8vczVpBBCCCGEEEL8a6gURVHM0dDCFWs4e/4y6mejVrGxcdjaaujZuS1+FcubYxdCCCGEEEII8cYyW3L1dyPGTqFT288o6eP9KpoXQgghhBBCiDeKPBwlhBBCCCGEEGbwykauhBBCCCGEEOK/REauhBBCCCGEEMIMJLkSQgghhBBCCDOQ5EoIIYQQQgghzECSKyGEEEIIIYQwA0muhBBCCCGEEMIMJLkSQgghhBBCCDOQ5EoIIYQQQgghzECSKyGEEEIIIYQwA0muhBBCCCGEEMIMJLkSQgghhBBCCDOwNFdDBqORDj0G4OBgb3rPt2wp/Lt3NNcuXpvAUC1NRh8hLtFA50ZFmda1Qrpttpx8wNDll7k+r7HZ9tvppzOMaFmSkoUczdamEEIIIYQQ4vUwW3KVEJ+ARmPDwp8mmavJf0yZIk7cW/Y+kzbcIFKblOE2dcu6s25odbPuN/CezqztCSGEEEIIIV4fsyVXcQkJONjZmau5Vy74YRz+8y5w7b4OW2sLRrcpTau6nlnW08anUNZ/NykGBWd7q3QjV5N/vcGqA6EA1C+Xl2ldK2BjpeZSSAxdZpzlg6oeHAmM5EFUInN6VaR++bwAVBu0n0vBMbwz8hAWahVNKudn8Zd+AMQmptB5xlmu3dNiNELzGgWY2KEcKtXz/Y78ZgyBgdfYvHGdmc6QEEIIIYQQIifM9sxVfHwiKQYDk6bPpc+gb5g0bQ7hEQ/N1bzZtZ92mk9qFiR4cVM2fV2DXnPPEfIwPst6TnaW3Fv2PjvH1klXtu10BKsOhHJ4cn0uzmzEw5gk5my7A4CFWsXVUC2VvF3YM6Euo1qVYtzaa6a6p6a9Q15na/ZPept7y943JVYAK/beJa+TNVdmv8vl2Y3QJaQQ+jhtrM7OTrjnyfOyp0MIIYQQQgiRS2ZLrqytrShfpiTtWn7MrCljKOlTnB/nLEFRFHPtwmzCIxO4cldLl3e9AChZyJHgxe9RJJ9trtr94/QD2tYrgquDFRZqFT2bFmPLyQemcjsbCz6uURAAXy9n7j5OyFa7rg7WnLjxlCOBkSgKzOpZkaL50o4SDhs8kMUL5+YqfiGEEEIIIcTLM9u0wEIF8tO7a3vT608+aMzWnXuIfBqFex43c+3GLB5EJeLyLAH6k4u9Va7bfRSTxOYT4SwNCAHAqCi4OVibyh3tnu/DwkKFwZi9xLNtvcJExSYzaMklQh7F0aWRFxM7lkX913mBQgghhBBCiH+U2ZKrJ5FPidHqKF6sKACKomAwGM3VvFnld9EQpdNjMCqmBCsoIo68zjY42r78KfFw1TCwuQ9DWpQwV6gm/s2K49+sOGGRCbScfJKNR8NoWSfrZ8SEEEIIIYQQr4fZpgU+eRrF1FmLiHj4GKPRyG9bd+FZ0OONG7UC8HS3pWxRJ5Y8G2G6FR5LtUH7eKpLTrOdhVpFQrIh2+1+XL0Aqw6EEhWrR1FgSUCIaRQrOxxsLbl6V4tRUQiPfD5lcML66/y8P3WRjAJuGgq4adLVnTxlKp279cz2voQQQgghhBDmZbaRq1I+xWnerDETp80mPiGR4l5F6N+ni7maN7tVA6viP/8832+8iY2lmpUDq6Z7jql26Tz8uPkWW089wLeYC398Wwv/+RfYcjKcFINCdJyewp23A3BuRkMaV8rPlbta6gw7QGxCChW8nFngXynbMQ1qXoI+8y7QffY5yhZx4tDkegC0rutJ91nnmLLxJgoKjXzz0aJWoTR1tbpYoqKic3lWhBBCCCGEEC9LpbyJK04IIYQQQgghxL+M2aYFCiGEEEIIIcR/mSRXQgghhBBCCGEGklwJIYQQQgghhBlIciWEEEIIIYQQZiDJlRBCCCGEEEKYgSRXQgghhBBCCGEGklwJIYQQQgghhBlIciWEEEIIIYQQZiDJlRBCCCGEEEKYgSRXQgghhBBCCGEGZk2uomO0fDd9Lt36DWf4mO8JvnvfnM3/ZwWGainceTtubbYyaMkl87R5OxyfJiMz3abrqOXcDInIsGzF5mMs/vWwWWLJyJOoWEq9N4oYXUKG5fU7TuHw2VsAXLvzgGKNhpO/9gCG/rAh2/sIexhNgbqDMt0mRpeAfaU+hD2Mzna7sXGJdB6xlML1h1D83RFMnL8t3Tbnr4XiUNmf2PikNO//uDwAr4bDKFRvMP0mrsFgNJrK9hwLpMJHo8lfZyDNes4g4knMC2N4087PX+PJra37L1L+w9GZbpPV9ZORmT/vpU7byZlus/voVZp2/ynbbb6MdoMXsXzT0VfS9tzFP5uuqTmLf852PaPRSM/+I/lx7tJMt9sRcICFK9bkKsY3wd17YQwYMT7X7TyNiqZtt6/S/B5n14AR47l7LyzTbUaMncKRE2deNjwhhBCvgFmTqwXLVlO65Fss/GkSHzRtyK+/bzdn8/8pivL85zJFnLi37H0GtyjxWmO4dudBJmXhr3Tf3y/aQY/P38bZ0TZd2ZZ9F3BxtKOunw8ApYsXIHjPZAZ2amz2OBzsbdi/cgh53RyyXWf07C2o1GruBHzHkdXDWfn7MQKOBQKQmKxn+8HLdBm5HOWvnQwcPnuLhesPcuSX4dzYMZGbwREsWHcQAF1cIp1HLmPmqLaEHZxK5bJFGfDdugz3/6adn7/Hk1t1/Xz4ZWr3TLfJ7Pr5uxhdArNW7WPq0l2ZbqcoCmNmb2Fcv49zFO+bxGAwYKFWk5iUhK3GJtv1Am/cJj4+gYtXAklKSn7p/f/9mhe506dre3zLlf6nwxBCCPEXluZqKCo6hqCQUAb364FaraZOjSrUqVHFXM3/610N1dJs3DFCFjcF4EaYjiajj5pej193HcWoYG2lZs62OzzV6Qmc+y5F89llq/2R34whMPAamzdmfMOdEQu1msmLtrNy83HUahULxnakduW3AKjV5jsu37xPo87TsbBQ07h2GRaM7QjAwMnrWLHpGFZWFkycvw1nBw0XNo8BYM7q/Zy8GIRapSLsURQWFhasnNyFfHmcTPvtN3ENl27c48DKoRnGdTc8km0HL3H2t2/TlRmMRsbO2crSiZ2ydYyKojBl8U7WbDuJokC1CsX4cURrHOxs0m3XZtBCShbzYOyXqTfPzXrOIPDOAx4/1XFjx0QK5XdJU+dhpBbvRsPZPKcv79YqY3q/ajkvalQsjrWVJQXyOlOxVGHuhD7i3VplGPXjJm6FPmLppE7pRkl+33OeTp/UxtPDNfU8dWjEjyt206fNO+w7cZ0KJT2pX60kAEO6NMGr4TASkvTY2li9kefnRfE8iYqly9fLCLr3GBUqRvf9iM+a+AGZXz+6uEQqfDyGlBQDLo52XN46NsNj+vv1s3D9ITbsPE3A0uejcIO/X09Ckp4537bjY/9ZlPIuwPThrfhpRcALz9WGnWcoUsCNauWLZRlr4O1wPvafza1dkwC4GRJBs54zTa+v3XlAn7GriIlNQKVSMaxbUz5/r2qaY2jwxVSCw57QoEYpFo//ApVK9cLYssNoNGJhYQFA2IOHFPTIn+26J89coHqVSgTeuMWFK4FU96sIpCZri1asJfD6LdzcXPEqXMhUx2A00q3vMCZ+O5h5S34hPOIhVSv70qtzWwDOX7rK2t/+IEWfQl53N3p0aoOba+o1dD88goXL15CQkAAqFc2bNaZ29dRrJDEpiXlLVnE/PAJFUahaqQKtP/3QdH5+3xbAoeOnAChbyocOrVtgZZn1n7odAQfYHrAfB3t7qvn5pil78PARi1euIzpai0ZjTYdWLShVoni2z19GFEVh87bdHDl+BgUFn+JedG7XEo1N+qR3e8ABzpy/xMiB/lhaWrBh83b2HTpGfHwC3Tu1kb+1QgjxBjHbyFXo/XAKeORn5ZqN9Bs6hnFTZnI/POMpZSI9nwL2rDl8j5BH8dxa2ITYDR9TJG/2EisAZ2cn3PPkydE+Hz3VktfVkcBt4/myfUPGz91qKju2ZgTuro7sWTaQ4D2TTYkVwPThrfjgnQpM6P8JwXsmmxIrAAu1ip2HLzNxQAsClg7Ct6QnPyxJOyLg4mhHXjfHF8Y1bu5WBnVunCZp+NOqLSco71MI31KFs3WMfxy4xLodpzn8y3AubB5NUnJKhiMU4+f9gYVazZi+H5ne27bgK4L3TMbRXpNh2xZqNQXzuaCxTnvj1rpZNbwK5cFgNLL/5HXOXLlL4zplAZg67HN+n9OXSqWLpGvvdugj3iqaz/Tap2g+bt19BMCd0Ef4FH1+M+zkYIuLox2h4ZFp2niTzs+L4pm8cDvFCrlzZes4ln3XGf9xq0zTpjK7fhztNQTvmcy2BV9lekx/v34+a+LH2at3TVMXDUYjGwPO0e7DGgAcWDmU+WM6kD/Pi69JfYqBifO3pTn+7FzrLzJ+3lZ6t32Hc799y+4lA9h55GqaUZ1dR66ycWZvLm8Zy/HzdziSyymVOwIOMPnHeQSF3GPa7MUsWbmOE6fPc+DwiSzrGo1GTp+7RJVK5fGrWJ5TZy6Yyk6cPs/98AimT/qGYV/15Or1m6YyC7UaV1dn5i/9hU5tP2XJrO/p2akNADFaHXMW/Uyfru2ZNvFrKpQrzZKf15vqbti8naaN3uaH8SP5dmg/LlwONJ2fg0dO4ujgwLQJXzN1/EgSEpN4EhkFwLmLVzh0/BTjRg7gh3EjiNHq2LX3UJbHGPk0mg2/b2fM8AFM+nYIDyIepSmfvXAlNapUYtrEr+naoRUzFyxHr9dn2W5mzl64wrGTZ5kwahDTJnyNXp/C79vTJ/eXrl5n38FjDPTvhqVlanLcsvn7zJs+gQoyaiWEEG8csyVX8fEJ3Am+Symf4vw0+VuqVKrAjHlLZRpINjnbW/EwKolpXSqgsbJApYKcfFE9bPBAFi+cm6N9Wlqo6fJpHSB1qlVIWGQWNbKnavliplGMxrXLcvzCnTTl4/p9zIafemdY98qtMM5evcsXn9ROV5aYrGfK4h184/9htmPZfugyrd+vhqO9BpVKxRfNa7H76NU02/wWcI69x6+xeGKnHI0OuLs6cGvXJOpWST9d02A04latH5/1m8e3/h/i7Zk3y/YSEpPR2FjRb+Ia6necgo2NFXHPnsmKT0xGY2PJhl1nsK/Uh8RkPRobqzTPbL1p5+dF8Uwe/BmTB38GQJVyXiTrDTyK1JnKs7p+MpPR9ePmbE+jmmXYuDv12ZQDJ2/gYGtDrUrZH3lY8uthalT0ppR3gTTvv2ysLo52bN13getBD8jj4sDSv53blk2q4Opsj4OdDZVKF8n17+Z779anYb3atGrxAYP6dqOUT3EG+Helft0aWda9dvM2if9j776jo6jaOI5/d5OQ3iAhAQRC6L33LtgQC8qrAtKkiDRpigIiShFQVASUKlVAQWkCShel9947hBAI6T3Zef8IbIiBJMBGUX+fczgnO3fvnWfKLvPMvXM3IZ7KFcpSvUoF9h08ak0sjp86S9VKz9jRGgAAIABJREFU5bC3t8PZ2YlqlSukq+vq7EzFcmUoWqQwgHUbDx87SWBAQQrf6ulq2rAuB48cJzk5JbWeqzO79h7kSlAw7m6u9Ojc1lrX1dWFU2fPc/zUGQzgjdf/h69PbiA1uapXqxquLi6YzWaaNqrH7n2HstzGk6fPUjSgMHlye2EymahXO60XMSw8gktXgmjSsA4AgQGFyOuThxOnzmbZbmb2HjhM3VrVcHZO/ew1qleLA4eOpXtP8LXrfDvvB/r36oyba/ZvtomIyN/HZsMCXVyc8cntTe0aVQB4pmlDvv/pZ8LCI8nt7Wmr1TwSvhg/gTlz5wNQs2Z1Jk/66qHbNJtNBPq74upk99BtZZenu4v1gsXe3vxAD13fTR6vtOdv3N2cCI+KzXbdoV8tY0i35tjbZcz7Jy/YRNPaZShaMOtE5baQ0EjrMK7bsV2/mXYhHxefSP8xP1Cx5GN37Sl7UHZmM2E7J3DwxGW6fjgbZ6dcvPJ05kN3XJwdiYqOp0G1EhQr5EtkdByut4bnuTo7EhQSTvFCfrz5akPs7eyIiI5LN3zvUds/94pn/7GLDP/mZ8IiYjCbTSSnpGCxpN2EyYnzp1Xzmnw+cw292zbl+9W7aPN8zWy3GR2bwJez17F2Zr8MZQ8a69gBLRk5ZSUtek4C4MMez/PaszWs5d6eaRfStvpsXg66St2aqedgRGQknh737qm7047d+6lUvgyOjrkoW6o4dnZ2HDxynKqVyhMdE0PBAmkJp4uLMxFRaeePyWyyJlB3ioyM4tTZ8/QemDa008nRkcioKHJ7e9Hu1ZdYvHw1Y8ZPAeCVFs9ah77Vq1WNmJhY5i78iZDrN2ncoDatbg0LjIiMZufeg2y81SNnGBbcXF2z3MbomFhcXdOez3N1Sfs7Mioai8Wgzx0TXCQmJhIVHZNlu5mJiIyiWGCA9bW7mxuRd+w7gDkLf8JkMuHhnv1nPkVE5O9ls+TKz9eHuPgEDMNIdwfW7i4Xyf90XTu/weutU4e35MqVK1t17MwmLClpF5BRcckZ3uOU69+xr8Ii0y4wb4bH4O2R9cUNwB97TxN8I4KXn6ySoSwiKo6vF2xk87yB9xVL3jwe6ZKFG2FR+N3x/Je9nZmdPwzmf32+YeZPW+j4UsYes/v15ey1tG5ek7x5PKhUuiCvP1ebX34/nGVyVSLAjxPng/mwR+rQs0W/7rb2lBQP8GPlbwepVLoglUq/SvCNCBISkggo4AM8evsns3g6vj+T3u2a0OV/DUhITMavbt905Tlx/jRrUJ4eH8/j+NmrrNh4gO3fZz5T5p0mzFvPC00qUdA/d4aye8VqZ2cmJSUtIYqKST8rpJurE5/0e5lP+r3MrkPnebHnRBrXKpVu39vSpGlzOHHqLOcvXgZMnLtwkXETp/P8M00pXjTgnvUsFgs79xwkISGBzr3eAyAhMZGdew5QtVJ5XF2ciY5JSzIiIiIztOHgkPG/GS9PD0oVL8rAPt3uul4nJ0def+VFXn/lRU6fvcCYLydTrnQJvDxT989TTRrwVJMG3AwL54tJM9i+ez+1q1fGy9OD5556nOeeaXofeyc1KYyOSTuW4RFpnwlPD3cc7O0ZP3roQz/3didPD/d0yVRUdDSeHumPf5f2r3Hk2ElmfbeYHl3a/bkJERF5BNnsat7fz5e8vrn5dcNmDMNgzYbfye+fN9t3R/9JXF1d8fX1wdfXB0/P7F0M+Xs7ERaTSGhU6kxbP27JfIrdu7Ezm4hLTLlr2eixn9Gx85v33WZm3F0cOXL6KhaLQVBI+qm23VycOHo6dcbAG2HRxCemPX+w8+BZzl6+DsDiX/dkGH41ZPwSXuqVcQjj0PFL+bjXC3e9gBk3cw2vNauJv8+9e0Ht7MzEJaR/DqJ5owosXLWT6Jh4LBaDmT9toXnjtKFLDg72+OZ2Z8pH7fhwwjIuBGV/+NWNsGiKNH2PzbtOplv+x97TjJn+C0nJKURExbFi437KFcufZXstnqjCdyu2c/5KKBFRcUyct4FXb01y0KhGSU5duMbarUdJTEpm7PRfeO7xSjjeet7rUds/mcVzIzza+gzWrCVbMJtNxMTFW8uzOn/uJbPzxzGXPS2aVuHDCcuoVLoghfNn7/nE0PBovv3xD97p9PRdy+8Vq7+PJ+FRsdyMSE08flq7N129lm9/w4lzqc+klg70x9U5V7reO1vr0aUdpUoUpX/PLrz+6os0rFuL/j07Z5pYARw/eYbEpEQmfzGS6RNGM33CaPr37Mye/YdJTk6hRNEi7Np7kMTEJMIjItlz4HC24ilfpiRnz1/k4uXU75Az5y4w87u0nwn49KupXLl6DYDH8vvj6JjLOsT8pxW/sHlr6oQV3l6eeHmlnWPVq1Rg87ZdxMTGYhgGGzZvY+Pv27KMp0TRAM6cvcD1G6GkpKSweesOa5mXpweFCuZnw+atQGqP08Spc4i745x9EFUrlWfL9t3E37opuWHzVqpVLp/uPd5enrzS4lnOnr/Ezj0HHmp9IiLy17BZzxVAtzfa8M2M71i8dDUF8vvRs2t7Wzb/j+bl6sA7LUrQ4L3fCMjrwvM186e7s50ddUvn4Yulp1ix8yoVi3jx89A61rLIqGjCwrL/W0zZ0af9E/QaMZ9uw+ZStmh+NsweYC3r0KIuHd6fgW/tbfj7eLJkUg+KFUqdjKFxzVIM/Gwxh09eoXABHz7p91K6diOj47kZEZ1u2YqNB8jlYEfTO2bduy34RgTzf97Onh8zzh54p9qVivLlnHX8vOkgFUo+xrJJPXm2YQUOnbxMvTajMQxoUL0Eb7d7IkPdkkX86d22CW9+OJfVU99mwcqdDP5yCZA6DXqdVqMwm81MGNKa5o1Sk48Ui4WQ0EgSktL3Qk78oDW9RywgsOl72NmZad6oAj3aPA7AB18tZdZPab9hVLrZEAC2LRxErYqB9Hq9KY3ajSUxKZm2z9emQ4vUY+zm4sic0Z3oPXIBV6+HU69qCaaPaP9I7p9q5QpnGs8H3ZvTadAs/Hw86NCiLi80qcwrfadYe5Pudf70HrmAFRsPkHwraS3SNLUnZdeiIWzbf+ae589trZrX5KlOnzP14/Q9AE+8MY7jZ4NJSk4hLj6Rgo3eoWC+3Gxd8D5jpq2m40t18fG++7Cse8Xq6e5Mvw5P8nj7TymUPw/PNa5I8h2f9zdeqke7gTNISk7BbDYx6M1nyeebc8OnQ66Hktc3tZfz5KlzlCwemK1623fvp06NKjg6pvXQVyxXGhcXZw4fO0HtmlU5dPQEvQcOw9cnD3VqVCU0G99Dbm6u9Ozanm9mzCM6JgY3V1fat3rZWt6kYR0mTJlFSkoKJpOJl59/Gu9bSVSdGlWZMms+y1etw8CgfJmS1Lw1u1+FsqVoWLcmQ0d+QVx8PIULFqBL+1ZZxuPrk4eXnnuKoaO+wMXZmaebNrzVy5eqR+d2TJ+zkOWr1wMGzz3dBGfne0/k8mftu6XNVOnk6Mj0CaOpWqkcFy9fYfDwzzAwKFOyOM8++XiGug4ODrzZsRVffP0tpUoEEheXwLDRqb+1Fhsbx7ETp/nuh6U0qFODVi2fz1BfRET+WiZDM06IDU1euIldh88zY0SHvzsU+Qf6J50//6RYRURE5K/x73jIRx4pStflYfyTzp9/UqwiIiKS85RciYiIiIiI2ICGBYqIiIiIiNiAeq5ERERERERsQMmViIiIiIiIDSi5EhERERERsQElVyIiIiIiIjag5EpERERERMQGlFyJiIiIiIjYgJIrERERERERG7C3VUN7Dxxm8sz56ZZFR8cwb+oXmM3K4URERERE5N8tx35EeMfu/WzduYe+3TvlRPMiIiIiIiKPlBzpUkpKSmLhTyt47aXncqJ5ERERERGRR06OJFeb/thBscAA8vnnzYnmRUREREREHjk2T64Mw+DX9Zt5onE9WzctIiIiIiLyyLJ5cnX67AVSUlIoUbSIrZsWERERERF5ZNk8uTp45BjlypS0dbMiIiIiIiKPNJsnV2fOXaRoQCFbNysiIiIiIvJIs3lyFRYegaenu62bFREREREReaTl2O9ciYiIiIiI/JfkyFTsIiIiIiIi/zVKrkRERERERGxAyZWIiIiIiIgNKLkSERERERGxASVXIiIiIiIiNqDkSkRERERExAaUXImIiIiIiNiAkisREREREREbUHIlIiIiIiJiA0quREREREREbMCmydWO3ft5Z+gn9B00nOGfTuDqtRBbNv+PsXzHVUq9teauZbXf2ZRp3Wp9NzD/t0s5EJWIiIiIiOQkmyVXYeERTJu9kHd6deWLUR9QvXIFpnw731bN/6PUL+vD9+/WzLA8MjaZKzfiMq07q081nqzsl1OhiYiIiIhIDrG3VUPB167j7e1JXt88AJQtVZylK+/ee/MoyPv6z7zXsiTrD4QQdDOebs8E8ubTRYDUJOjtaQfYfiIUO7OJto0LM/DlEta6w+YfZdGWK5hMUDy/GzPfroaXqwORscmU7bGG5BQDT1cHjn/zpLXOhZBYar+zkZtRSRTsuCq1ndZl6PREAAAfLTjG9DXnCI9JYkqPKrRuWNBaN7N4Jvx8hkPnI0hIsnDuWgzJKQY/vl+LfLmdMo31thU/r6JXn/6cOLIfR0fHnNnZIiIiIiL/ATbruQoo9BgxMbGcPX8RgN37D1GhbClbNW9zdmYTV0LjWPlhXX75qB6D5x7mWngCAB8tOIphGByd9CRbxjZi9voLrDuQOsTx8IVIlmwP4sBXTTk88QmaVMzL1uOhAHi42HNpZjN++ahehvUVzuvCxlEN8PXMxaWZzbg0s5k1sQL4sFVpLs1sdtdeq8zisTObWLItiBGvl2Hz6IZUKOLJ1F/PZRnrbU7OTvj7+WEymR5+p4qIiIiI/IfZLLlydnai7ast+HDUF3TtM4iNm7fxvxeftVXzOeKlOgUA8PNypExBD3afDgPg513BdH26CCYTeLo48HKd/Py69xqQmkAFhcazfEcQ0fHJ9Hy2KM2q+udonJnFA1CvbB4K+roAULGIJxeux2Y71ieaPM72LZvIlStXjm6DiIiIiMi/nc2Sq8tBwSxYvJzPRgxm6pejaP2/Fxjz5WQsFoutVmFzedzTEgoPFwfCoxMBCImIJ69n2hC5PB6OhNzq1Srk68J3A6ozfc15CnVcTcvR2wmNSszRODOLB8DDOW2Yn53ZREqK8bfFKiIiIiLyX2Wz5OrIsZMUDSyMX14fAGpVr0zIjRuEhUfaahU2FxadZP07NCoR71vJVl5PJ0Ii0pKXGxEJ+Hs7WV8/WdmPVcPqcnHmM/h4OPLhd0dzNM6s4snMXx2riIiIiMh/lc2Sq4KP5efUmfNERkUBcPDIcZydnPD28rDVKmxu/m+pz4edCorm2KVIqhf3BuD5mvmY+kvqc0s3oxNZtOUKz9XIB8DqPcH0nX4QADcne0oWcMv2+tyd7AmNSuRqWDyJyZZ0CVNmMosnM9mJde269VSrVY/ERPVoiYiIiIg8DJvNFlimZDGaPdGIYaPHY1gMXF1d6NejM2bzo/s7xY/5uFClz3rCY5L4tGN5fD1Sh94Nfa00PSfvp3T3NdibzfR6rij1yqTOgtiwnC8LNl+mTPe12NuZCMjrwtReVQDoMXk/y3cEkZxiEB6TNivg3vFN8PVwJH8eZ9o2LkTZ7mtxsDfRoUkAYzqU48zVGBoN+g2A8JgkNh++wcBZh2jbuBCj2pXLNJ7MZBbrbfHxCdy4EYphGDbbryIiIiIi/0Um4z96VZ2v3Uq2jG1EoL/r3x2KiIiIiIj8Czy63Up/gf9mWikiIiIiIjnhP51ciYiIiIiI2Mp/dligiIiIiIiILannSkRERERExAaUXImIiIiIiNiAkisREREREREbUHIlIiIiIiJiA0quREREREREbEDJlYiIiIiIiA0ouRIREREREbEBmyZXu/cdov+QkXTu9R5jx08hOjrGls0/Uj6Yd4QC7Vfh/soyynRfm65s+Y6rlHprTYY6nSfsoWDHVeRqsYTwmKS/KtS/1ZotR3i6y5fW12cvX6f9ezNydJ1Dxi9h1JSVObqO22q9OoqFK3dmWD576VamL/79nvVWbDxA+ec+zMnQ/lYzf9pCkabv4V2jNys2HrBp2xOmzALg+o1QFi1dla06fd8fTuvOb6f798f23eneM2fhT0ydvSDbcazZ8DuTps/N9D2xsXG07vw2N8PCs92upHn/o7EZjtPfYcPmbbzVbwjtuvVj975DNmu3/+CRdH37fd7/aKzN2gTY9Pt21m3aYtM2bWXcxOk5fkxz6niJiGSHva0aCr0ZzjffzmNQv+4EFC7I1JnzmffDUrq90cZWq3hkBIfHM27pKQ5OaEqxfG4ZyuuX9eH7d2tmWD69V1UAnF9emuMxPgoMw2DYxOV8Oeg167JjZ67m6DqvXo/gx1/3sGvRkBxdz20zRnTA39cjw/JjZ4IoVtjvnvXqVy3Od591ycnQ/lYdX6pLx5fq8uyb423abnRMLO5uqZ+5y0HBFMh/7338Z0Pe6UWZksXuWd7siUZYLLb9TXUnJ0c+HtQXD3f3h2rHMAxMJpONonp4f1U83Tu9jpeX50O1YYtYH29Qm8cb1GbUuEkP1c6fjRs5mBOnzjJr/mKbtns56Cr+fnkfup1H7bzLrpw6XiIi2WGz5Or4qTMUDwygaJHCALRo/hSDR3xGN/5dyVXnCXtYtTsYiwUaD9oMQJWi3iwbUpvI2GTK9lhDcoqBp6sDx795MtvtngqK5q2v93E1LB43J3s+e6M89cv6ANBy9HaqFvNm+/GbXLoRS+mCHsztVw2zyYTFMOg77SCr96bG9L+6BfikfTkAinX9lZZ1C/Dj1iu837IkM9aep1g+N2b3rQbAqj3BDJl7hIQkCwF5XZjaswoF8jhbY7p+/QbVa9dn9rdTadig/n3vq0W/7KZQvtzUKF8EgB9W76L3yAUkJaVQpOl7qTFMeZvSRfPR4b1v8fJwYdOuE3R6uT6bdh7n/JVQNs8biKtzLvI36M/Azs+wfvsxrl6PoOsrDejyvwYZ1jly8s/0fL0Jbq5OAEyav5EdB85iNpm4EhKGnZ0dc0a/Qd48HhiGwdjpv7Bg5Q4MA2pUKMIX77+Gm4sjAEvX72PENz9jsRi4uzoxYUhrKpR8DIDhX//Mtz/9QURULF8PfZ3Xnq1hjaHf6O+ZvWQrDg52jJy8Ek83J/YvHQZAVEw8FV4YRnJyCl7uLhxa8ZG1XmbxHDp5mS4fzKFZw/Js3Xua4BsRfDW4NQ2qlwBSk9buH80jIjoOk8nEwM5P88oz1TM9PskpFko+PZifJnSnYqmCAMQlJFGkyUB2LR5CgbzeDBj7A7/+cRiLxeClJ6sysk8LgCyPV065HHSV/LcSqitBwZQvW+qh2zxw+BiTv/2OhMREalWvTNf2rdKVr1qzkXW/bSExMZHAgEK82bE1ri4uAKSkpDD+m5mcOnuOPLm96du9E16eqcn2qHGTuHTlKpFR0UwYO4zc3l7WNq9eC2H6nO8JD4/EySkXbV99iVIligJw7MRpFi1bxQvNnuDbeYuIjIyiY5uWNKib8YbNnX5Z9xsnz5zDZDJxMywcO7OZXm92wNMjNbHbe+Aw3y9ZSVJSEt5ennRp9xr+fr4AdO0ziOGD+uGXN/U7561+Qxj2Xh/88vo8cDwAi5auYvuufWCCfH556d7pdVxcnLl05SpjvvyGiZ9+DEBQ8DVGjZtkfb1o6So2bN5KbGwcXTq0ol6t1O+sK0HBDB7xGZO/GImTY+rndNfeA8xfvJwvRn1AisVC554DGTl0AN/M+I6g4GtUr1KRbh1bA7Bs5Vo2b0vtaS5bqjhtX3sJB/uH+28wMiqar6fPJTjkOiZMvPJSc2pXr/xQbQLsO3iEhT/9THJSMr4+uenaoZX1HAq5HsqMud9z5eo1cuVyoOULz1CnRurNu1nfLWbjH9uxt7fjx+WrcXF2ZtzIwUBqb+ups+fp0bktAOs2beHE6bP06Nw2y32XWTyZuRkWwYSps7gZFkFg4YIkJaUftZHZMbnX+fMw4uLimTV/MSfPnMNsNtOgTg1eaPYEkPp5nj7ne44cO4mPT27KlynJ5aBgenVtn2PxiMi/kGEjW3bsNkaOm2R9fTMs3GjVqbcRGRVtq1U8Mo5fjjQe67DynuX7z4YbJbv9es9yp5eWGGHRiemW1ey/wfhm1RnDMAxj96mbRsEOq4y4xGTDMAzjlTHbjfoDNxnxiSlGUrLFKNdjrbHhYIhhGIaxZNsVo0qf9UZicooREZNkPNZhpbHjxE3DMAyjcKfVxpJtV4xPFh036g/cZCQmpxhery0z4hNTjOCweMOn9Qpj/9lwwzAM48tlp4wXhm9NF1NoaKhRs05DY9v2Hfe5hwwjMSnZqPD8h8axM0Hplk9btNloN3B6hvd3HDTTGDDmB2Pb/jNG7hq9jcjoOKNZ1y+NDduPGYZhGI81HGC8M/YHwzAM49qNCMOvbl/j2o2IdG2cPBdslGs+1EhITLIu+2bBRsO39tvG5eAwwzAM491PFxkDxqS2s3zDfqNyi4+MyOg4w2KxGG3fnW58OGGZtW7BRu8YQSGp+2fzrhPG2OmrM8T9Sp9vjAU/Z9w/7QZON6Yt2nzP/XPg+CWjXPOh6ZZlFs+RU1cM9yo9jGXr9xmGYRgLV+4wnnhjnLVuq/5TjO9X7zIMwzBuhEUZHQfNNCwWyz3Xf9uQ8UuMgZ8tsr7+cc0eo1nXLw3DMIyl6/YZNf43wkhMSjYio+OMgCYDjZ0HzxmGkfXxuq1Z1y+N5Rv2ZxlHdkyZNd94b9gYY9joL43PJkwzer07zBg7fopx6sz5LOv2ee9j48jxU5m+Z9WajcaUWfPTLdt38IjxzgejjKjoGMNisRhTZs03Jn/7nWEYhvHr+s1Gp54DjfMXLxuGYRhffvOtsXjZqgztduo50Ai9GZZu2aCPPzXWbPjdMAzDOHPugvFWvyFGYmLqd8LNsHCjU8+BxpgvJxth4anneHaO5a/rNxsdug+wrmvOwp+M2fN/NAzDMMLCI4xOPQcal65cNQzDMNZs+N34cNQX1rpd3n7fCL523fq6W9/B1tcPGs/FS1eMAR+MMpJTUgzDMIzV6zYZew8cTi27HGT0GPCB9b1Xrgane33bZxOmGb9v25Vu2aCPxxp/3LHsi69nGD+t+MX6uu+g4cYHI8cZp8+eTxfrnv2HjH6DRxjRMTFGSkqK8fmk6caKX9ZnuR13GvnZRGPX3oPpls2av9iYMfd7wzAM4/TZ80bH7u8YKbe2OTuOnzxjvDdsTLpl4RGR6c6tlWs2GmPHT7GWDxkxzli36Q/DMFL3XYfuA4yQ6zes5V9Nnmms3fhHhnX9un6zMXHaHOvrtRv/SPf6Xvsuq3gyM3XWAmPW/MWGYRjGpStXjbZv9rUe08yOSWbnT3bd7XjNXvCjMWnaHMNisRgxsbFG30HDjYNHjhuGYRjbdu413hs2xkhMTDQio6KNvoOGW/ePLeIRkf8Gmz1zVap4MU6fPc+JU2dJTExixer1mM3mDHepJKOrN+M5fCGSLk+l9vBULeZNEX8XthwNtb7npToFcHQwY29nomxhDy6GxALwQs38/PZJAxzszHi42FMhwJOzwdHWeuULe+Lr6UjJx9xvvceBiNgkNh4MoWoxLyoWSR1y0/XpIqzdH0JissVaN3fu3GzfsolaNdN6ZbJrxuLfqVUpkFKB+bJdp2zx/Ph4u+Hv64G7qxN583hwMyLtub0Xm1YBIG8eD8oUzc+eIxfS1R82cTnvdX2GXA7p70RXL1+EAn6pd1ifrFuWbfvPALBq8yFea1YDd1cnTCYT7V+sw5otR6z1PN2cmbtsG8E3IqhfrQTvdHr6/nbCfcoqHmfnXDz/eCUAKpQsyMWgm9YyL3cXVmzYz/GzV8nj5ca3IztkazhPuxfqsOiXPaRYUo/74l938/rztQB4/vGKrJ81AAd7O9xdnShfogDnLl+31s3qeNla1/atKFkskP49u9C/Z2eKBxbmnd5dKRZYOMfWuWvvQerWqoabqwsmk4mOrVvSoU1La3mJYkUoXLAAAKVLFCPkRui9mrIKC4/g0pUgmjSsA0BgQCHy+uThxKmzALi4OBMbF8dzTzex9oJld2hW8cAAa29CxXKlOXE6tc1DR08QWKQQj+X3B6BR/VqcOnueuLj4LNt80HicnZ0IC4tg976DxCck8HSThlSuUDZb25GZurWqs3XnXiC1F+LAoWPUr53WS+vq7EzFcmWsoyhux7r3wGHq1aqGq4sLZrOZpo3q2eR5nNdfbcHrr6T26BYtUpjklGQiIqMeqs3Dx04SGFDQem41bViXg0eOk5ycws2w1POncf3aAOT392PSpx/jkyf3w20I9953mcWTleOnzlCzWur31mP5/SlSuKC1LLNjklPnz94Dh2naqC4mkwkXZ2dqVq3EgUNHATh55hxVK5XHwcEBdzdXqlepaK2XU/GIyL+PzYYF5vb25K032jB19gIsKRaeb9YUwzDUZZ4NIREJpFgMSnZLmwQjLiGF0KhE62sP57RDZWc2kXLr2ZCQiAQGzjrEiSvR2Jnh5JVo2jQqZH2vUy4zJiCXfWoebbo1lDAkIoEdJ29SrOuv1ve6OdtxPSIh3dDABxEdm8CXs9exdma/+6rnlMsBk8mEw63k6Hast+XxcrX+7e7mRHhUrPX1niMXOHnhGnOf7Zyh3TxebnetFxIaaR2yePt912+mXRT9NLEHo6aspOrLwyla0Jfxg1tRuXTavrW1rOLxuDXUEcDOzmRNiADGDmjJyCkradEz9RmDD3s8n26o4r0UL5yXwII+bNx+nFoVA9my9zTTR3QA4PrNKN7/4idOnruGnZ2Jk+ev0frZtKFgWR2vnBATG4ubqwsWiwU7O7v7qjvi0wnpXn8MdWVUAAAgAElEQVQ8qC/FAgMyrRMeEWm90ARwcHBIV+7q6mL922w2Z+uZrcioaCwWgz7vD7cuS0xMJOrWBEDmWxe0ty9k74ebW9pnxMXZiZjY1HM9IjIKT/e0z4GDvT2OjrmIjIrG2dkpQzt3etB4fPLkpne3Dqz8dQNTvp1PuTIl6Nq+VboYH0SdGlX4YcnPxMTGsmffIYoFBqRLLExm011jjYiMZufeg2z8fTsAhmHBzfXhYgE4f+ESi5auIiYmFpPZREqKBeMhPweRkVGcOnue3gPThg07OToSGRVFeESkNRm5zVb/z95r32UWT1ZDA2NiYq3DaIF0f2d2THLq/ImIjEr3DKS7myvnLl62xprXJ4+1zNvTwzoZTU7FIyL/PjZLrgCqVipvvdNz5twF8vrksY6Ll3vz83bE0cHMqSlPcb/PDg/97ggpFoM/xjTEzmyiyZB7z1B3J39vJ+qV9mHF0DoPEHHmJsxbzwtNKlHQ/+HvpN4pLDItmboZHoO3R9p/akPGL+HDHs9jNmfcgfeqlzePR7rk5UZYFH550ianKF44LzNHdSTFYmHusm28MWgW+5YMtek23SmreDLj5urEJ/1e5pN+L7Pr0Hle7DmRxrVKZat+uxfqsGDVTkJuRvFMg/K4OKU+MzVs4nIsKRY2zX0HO7OZpzp9/mAbZgPXb4QyZ+ESzl+8xLiJ04mPTyAsPIJxE6fTo3NbnJyy/p7JakKLu/H0cCcyKu2YxMcnEBEVhZ+vz31vw51tOtjbM3700Ex7gBwc7v/rOSYm7VyPio6xXqh6ergTEZXWo52UlERCQiKenqkXmWaTGcsdyXp8fIJN4qlQthQVypYiPiGBuQuX8MPSlbzx+isZEtG4u6zvXrw8PShVvCi79h5k+659NKiT8SbC3WL18vTguace57lnmt73dmRm4tQ5PPtUY5o2qkdScjJv9Hj3odu8vY0D+3TLUGYYqRO7WCwWa4J17foNPN3ds/wcmM2mPx3njD2X99p394onKy4uzunOy/CIyHTtZnZM7nX+PIzbn+nbzxtGRkXjdeu5RGcnJ+Lu2Cd/nuUzJ+IRkX8fmw0LjIyKonv/Dwi5Hkp8QgI/LFlJo3q1bNX8v4qd2URcYtpwCn8vJyoEeDJ9zTkAroUn0PbzXUTGJmfZ1o3IRMoHeGJnNrHrVBhHLkQSHZ91vSYV87LnTBiHzkcAsOtUGL2npp8y++bNm1SrVY9t23dke9tCw6P59sc/7jmEzt3FkZPnr5GcYiE6Jp6IqLhst317yvNTF0I4fvYq1coFALBu61Hi45No3qjCXevtPHiWs7eGsy3+dQ91KqdOHNC8UQUWrtpJdEw8FovBzJ+20LxxahvXQiNp3u0r4hKSsDObrRM+ZJebixNHTwcBcCMsmvjErIfHZhZPVlq+/Q0nzgUDUDrQH1fnXBl6UZ54Yxxjp/+Soe5LT1Zl044TzFuxnTbPpX1mQ8OjKVeiAHZmM7sPn+fImatEx2X/IhjAzs5MXMLDDw329clD65bP83iDOvTv2Zm6NavSoU1L+vfsnK3E6kFVr1KBLdt3ExMbi2EYzPthCctWrc26Yia8PD0oVDA/GzZvBVLvpE+cOidbQ/SycurMea5dvwHA9l37KFk8EEi9KDx77iJXglLPkfW/baVMyeLWm1+5vT0JCg4BUodNJSVn/R2Slf2HjjJ7wY9Aai9H/nxpMzt6e3oQExNr/bmOHbv331fb9WtXZ+eeA5w5d5EaVStmXYHUY7l52y7rsdyweRsbf992X+s1m80kJiWmWxYVHUNAodSJbjb+vg2zyUR8QvY/J2azmcQ/fT+UL1OSs+cvcvFy6nfImXMXmPndIgDy5PaiYIF8bNicGvvVayEM+vhTa88ngJOTE5evpM7MGhkVbR2e7+3lRfC1EAzDIDk5hd37D2crxsziyUqJokXYunMPkDpE8MrVa9ayzI5JZudPdt3teFWrVN46TX10TCzbd++jauXyAAQWKcS+g0dIsViIjo5h/63hgraKR0T+G2zWc+Xh7s7Lzz/DR2PGk5iYRO0alWn+TBNbNf+P0GPyfpbvCCI5xSA8JomCHVN/g2fv+Cb4eqRdADar5k/Z7mtxdbJjVp9qNKmYl9l9q/HW1/v4dMlJDAMGtCiBh0vWh6fvC8XpOnEvP++8So0SuRnWujQjFh6ncmDmQzXyuOdiTr/qdBy/h5vRieRxz8XnndJfyKekWLhxI5TExMR7tJLRmGmr6fhSXXy8M05RD/BUvXJM+X4z+er1w93VibHv/I+WT1XNVtuP+XtT45URRETFMbr/y/h4u2EYBkMnLGPMgJb3rNe4ZikGfraYwyevULiAD5/0ewmAZxtW4NDJy9RrMxrDgAbVS/B2u9RZo/zyeNCgWglqvzoSs9mMm4sj3wx7HYAzl67TtOM4ACKiYtm8+xTvf/ETbZ6ryYi3b82m16IuHd6fgW/tbfj7eLJkUg+KFcpL75ELWLHxAMnJKURExVlnTdy1aEim8WTljZfq0W7gDJKSUzCbTQx681ny+aafwvp6WDRRsRkv4F2dc/F0/XJs2nmcelXSenZ6t21K94/msXLTIaqXD2Bo9+cYNXklle4j0Wxauwy9hn/HwM8W0/WVBrzftVm26/7ZidNnKVksNVk4fe4CtWtUeeC27jRw2BgiI6NISEzEYrGw78AR/P18+XDg21SuUJYrQcF8MPJzEhMTKV2iGJ3avZplm79v3cX8xcsAiIuPZ9DHn2Iymejc7lWqVipPj87tmD5nIctXrwcMnnu6SZbD87KjXJkSzF24hIuXg8jrk5s2r7wApN6t7975db6aMouk5GTy+uThzY5psyK2fOEZ5v2wlNXrNlG6RFHy+fmSYsn6eZrMlC5ZjC3bd9Nv8AjszGZ8ffLQtUPqOl1cnHnumaZ8+MmX+Prkplrl8qSkpPaoXAu5wbDRqb+NFxsbx7ETp/nuh6U0qFODVi2fB6BalQrMmPsDNapVwtExe7NTVihbioZ1azJ05BfExcdTuGABuvxpZsjstDF99vfMXbiEJxrX46Xnnqbli88wadpcPD09eLx+LWpUrci4idMZ/eG7GYaR3k2+2zM2vv0+dnZ2fDl6KG5urvTs2p5vZswjOia1B7J9q5etdXp1bc+Mud+zfNVa7B3s6dmlHb4+aSMFGtevzYSps/mt+zt4eXowsE83/P18qViuNBs2b2XQx5+S29uL8mVKEnQ1OMsYs4onMy1feIavpsymW98hlC1VjCoVy1p7zzI7JpmdP9l11+P1QjNmzPuBvoOGY2e24+mmDSlVPPWGW+3qldl34Aj9Bg0nn19ealStRMitmxW2iEdE/htMxsMODhf5CxRs9A6/zXuXwMd876ve5IWb2HX4PDNuPUckdzdy8krMZtNDJT/y91qz4XdOnz1P91vTbIvIw/n5l/XcCA1LN4mNiEhWbDYsUCSnPehtAN0+yNzl4DDmLd9G+xdt//yd/LV0qos8uMioaHq9+yE3Qm+SkpI6bPLOCW1ERLLDphNaiMg/y1dz1/Hl7HWM7NuC/Hmz/kFQEZF/Kw93N5o90Zjhn04ATJQrXYI6tbI3bF1E5DYNCxQREREREbEBDQsUERERERGxASVXIiIiIiIiNqDkSkRERERExAaUXImIiIiIiNiAkisREREREREbUHIlIiIiIiJiA0quREREREREbOCBkqtzFy7Rpksf4hMS0i0/eOQ4fQcN542e7zJq3CTCIyJtEqSIiIiIiMij7r6Sq6SkJPYeOMykaXP5828Px8XFM3HaHDq1fZVpX42mSEAhZn63yKbBioiIiIiIPKruK7mav3g5azb8To8ubTOUHT52goCCBShXugR2ZjMvNGvK/oNHSUxMslmwIiIiIiIijyr7+3lz+1Yv37Ms+Np1/P3yWl+7ODvj6urC9dCbFMjn9+ARioiIiIiI/APYbEKLhMQkcjnYs23nXlp3fpukpCQcHOwzPJclIiIiIiLyb2Sz5MrRMRex8fH4++Xlycb1MdvZERsbj5Ojo61WISIiIiIi8si6r2GBmcnvn5c9+w9TpPBjFCnckvCISJKSk8jrm8dWqxAREREREXlk2aznqmzpEgRfC+HA4WMkJ6ew9Oc1VK9cAQd7m+VvIiIiIiIijyyT8ec51TOx4McVbPx9GwDR0TG4ubkC8MnQd8mT24sjx08yY+4PhIVHULpEMbp3et36HhERERERkX+z+0quRERERERE5O5sNixQRERERETkv0zJlYiIiIiIiA0ouRIREREREbEBJVciIiIiIiI2oORKRERERETEBpRciYiIiIiI2ICSKxERERERERtQciUiIiIiImIDSq5ERERERERsQMmViIiIiIiIDTxQcnXuwiXadOlDfEJChrL4hAR6DBjKvoNHHjo4ERERERGRfwr7+3lzUlISh46eYP6i5RiGka7MYrFw4dIVZs1ffNekS0RERERE5N/svnqu5i9ezpoNv9OjS9sMZdt372P6nO95uklDAgo9ZrMARURERERE/gnuq+eqfauX71lWp0ZV6tSoCsC637Y8XFQiIiIiIiL/MJrQQkRERERExAaUXImIiIiIiNiAkisREREREREbUHIlIiIiIiJiAybjz3OqZ2LBjyvY+Ps2AKKjY3BzcwXgk6HvcuHSZSbPnA9AXGwcuRxzYWdnR8fWLaldo0oOhC4iIiIiIvLouK/kSkRERERERO5OwwJFRERERERsQMmViIiIiIiIDSi5EhERERERsQElVyIiIiIiIjag5EpERERERMQGlFyJiIiIiIjYgJIrERERERERG1ByJSIiIiIiYgNKrkRERERERGxAyZWIiIiIiIgNPFByde7CJdp06UN8QkK65fsOHqH/kJF07v0eH4/5iitXr9kkSPl7HLkYSa0BG/F8dTk+bVYwc92FdOX9ZxzkzUl7/6boREREREQeLfb38+akpCQOHT3B/EXLMQwjXVlUdAwTp83h3d5vUqJYEZavWse02QsZ9t7bNg34UWQYYDL93VHY3terzlKxiCd/jGmEvV3GDXz7+WKkWIy71BQRERER+e+5r+Rq/uLlXA0OoUeXtgwe/lm6sqSkJNr870VKFg8EoEbViqxcs8F2kdrY0YuRvDlpHxGxSZhM8H7LkrzWoCAAMfEpDPj2IGv3h5BiMWjdsCAjXi+LyQTJKQY+bVawY1xj3hi/hxNXonixVn6m96qKxTDoO+0gq/cGY7HA/+oW4JP25QA4eD6CV8bs4NV6j7H1eChh0UlM7FaJWiVzA3AqKJq3vt7H1bB43Jzs+eyN8tQv65Otbfly+Wmm/nKO2MQUqhXzYlrPqni7OWAY8MniE3y36SKGAbVK5earrhVxc7Ln4PkI3hi/h+bV/fnjaChXw+KZ1K0Sjcr7cvRiJE99+AcRMcnkcjCxancwAHP7VadReV9+3XeNzl/tITYhhZZ1CzClRxVrLEkpFrp/s58NB68TkNeFxyv4cuxSFPP6Vwdg2PyjLNpyBZMJiud3Y+bb1fBydbDWX/HzKnr16c+JI/txdHR8+AMtIiIiIvIXua/kqn2rl+9Zltvbi8cb1La+3rP/EMWLFnnwyHLYsAXH6Nm8KK/Wf4wbkYn0n3GQV+sXxGSCEd8fIy4xhROTnyQ2IYWG7/9G6cfceb1xIeztTOTP7Uynr/bwZZeKVC/ujeVWL97yHVf541goRyY9QVyChbI91tCidgFqlPDGzmzi3LUYKhf14qM2ZVix8yo9Ju9nzxePA9D28110aFKYbs8Esud0GC1Gbufk1CdxcrDLdDtW7wlm1voL/DG2IV6uDrz19T7enXWIaT2rsGLnVRZuvsS2Txvj7mxPm3E7GfvjST5uUwY7s4kjFyP54NVSDGtdhgWbL/HxwmM0Ku9LmUIeXJrZjDbjdtGwnA9dn0p/HJ+q7Melmc34asVpjlyMTFe2bPtV9p0J58ikpkTHpdDgvd+oXtwbgMMXIlmyPYgDXzXF3s7ExJVn2Ho8lGZV/a31nZyd8Pfzw/Rv7AoUERERkX+1HJnQ4vCxk/z86wZef+XFnGjeJrzdHFi6PYhjl6Lw8cjF7L7VrEP7lu4IotszgdiZTbg72/PbJw15tcFj1rperg48VcXfmjSYb1V8oWZ+fvukAQ52Zjxc7KkQ4MnZ4GhrPQc7M8/VyAfAU1X8OHQ+guj4ZK7ejOfwhUi63Epiqhbzpoi/C1uOhma5Hct2XKVVg4LkdsuF2WRifNeKjO9SEYCfd12lVcOCeLjYYzJBx6YB/LI37Tk4F0c7XqiVH4CKAZ5cuB73oLvTatvxUJ6vkQ8nBzt8PHLRonZ+a5mHiz1BofEs3xFEdHwyPZ8tmi6xAniiyeNs37KJXLlyPXQsIiIiIiJ/pfvqucqO/YeOMnXWAvr16EQ+/7y2bt5mPnujAsMXHuO54VsB+LhNGVo3TB0WGBwWj49H2sW9u3P63WQ2pyYjfxYSkcDAWYc4cSUaOzOcvBJNm0aFrOVerg7YmVMTsVz2ZhwdzIRHJxEalUiKxaBktzXW98YlpBAalZjldgTfjLcmeUC6nq6Q8ARq3hp2CODjkYuQiLRJSNxd0obj2dmZbPL81M3oJAL8XK2v/b2duHwjNWkr5OvCdwOq8+Wy03SesJfHK/oypUcV8rgrkRIRERGRfz6bJldHj59i+pzvGdinG4ULFrBl0zbn7mzP2I7lGduxPDtPhvHc8C08XtEXfy8n8no6ERKRQLF8bgAEh8cD4O/lZK3vmCtjp9/Q746QYjH4Y0xD7Mwmmgz5PV15RGwSFsPAbDIRE59CQpIFb7dc2NubcHQwc2rKU/c9MUZeL8d0CVNUXDLXIxII9HfNUHY9IgF/r5x9jsnD2Z7I2CTr6yuh6XvDnqzsx5OV/YiOT2bAt4f48LujTOxWKUdjEhERERH5K9hsWGB0TCwTps6mR+e2j3xiBdBi5DaOX44CoHRBd1wc7TEst8pq52fy6nNYDIPo+GSaf7SVDQeuZ9nmjchEygd4Ymc2setUGEcuRBIdn2wtT04x+OH3ywAs2nKZikU8cXWyw9/LiQoBnkxfcw6Aa+EJtP18F5GxyXddz51erJ2fBb9dIiw6NXF7d+Yhxvx4AoDna+RjwW+XiIpLxmIYzFh73josMadUK+7N6j3BJKcYhEYlphuGuHpPMH2nHwTAzcmekgXcMtRfu2491WrVIzEx6147EREREZFHyX31XC34cQUbf99mfd174EcAfDL0XQ4dOU5kVDRffPNtujpjP3oPL08PG4RqW52fLEKbcbtISrZgNpv44NVS5Mud2jM15NVS9Jt+kJLd1pBiMej6VBHrkMHM9H2hOF0n7uXnnVepUSI3w1qXZsTC41QO9MLF0Y58uZ04eD6Cjxcex2yGGb2rWuvO7luNt77ex6dLTmIYMKBFCTxcsj48zar6c+xSFHXf3URsYgoNyvrw9VupPUHNa+TjwPkIag3YiGFAo/I+9Hux+APusTRV+qznekQCsQkpJKcYrNodTLF8bmwc1YD/1SvAyt3BlO6+hpIF3HmpVn7OXosBoGE5XxZsvkyZ7muxtzMRkNeFqb2qpGs7Pj6BGzdCM0z1LyIiIiLyqDMZuor9Sxy5GEnzj7dybvrTf3cof6lxS09xMSSW8V0r/t2hiIiIiIjkKJtPaCH39iBZ7JgfT6abcfBOLWoX4Okqfg8XlI1dj0ygZv+NbBrVgHy5nVix4yqdnwz4u8MSEREREclxSq4ecQNfLvF3h3BffD0c6fN8MZoM+R2TCR6vkNf648wiIiIiIv9mGhYoIiIiIiJiAznyI8IiIiIiIiL/NUquREREREREbEDJlYiIiIiIiA0ouRIREREREbEBJVciIiIiIiI2oORKRERERETEBpRciYiIiIiI2MADJVfnLlyiTZc+xCckpFu+Z/8h+g8eSefe7zFs9HguBwXbJMhH0YQpswC4fiOURUtXZavOqjUbefu9j+jWdwgDPxzNoaMncjDCh/f19LkEBV/7u8MAYMPmbbzVbwjtuvVj975Df8k6J8+cz1v9htC689vExsb9Jeu80+q1m5g6e8Ffvl5b6NpnENdCbtyz/MSpswwe/hkjPp1AZFR0urJr129YP18iIiIi/yT3lVwlJSWx98BhJk2by59/ezgsPILJ386ne5e2TBv/CZXKl2bqrPk2DfZRER0Ti7ubGwCXg4IpkN8vyzqnzpxn5ZqNfPR+XyZ/MYIXn32SCVNnk5yc8kAx/BW//fwoJcePN6jNN5+PoFTxon/ZOrt1bM03n4/AbFYHry1ZLBbCwiP46P2+9OzanvMXL6crv3zl0TnvRERERO6H/f28ef7i5VwNDqFHl7YMHv5ZurLk5GTat36ZogGFAKhcoSyr1m6yWaCPkstBV8l/K6G6EhRM+bKlsqwTHHIdP18fvDw9AKhdowp+eX0wm00AhFwPZcbc77ly9Rq5cjnQ8oVnqFOjKgDHTpxm0bJVvNDsCb6dt4jIyCg6tmlJg7o1MQyD2fN/ZN+hoxiGQa3qlWnd8nkAfln3GyfPnMNkMnEzLBw7s5leb3bA08M9y3gHffwpFy5d4aPR4zGbzVQsX4ZuHVsDEBcXz6z5izl55hxms5kGdWrwQrMnAFiz4XdOnT1Pj85tAVi3aQsnTp+1vl60dBXbd+0DE+Tzy0v3Tq/j4uKc7X1/N/HxCcycv4hTZ85jZ2fHE43q8eTj9a3lObHOoOBrzJj7A2HhETg4ONDq5eeoVL4MkHqjYcLU2YTeDKdE0QAwmShVPJAmDetm2mZKSgrTZi/k6PFT5M7tTUDBAunK9x08wsKffiY5KRlfn9x07dCK3N5embZ5NTiEqbMX4Oriwo3QmzSuX5u1G//g6aYNaNqoHoZhsHTlGv7YthsDg+JFA+jY5n84OTryy7rfuHg5iKTkZEKu38CSYqFfz854e3lmax/tP3SUdb9tITo6hheffZKnmjQAICEhkX0Hj/D9kp+t50+FW5+hLTv28O28H0hOTuGtfkMAGDygJ4/l9wdg2cq1bN62E4CypYrT9rWXcLC/r68xERERkRxzX1cl7Vu9fM8yX588+PrkASA6OoYVq9dTs2qlh4vuETR19gLOnb+Ek5Mjh46c4MKlKxw7eYYWzZ+iWGDhe9YrXaIo3877gVnzF1O3ZjWKFilE4K1EFGDC1Nk0qleTJg3rEhR8jcHDP6N4YAC+Pnnw9/Pl4qUgfl2/mY/e74OXp4e152r3voMcP3WGz0cOJjExiX6DR1CjSkWKBRbGbDaz7+ARxo0YTG5vL+Z+v4RlK9fSrtVLWW7nqKHv8Fa/IXzwbi/y+6fvmVu0bBWGYfD5yCHExcczZMQ4AgMKUb5MyUzbvHQ5iJ17DzB2+PvYmc38sv43Tpw+S+UKZbOMJzOLl68mOTmFcSMGExMTy+AR4ygWWJjAgEI5sk7DMJgwZTZPNK7P4w1qc/FyEB+P/YovPxmKm6sLS35eQ4F8/gx9tzenz15gxGcTKFOyWJbtbt+1j8tBwXw+6gOSkpIYOupzihcrAkBEZBSTps3lg3d7UbhgAVat3cSMuT/wTu+umbZpNps5deY8X48bzqRpcwiPiKRL+9dY8OMKmjaqx579h9m6Yw8jhvTHycmRCVNns2zVWl5t0Ryz2czOPQcY/dFAfHJ7M232QtZt2sL/XmyWrf104dIVxgwbyJWr1xgyYhyPN6yDg719pudP3ZpViYuL59iJU/R6s0O69vYeOMzmbTv5eFBfnJ2cGD95Jr+u30zzpx7PVjwiIiIiOc3m451+XP4LXfsMIuRGKK+2eNbWzf/turZvRcligfTv2YX+PTtTPLAw7/TummliBeCTJzcjPxhAcnIyn0+aTo8BQ/l96y4AboZFcOlKEI3r1wYgv78fkz79GJ88uQFwcXEmNi6O555uYu35MplSe7yqVa7AsPf7YGdnh7OzE4ULFuDa9bRnXYoHBlh7NyqWK82J02cfeh/sPXCYpo3qYjKZcHF2pmbVShw4dDTLes7OToSFRbB730HiExJ4uknDh06sbsfzZOP6mEwm3NxcqVOzivW5rJxY582wCIKCQ2hYryYAhR7LT4F8fpw4lbpvT505R+3qlQEoFliYQo/lz1a7x0+dpWqlctjbpx7LapUrWMsOHztJYEBBCt/qzWrasC4HjxzP1rBSL093PNzd8HB3I7+/H54e7sTExACp+65urWo4OzthMploVK8WBw4ds9YtVaIoPrm9AShcqAA3bt7M1rYANGlYB7PZTMEC+XB0zEV4eIR1nQ9y/uw9cJh6tarh6uKC2WymaaN6f9nzdyIiIiLZYfPxNC8//zTPNG3I+t+28PHYr/hk2EDs/mXPrMTExuLm6oLFYsHOzi7b9fL7+9G53Wt0amuwa+9BJk2bQ7HAwsTFx1svGG+7c9ia+VYiVfhPw8QAIqOi+e6HpQQFh2A2mwgKDqFe7erWcjc317Q2nZ2IiY29r229m4jIKDzc04YWuru5cu5Pz83cjU+e3PTu1oGVv25gyrfzKVemBF3bt0oX44OIjIxmwtRZmM2pxyI5OZkaVSrm2DojIiNxc3X5P3v3HRxV1cZx/LubhPSekITee+8dlCoigg0QFEGKFFFABBEwFAERBBVBQEBEmkqRKh1BpITeQSD0BAjpIXV33z+ii3lpCSzV32eGmb33tOfeLDP77Dn3bIb3tbubG7FxcQDEJyTg6upiLfsnIb6b+IQEcucMsh67uDgT83efsbFx/HX6DL36D7WWOzk6EhsXd9elgQ72DukvDAbs7e0wGAyY/575jImNo1CBfLe8DkhPTv9hNBgxmzP/rJ+b6417bGe80fZe3z8xsfHs3HOAjVu2A2CxmDOMISIiIvKo2Sy5On3mHJevRFC9SgVcXJx54bkGLF6xhoiISAKy+9lqmEfqasQ1fpi/mDPnzjNu4nckJb458YcAACAASURBVCUTFR3DuInf0aPTGzg5Od627b6DR/Bwd6NAvjwYDAaqVCzLkhWBXAy7TP68uYlPuI7ZbLYmWJevRuDp7p6hTweHm/9cCxYvx2y2MGxgb4xGI8PGfJWhPCHhRjIVF59gkw+jnh7uxMbFERjgD6QneF5/P8dlNBowm83WuklJSRnalilZjDIli5GUnMzs+Yv5ackKOrZ77f7i8XSnW8d2t509tPWYnh4exCdcx2Q2WxOs2Lh4axLl7ORE4r+uOzIqJlP9uro4E//3jBJATEys9bWXpwfFChek//vv3HPct/LP3/IfcfHxeHpkLhm83zFv9f65Ey9PD15o/CwvPNfggcYnIiIicq9sOqU0c+4v1h3mdu7ej9FoxMfnzt+qP0n8/Xx5/ZXmPFunBn17dqJm1Yq81fYV+vbsdMfECuDMuQvM+PFnov5eGnX8r9NcuXqNvLlz4uvjRe6cQWzYvA2AsMtXGDjsc+LiE+7UJQBxcQnkyZ0Do9HIqdCzXLgYRlLSjS3y/zp1xrpMcHvIXooWLpDp63VycuT8xTAsFkuGBKFSudKs27QVSN85cfuuvVQsXxoAby8vwi9fwWKxkJZmYte+Q9Z2+w4eYda8hel9OzqSI+juuyz+P6PRSEpqSoZzlcuXYc2GzVgsFlLT0vjxpyWcPH3WhmMaSElNtR77+niRK0cAm7fuACD07AUuX7lq3cmwQP687P57udqpM+cyvZ19kYL5CdlzgJSUVKJjYtm9/8a9K12iKKfPnOPchUvp/YaeZeacn7N8Lf+vYrnSbN2+i6SkZCwWCxs2/0mlv/+WD8qd3j8Azk6OXAq/gslsJikp2boNfuUKZdi8LYSE69f/jnUbG7dse6CxioiIiGRFlmau5i1cluHDzD9LlEYN+ZAC+fLw+ivNGfv1VOITruPv68P73To+dTt5HT95mqKF0hOUk6FnqV6lQqbavfBcg/TNFoaPJSU1FT8fb7q93RZ/v/Tnqt7t0p7psxewdOVa7B3s6dn5TWvZnTzf+Bmmfj+P3fsOUqhAPl5t8TyLlv1G/ry5AChVogiz5y/m3IVLZPfzoe1rL2b6Wl9oUp/pPyxgysy55M4ZxNCPegPwyotNmf7jT/QeOBw7ox1NGtS1JhZlSxVnw+Y/GTjsc3y8vShdoiiXwtIT7uJFC7F1+y76fDwCO6MRfz9furzVJtPxQPos1HezFjB7/mIaPlOLl15oQstmjZk1byF9Bo4gOSWFKhXKki9PLpuNWb5MKfoMHIGjYzZ6dHqDUiWK0rNze6bNms+y39bj5OjIe906WpfQvdSsMV9N+Z6+gz6leJGClC1ZHAOGu45TvWpFDh45Tq/+wfj7+VKjSkWuRUUD6cs7e3Zpz+TpPxKfkD4DeacNZjKrYrlSnLtwkY+Hj8WChRJFC/N8owe7QcSd3j8A5cqUYM3GLXTq2R9nZyfeaP0S1SuXp0zJYtStWZUhn44nMSmJvLlz0rl91v6WIiIiIg+SwfIwfjBJHok1G7Zw8vQZuv+9Dbo8GmO+nELdWlWfyt0zRUREROSGp2unCbmJMueHb++Bw3wyajwmk4nomFhOnj5Dgby5H3VYIiIiIvKAPV1r9kQeA2VKFmPH7v30/mg4dnZ2vNKiqfU34ERERETk6aVlgSIiIiIiIjagZYEiIiIiIiI2oORKRERERETEBpRciYiIiIiI2ICSKxERERERERtQciUiIiIiImIDSq5ERERERERsQMmViIiIiIiIDdxTchV69jxtO79PUnLyLcuP/3Watp3f5/hfp+8ruKfVJ3OO0HZcSKbrtxqzgxlrzzy4gJ5ypy9cpf2A6Y86DBERERF5ytlnpXJqaioHjxxn7s9Lud1vD5vMZub8vARPD3ebBPg06tIkP0kp5kcdxn/G0VNhjzoEEREREfkPyFJyNfeXpYSFX6FH5zf4ePjYW9ZZtWYjVSqWY+v2XTYJ8GnSbNif7A+NJjHFROMKgczpW9ladvxiHD0m7+NSZBJO2YyMfLMUTSoEWMtPhSdQvd8mLkYk0qxKIF93LYed0XDH8b5efoqDZ2JITjUTejmBNJOFhR9VI8jHCYCZ687y+aITpJrMlMrjwazelfFwsWfa6lA2HYogNDyBMvk9cbQ3smJXOD/1r0qFgl7EJabx3rT9bD8WiYO9ga5NCtC9aYEMYw8cHMyRI0dZsnBBpu/PkvV7GTF5OWazBXdXJ74e9DpliuZiyoLfWb/tKD9NeMdad/S0lZwPi+KbIW2Jv55M58GzOHo6DIvZwgvPlmV4rxYYDAZ+WhVCr0/nkZpqIn+DAQCsnPIexQsGAfD59N+Ys3wHAHUrFWFMv1dxzGbPWwNm4OXhwqaQ47z9cm027TzGmYvX2Pxjf1yds2X6mkRERETkvyNLywLbt3mZAb27kT9v7luWX4uMZtfegzzXsJ4tYnvqLB9Sg/MzmzLyzVIZzlss0G5cCG3q5ubIpIbMer8Sb34RQmR8irXOqt3hrAquyZHJDfn9UAQrQsLvOp6d0cDibZcY0a4Em0fXpUx+T6auDgXgamwyvabuY+3wWpz4tjEWC0z57bS13bELcWweXZcFW87TtHIgHRvm49ftlwAYPv8oKalmDn3TgA2f1mHC0r/YfTIqw9ienh74+fpm6f70GjGPZZN7sWfREEa814LVfxwCoHXTKvy+6wSRMQnWur+s3k3bF6oBMHvpNvy83di3+BP2LB5CfEIy58IiAXjtucqMeL8lzZ4pQ+i60YSuG21NrFb+fpA5y3ewaVY/di8czJXIOL6dvwkAo50RB3s7vg1+g+Cvf+X7UR0J9PNg5wEtdRURERGRW7PphhY/zF9Eu1YtsDNqn4ysuHgtkeMX4mn/bF4ASufzpFgud/48cs1ap2W1HHi5OuDmZE/zKkH8eeza7brLoFZJX3L7uwBQNr8nZ69eB8Dfw5GL3z9PTl9nDAaoXtyX0+E3kpdSeTywtzPg4eJAiVzuBHg5WpO95SHhdGtaAKPBgK97NlrXzs3SHRmX3vX/oA/fTZ2Upfvg6ebM7F+3ER4RQ+1KRej3dpP08+7ONK1dil9W7wbg8F+XSE5Oo0b5ggB4u7uw48Bptu45icUCEwa2Jm+Ouyd2KzcfoE3TKnh5uGBnNNL51dos27jfWl6ycA78vN0I9PfA3dWJ7L4eGRI8EREREZF/y9KywDvZe+Awnh7uFCqQz1ZdPrbGf/k1P8yeC0DVqpX59puv7qu/y9FJeLs7YG93Y5mfr0c2rsTc2DAku5eT9bWXWzZOhcVnqm8PZwfrazujAZMp/Vk5k9nC54uOs37/VQwGCI9OpkFZf2tdp2zpCbLBYMDBwYgBMP/9mN3VmGTajgvB/u9lialpZlpUy5G1i76FRRN7MHLKCiq+PJyCuf358uM2lC+eB4D2LWsydOJSurxWh59+C6Ft86rWdq2fr0JU3HU+HPszZy5e462WNRneqwXGuyybvBoZx6/r9/H94q0AmC0WvD1c/3UPHP6+fnvrvTDf5llDERERERGbJVchew+we+9BQvakf/MfH5/AuInT6NrhdSqWK22rYR4LXTp1pN3rbQDIlu3+n78J8HIiKi6VNJPFmmBFxKQQ4H0joYpOSL3xOj4FX/f7G3fBlgss3n6JLaPr4e3mwLB5R7kYmZi5eL0dmdGrElWKeN9XDP+vcN7szBzZAZPZzOxft9Fx4PfsXTwEgLqVi3AlMpZT56+yeO0eln3bK0Pbbq3r0a11PS5ejqZN3yksWruHVxpXvPN1+HnSu31D+nRoZNPrEBEREZH/Jput3+vSvg1TJoxk8hcjmPzFCHLlDKJvz85PXWIF4Orqir+/H/7+fnh6etx3f7n8nCme250fNpwFYO/paE6Fx1O7hJ+1zq/bL5GYYiIxxcTykHBql/K7XXeZEhGbTL7srni7ORARm8KykDDik0yZatuiag4mrTyF2WIhOdXMhzMPsvNExmeuRo8ZS4dOXTMdz+VrsTR75ysSk1OxMxopWyzjc30Gg4F2zavz0biF5AjwzrDsb9TUlcxZth2AIH9Pgvw9M7R1d3HkxJnLpJnMxCckEROXnkQ2f6Ysc5bvIDr2OhaLhZmLtlpnsUREREREsipLM1fzFi5j45Zt1uNe/YcCMGrIh/j6eNk2sv+Y2X0q886kPYxd/BduzvbM61cVD5f0P4/JbKF+WX8aDt7CxWtJNKscmGEnwXvRqnZu5m++QI1+m8jh68So9qVoNzaEaatD77oL4UevFqP3d/sp0X0tickmWlTLQbkCGROa2Lh4oqKiMx1PgK8HdSoVoXqrTzEajbi5ODI5uF2GOm80r87IKSv4NviNDOdfbVKJbsGzGTtjDRYs1K9WnJYNy1vLG9cqxZQFmwmq1Qd3VyfG9HuVVxpXpEGNErx58hL13hxDXEIypYvkZNInGccUEREREcksg+V2P1glD8zXy0+xPzSa796987I1ySghMYXSLwzhwNKhuLk4PupwREREREQysNkzV3JnEbEpuDrZkZJmZuHWi7Sqk+u++1yy/RKrdt96S/aSeTzo9UKh+x7jcfLZtFW81LCCEisREREReSxp5uohmbD0JJ8uOIbRCM2r5uCbd8qRzV5b1meGyWymSOOPKZI/gPnjuuLp7vyoQxIRERERuYmSKxERERERERvQ1ImIiIiIiIgNKLkSERERERGxASVXIiIiIiIiNqDkSkRERERExAaUXImIiIiIiNiAkisREREREREbUHIlIiIiIiJiA/eUXIWePU/bzu+TlJxsPWcym3m903t0eX+g9d83036wWaD/BW9N2MXxi3FZbnc6PIG240JuW750RxjFuq25n9Aeml+2XqTIO6txf+1XAt9YwbELGe9Hpd4bmPv7+UcUnYiIiIjI7dlnpXJqaioHjxxn7s9L+f/fHk68noiTkyNTJ4y0aYD/JUfOZz2xAjhyLvaO5bVL+rHgw6r31PfDFjzvCINbFeeNZ/Lcsvz79ysR6O30kKMSEREREbm7LCVXc39ZSlj4FXp0foOPh4/NUJaQmIibi4tNg3vaLN52iaHzj2I2W3B3tmdSt/KUze8JQJW+GzkQGsMzAzdjZzTQuEIA371bEYCrscm8NX4XJ8MSMBhgeNsSvForFwDzN5+n55R9pKRayN1hJQCrh9aiRB4PYq+nUbLHGtJMFjxdHTg2uVGGeNbvv0L/7w8REZdCTh8nvnmnHOUKeN31OhKSTHww4wBr913BZLbwet3cjGhXEoMBLBYY9ctx5mw6h8UC1Yr58FWXsrg52fP18lMcPBNDcqqZ0MsJpJksLPyoGkE+Tkxfe4bguUe4GpNC/+8PMvCHQwCcnNoERwcjQ+cd5bs1oUQnpDKlRwVer5vbGk9YZBLtvgjhfMR1qhX1xQDUKuFL58b5AQiee4Sft17EYIDCOdyY+V4lvFwdrO0HDg7myJGjLFm44B7/siIiIiIiWUyu2rd5+bZl168nkWYyMfKLSVy4GEauHIG81fYVcgQG3HeQT4se3+5l9/j6BPk48fuhCFbtDrcmVzvHPUPuDitZN6I2RXO6Z2g38qfj5A9wZcUnNQn5K4rGQ/7gpRo5sTMaaF0nN7GJafx+KII5fStnaOfhYs/5mU3ZHxpDqzE7MpRdjU2m3bgQ1gyrRel8nszeeI5WY3ZybHIjDIY7X8eIBUdJTDFx/NtGXE82Ufej3ymey512z+Rh2c4w5m8+z7bPn8Hd2Z6243YyZuEJhrUtgZ3RwOJtl9gz4Vly+7vwzqS9TF0dyidtivN2w3y83TDfbe/BJ22K80mb4rw8avtN8Yz8+RjFcrmzfkRtdp6IouHgLdQt5QfAobOxLN5+if1fNcDezsDEFaf489g1mlYMtLb39PTAz9f3zhctIiIiInIXWUqu7iRbNgdKlyhK00bPkCtHIEtWrGX8N9MZM+wjDHf7tP4f4eHiwPcbzvJW/bzULeVnTQDu5vMOpUk1mQGoXNiblDQzV6KTCfK59+Vx6/ZdoUJBL0rnS0/u2tbLzQtVgu6aWAEs2XGJme9Vws5owN3Znt9H1cUpW/rje8tDwmhTNzceLulvrQ4N8vHx7MMMa1sCgFolfcntnz7DWTa/JyF/Rd3zNfxj27FIxnYsDUCVIt6UzudhLfNwsefStSSW7rhEowoB9Hy+4E3t+3/Q575jEBERERGx2W6BOYMC6PZ2O/LmzomdnR0tmzXi6rVIrkXe/4fnp8WywTU4ej6Ocr3WUaPfJvacis5Uu72no3l19A5q9NtErf6bSDNZMP/fM29ZFRaZhK+Ho/XYaDBkWCp3J+FRSfh5ZLMeuzvb42CX/la6Ep1Mds8b/fp5ZONKzI2NTzycb4xhZzRgMt3fdQBExqfg434jnn8/k5XH34U5H1TmuzVnyNNhFa+M3s61uJT7HlNERERE5P/ZLLmKuBbJqdCz1mOLxYLp79kWSVc4hxs/9K7EpVnP06lRPtqP35Wpdm98EcILVYL48/N6rB9RBzvj/c8EBng5cvVfSY/ZYuHwudhMJW3ZPZ0yJEzh0UmERyell3k5Zii7GpNMoJfjTX3YkoeLA7HX06zHF68lZShvVD6AlcE1OTfzOfw8HPlkzpEHGo+IiIiI/DfZLrmKjGLs19MIv3wVs9nMomWryZUjED9fH1sN8UQLj07iueCtJKaYsDMabrlxhJuzPYfPpic4l64lWs9fi02hXIH05Xsz1p3BaIT4pBvJhLuzPScuxpFmshCXmEZ0Qupd42lYPoA9p6I4cCYGgPmbL/DK6O0YM7EusGX1HHy7KhSzxUJ8UhrNhv7Jhv1XAWheJYh5v58nLjENs8XC9LVneKFK0F37vB+VCnmxbGcYALtORnHiX9vZr9odTu/vDgDg5mRP0ZxuN7UfPWYsHTp1faAxioiIiMjTL0vPXM1buIyNW7ZZj3v1HwrAqCEfUqxwQVo834hPx03kemISBfPl4f3uHW0b7RMs0MuJOqX8qNR7A3ZGA25O9kztWSFDnb4titB98j46T9xDyTwebB5dF4BPXi9O+/G7CPRyomPDfLSsnpOXR21n1/hncXKwo0mFQCavPI1f22V4ODsw7u3SvForFz2+3cfSHZdIM1mITki17ia458v6ZPd0ZHafynT4cjfRCank8HZi+eCambqWQa2K0ee7AxR9Zw0ms4UujfNbd+9rViWI/WdiqPbBRiwWqFfajz4tCt/XvTsVlkC9gb8DEJ2QyuZDEfT//iBvPJOHkW+W4uPXivH62BBK9VxL7RJ+NCwfYH3Or24pf+ZtvkCJ7muxtzOQL7sLU9/NeN9j4+KJisrcEk0RERERkdsxWP7/B6tEnnAvjthG+2fz8FKNnI86FBERERH5D7HZboHydEgzWejx7d7blg94pSj5A1wfYkR3t3J3OKN/Ps76T2sTEZvCjuORfNm57KMOS0RERET+YzRzJU+8VJOZbpP2svFgBA52Bt5rXohuzxV41GGJiIiIyH+MkisREREREREbsNlugSIiIiIiIv9lSq5ERERERERsQMmViIiIiIiIDSi5EhERERERsQElVyIiIiIiIjag5EpERERERMQGlFyJiIiIiIjYwD0lV6Fnz9O28/skJSdnOB8dE8uoLybRqdcABgR/RujZCzYJUu7d6fAE2o4LedRhWD1u8YiIiIiI2EqWkqvU1FT27D/EN9Nmc6vfHp4ycy7FixZi6oSRNGtSn19+XWmzQOXeHDkXa5N+bPVT07aKR0RERETkcWOw3CpLuo1Z8xYSFn6FVi814+PhY5nxzRicHB0BiIqOYUDwZ0z6YgR2Rq02fBzM33yenlP2kZJqwdPVHoDVQ2tRIo8HADPXneXzRSdINZkplceDWb0r4+GSXm/4gmNYzBayORj5ZsUpIuNSOTKpIXmzuxAWmUS7L0I4H3GdakV9MQC1SvjSuXF+AEb/cpwfN50DoF4pf8a9XQZHB+Nd41m87RJD5x/FbLbg7mzPpG7lKZvf03o9V69GULl6bWbNmErdOrUfyj0UEREREcks+6xUbt/m5duWnbtwiaDAAH6Yt5C9+w/j5+dDx3avkStH4H0HKfemdZ3cxCam8fuhCOb0rZyh7GpsMr2m7uPY5Ebk8HGm5afbmPLbafq9VASAwkGuDJ1/lLql/PlramMc7e2sbUf+fIxiudxZP6I2O09E0XDwFuqW8gNgRUg4P246x5bR9fBwsaf15zv5ZsUp+rQofMd4AHp8u5fd4+sT5OPE74ciWLU7PENyZWdnJDAgAMe/E3oRERERkceJzaaYrl9P5FToWYoVLsiE0UOoVL4MX06eccvlg/Lo+Xs4cvH758np64zBANWL+3I6PMFa7unqwOWoZMZ1LIOTgx0GAxgM6WXbjkXyas2cAFQp4k3pfB7WdstDwni9bh683RywMxro2iQ/S3eEZSomDxcHvt9wlrCoJOqW8mPAK0UzlPv4+LB96yaqVa1yn1cvIiIiImJ7WZq5uhMXF2f8fLypXqUCAM81qMuCRcuJio7Fx9vzLq3lbtq+2YEjR44B0KN7Vzp1fOu++jOZLXy+6Djr91/FYIDw6GQalPW3lhuNBgoEuuLqZHdT28j4FHzcs1mPA72drK+vxCSzZPslZqw9A4DZYsHHLdv/d3FLywbXYPiCY5TrtY6CgW5MfKccFQp63eMVioiIiIg8XDZLrgL8/UhMSsZisWD4Z4qD9KVccv8mfjWetNQ0AFzdXO+7vwVbLrB4+yW2jK6Ht5sDw+Yd5WJkYoY6Ttlu/bfzcHEg9nqa9fjitSTr60BvJ/q0KGxdXpgVhXO48UPvSpjMFmatP0v78bs4OLFBlvsREREREXkUbJb5BAb4k93fh9UbNmOxWFizYQs5ArPj6eFuqyH+07y9vPD398Pf3w8XZ+dMt3N3tufExTjSTBbiEtOITkgFICI2mXzZXfF2cyAiNoVlIWHEJ5ky1WelQl4s25m+1G/XyShOXIyzlr1YNYgfN50jKj4ViwWmrz1jncW6Uzzh0Uk8F7yVxBQTdkYD5QrcPGMVGRlJpWq12LZ9R6avX0RERETkYcnSzNW8hcvYuGWb9bhX/6EAjBryIb4+XrzTsS2Tp8/hlyWryJkjgJ5d2ts2WsmyJhUCmbzyNH5tl+Hh7MC4t0vzaq1ctKqdm/mbL1Cj3yZy+Doxqn0p2o0NYdrqUOuuf7fz8WvFeH1sCKV6rqV2CT8alg+wzlY2Kh/AobOx1Oq/ifjENMrk82RKj/J3jSfQy4k6pfyo1HsDdkYDbk72TO1ZIcO4JpOZiIhrpKSk2P5GiYiIiIjcpyxtxS5yKy+O2Eb7Z/PwUo2cjzoUEREREZFHRg9ESZat3B1OnQG/k2oyExaVxI7jkVQo6P2owxIREREReaQ0cyVZlmoy023SXjYejMDBzsB7zQvR7bkCjzosEREREZFHSsmViIiIiIiIDWhZoIiIiIiIiA0ouRIREREREbEBJVciIiIiIiI2oORKRERERETEBpRciYiIiIiI2ICSKxERERERERtQciUiIiIiImID9vfSKPTseQaNGMf0iZ/h5OgIwJ79h/h25twM9eLjE/hx6niMRuVw/yXlWgQTEZ1ArgBvti8Y+MDHO3oqjKZdv+R6YjLtW9RgTL9XrWXfzt/EzoNnmPHpWzYf9+1B39O/UxOK5Au0ed8iIiIi8uTJUnKVmprKwSPHmfvzUv7/t4crlC3F1Akjrcc7du3jz527lVj9B+1bEsyfe0/RZ/SChzJe8YJBhK4bzWfTVnEtOv6hjAnpSZ2IiIiIyD+ylFzN/WUpYeFX6NH5DT4ePva29VJTU5m/aBkf9up63wHK08NisTDmu9+Yt2IHFgtUKZOf8R+1xs0lffZz445jfPTFIq5Fx5MjuxdffdyGssVyA7DzYCjvj5xPbHwinu7OTBn6JqUK58zUuGlpJtr1m8aOA6HkDvRh3hddCPD1uGs8S9bvZcTk5ZjNFtxdnfh60OuUKZoLgBptRnHwxAUadPgCOzsjjWqWYMrQNx/AXRMRERGRJ0WWppXat3mZAb27kT9v7jvW2/THDgoVyEdQYPb7Ck6eLss3HWDBqhC2zBnAviWfkJySxtgZqwGIiIrnzf7T+W5Ee/5aPZIur9Whbb9p1hnSnsPn0OetRhxaNoxXGlVi0ITFmR537Z9H+LDTc/y1eiQ5A7z47uctd40HoNeIeSyb3Is9i4Yw4r0WrP7jkLXsz3kf4eftzrqZfQhdN1qJlYiIiIjYfkMLi8XC6vWbafhMLVt3LU+4lZsP0rppFdxdnTAYDLRvUYM1Ww8DsH7bEcqXyGOdjWrzfFW2zv0Ig8EAwO+z+9OyYXkAalQoSOiFiEyPW61sAeuMU80KhThzMeKu8QB4ujkz+9dthEfEULtSEfq93eT+b4KIiIiIPLXuaUOLOzl5+iwmk4kiBfPbumt5iK4nJlKz9rPW45nTp1CubJn76vPKtViqlL7xvvD1cuNqZBwA4RGx+Hq5WcuMRgOe7s7W41/X7WXaz5tJM5m5npSC2Zzxmb878fZ0tb62t7fD9HfbO8UDsGhiD0ZOWUHFl4dTMLc/X37chvLF82ThikVERETkv8TmydWBw0cpVaKorbuVh8zZyYk1q5ZZj729ve67z+y+HhmSl4ioOAJ8Pf4uc89QZjZbOHY6jGIFgrhwOYp3gmfz57yPKFEoB5tDTtBj2JwHGg9A4bzZmTmyAyazmdm/bqPjwO/Zu3jIfY8rIiIiIk8nmy8LPBV6joL59O3+k85gMODv72f9Z2+ftTzczs5AUnJKhnPN6pVh/sqdxCckYTZbmLloK82eSZ8Na1C9BHuPnuPgiQsA/LQqhNZ9pmA0GoiOvY6jowOF8mbHbLYwe+k24hOTbzGmkcTk1EzHeKd4Ll+Lpdk7X5GYnIqd0WjdWOPf3F0cOXwyDLPZwqUr0ZkeV0RERESeTln6h3N+2gAAIABJREFUxDxv4TI2btlmPe7VfygAo4Z8iK9P+sxGVHQMnp7uNgxRnkSF8wYAkKtePxzs7Ti8fBjP1y3DwRMXqNV2NBYL1KlchPfebAiAv487s0Z1pNOgWcTEJRLk78nib3oCULpITprWKU2NNqPw83JjSI/m7Nh/mk6DZvHdiPbWMauXK8iEH9axfNMByhTNxa9/t7+dO8UT4OtBnUpFqN7qU4xGI24ujkwObpeh/fvtG/LuiLm8EzybkgVzsGHWBza7fyIiIiLy5DFY/v8Hq0RERERERCTL9Au/IiIiIiIiNqDkSkRERERExAaUXImIiIiIiNiAkisREREREREbUHIlIiIiIiJiA0quREREREREbEDJlYiIiIiIiA0ouRIREREREbEBJVciIiIiIiI2oORKRERERETEBuzvpVHo2fMMGjGO6RM/w8nR0Xp+x659/LJ0FWlpafh4e9HpzVYEBWS3WbCSdSV7rOVabAq5/JzZNf7ZTLcLenMFf3xWj4JBrg9tTBERERGRJ1mWZq5SU1PZs/8Q30ybjcViyVAWFR3DtFnz6fduF8aPHEzl8mWYMmOuTYOVrDv8TUMWDqz21I8pIiIiIvKoZSm5mvvLUtZs2EKPzm/cVBZ++Sre3p5k9/cFoGSxwoRfuWqbKOWBmLnuLCW6r6Vw19W0/HQbsdfTMpQvCwmjVM+15H17FVNXh1rPxyWm0fGr3ZTovpayvdYxaeXpTI8ZPPcIJXuspVTPtbQcuY3ohNSMYy5fSb5CxUlOTr6/ixMREREReciytCywfZuXb1uWL08uEhKuc/rMOQrky8OufQcpU7LYfQcoD8bV2GR6Td3HscmNyOHjTMtPtzHlt9P0e6mItc7BMzEc+LoBJy7GU7XvRlpUy0F2T0eGzz9KSqqZQ980ICo+ler9NlK1iDcVC3nfccxDZ2NZvP0S+79qgL2dgYkrTvHnsWs0rRhorePk7ERgQAAGg+GBXbuIiIiIyINwT89c3YqzsxNvtGrJJyPH4+zijFO2bAz+sJetuhcb8/dw5OL3z+Phkv4WqF7cl9PhCRnqvPlsXowGA8VyuVMyjwe7TkbRtGIgy0PCmfZuBYwGA77u2WhdOzdLd4TdNbnycLHn0rUklu64RKMKAfR8vuBNdRrWf5aG9fWcloiIiIg8eWyWXF24FM68X5YydsTHBGT3Y3vIXj6b8C1jhg3AaNSmhI8bk9nC54uOs37/VQwGCI9OpkFZ/wx1ArxubFbi7eZAVFwKAFdjkmk7LgR7Y/rsUmqamRbVctx1zDz+Lsz5oDITfj1Jp6/38GxZf6b0qICvezYbXpmIiIiIyKNhs+Tq8NETFCyQl4DsfgBUq1yeSdNnExUdi6+Pl62GERtZsOUCi7dfYsvoeni7OTBs3lEuRiZmqPPv56Gi4lPx+TsJCvB2ZEavSlQpcueZqltpVD6ARuUDiE9K44MZB/lkzhEmvlPu/i5GREREROQxYLMppdy5cvDXqTPExsUBcODwMZydnPD28rDVEHKP7IwGElNMGc5FxCaTL7sr3m4ORMSmsCwkjPikjHXmbz4PwMmweI5eiKVKER8AWlTNwaSVpzBbLCSnmvlw5kF2noi665irdofT+7sDALg52VM0p9tNsa5dt55K1WqRkpJyfxctIiIiIvKQZWnmat7CZWzcss163Kv/UABGDfmQEkUL0bRhPYJHf4nFbMHV1YU+PTppSeBjoHCO9CQm8I0VONgbOP5tY1rVzs38zReo0W8TOXydGNW+FO3GhjBtdSidG+fHZLaQL8CVCu+vJzohlS/eLmtdvvfRq8Xo/d1+SnRfS2KyiRbVclCugOddx6xbyp95my9Qovta7O0M5MvuwtR3K2Rol5SUTETEtZu2+hcRERERedwZLPoUKyIiIiIict80rSQiIiIiImIDSq5ERERERERsQMmViIiIiIiIDSi5EhERERERsQElVyIiIiIiIjag5EpERERERMQGlFyJiIiIiIjYgJIrERERERERG1ByJSIiIiIiYgNKrkRERERERGzgnpKr0LPnadv5fZKSkzOc37X3IH0HfUqndwcw5sspxMcn2CRIeXTW779C7g4rM11/0srTtB+/6wFGZFvlWgSTq14/qrUa+ahDEREREZEnXJaSq9TUVPbsP8Q302ZjsVgylF2LjGbyjB/p/nY7pnw5Enc3V378aYlNg5WHr3JhH5YOrvGow7Cpf7939y0J5qfx7zzCaERERETkaZGl5GruL0tZs2ELPTq/cVPZsb9OUbhAPgrmz4ud0UjLZo0J2XvAZoHKwzXip2Pk7rCSYt1W03z4nxnKYq+n0eHL3RTvvoZSPdfy2cITGcqT08y8PGo7eTuuotGQP7gSk3GGc+DgYFq83CrTsUz9aTMNO47LcO6Dz36ix7A5AERExdO8+9eUemEIpV/4hF9W77bWSzOZ8a/+PifOhFP3jTEE1urDO8GzMzXuyt8PUuW1EZR9MZgmncZz8twVa9nWPScp13Io5VoEM/77tZRsNpi/zlwGIP56Mm36TqVcy6GUfTGYQV8uvunLCBERERF5+mQpuWrf5mUG9O5G/ry5byozGMD8rw+Qjo7ZSExMIk5LA59Ig14rxvmZTdk4ss5NZUPnHcFisXDkm0ZsHVOPWevPsm7/jcRj9Z5wgtsU5+yM5wjyduKzX45naO/p6YGfr2+mY3mlcUV2Hz7LxcvRAJjMZhau3UPbF6oBMHrqSvLn9OPQsmHMHNWBHsN+xGQ2A2BvZyRHdi+6DPmBcf1fI/yPL5j8yc1fDvy/8IgY3h70PbNGvc3+X4N5qVFFug75wVr+7oi5fPzO8+xbEozRaODSlRiMdun/nWYv3Yaftxv7Fn/CnsVDiE9I5lxYZKavV0RERESeTDbb0KJY4UKcPH2G43+dJiUllWWr1mM0GklNTbXVEPKYWB4STpcm+TEYwNPFgZdr5GD1nsvW8ooFvSmdzxOA1nVy8eexjIlF/w/68N3USZkez8fTlQbVS7BwTfqzXJt2HMfN2ZEa5QsCMPqDVxj9wSsAVCqVj5RUE1euxVnbe7o706hmSSqVygeA0Wi465gbdxyjYsm8FC8YBED7FjXYcSCUuIQkYuISOXn2Ci0bVACg82t1SDOZrG293V3YceA0W/ecxGKBCQNbkzdH5pNJEREREXky2duqIx9vT7p1bMvUWfMwm8w0b9oAi8WCi4uzrYaQx8SVmCSyezpaj309HNl7Ktp6nN3rRpm3WzYi41Lue8w2zaryxcw19HqjAQtWhdC2eVVr2b6j5xg+eTlRMQkYjQbSTCbM5huzqEajgdJFcmVpvCvX4vD3cbceO2azx9XFkSuRcRgNBtxcHbH/e6bKxSkb7q5O1rqtn69CVNx1Phz7M2cuXuOtljUZ3qtFppI6EREREXly2Sy5AqhYrjSVK5QF4FToWbL7+eLk6HiXVvKkye7pxJWYZAoFuQEQEZNMoPeN5CIm4cZsZVR8Cr7u2e57zKZ1StNj2I8cOx3Gso372b5goLWsw0cz6fVmfTq/WofklDQCava+qb2To0OWxsvu687VyBuzX0kpqSRcTybA14PklFQSk1Ixmc3YGY3EX08mJi4xQ/turevRrXU9Ll6Opk3fKSxau4dXGlfM4lWLiIiIyJPEZssCY+Pi6N53MFeuXiMpOZmfFq+gXq1qtupeHiPNqwYx9bdQACLjU/h560VeqBJkLd9+PJKzV64D8PPWi9Qp5Zeh/egxY+nQqWuWxnTMZk/LBhX45OtfKVc8d4ZldhHR8ZQtlv4c4PeLt2I0GkhITMp033Z2BpKSM86u1a9WnN2Hz3LsdBgA03/5gzqVi+Dm4oivlxtB/p6s+eMwALOW/Ek2hxvfU4yaupI5y7YDEOTvSZC/Z5auVURERESeTFmauZq3cBkbt2yzHvfqPxSAUUM+xNfHi5ebP8fQz74kJSWV6lXK0+y5+raNVh4LQ1oXp+e3+yjefQ32RiPvvlCQWiXSkx2T2ULTSoG8P20/h87FUjDQlTFvlc7QPjYunqio6Ft1fUdtmlWl8dtfMHXYmxnOD+7ejLcHfk+AnwdvtazJi/XL81rvKWxfMBCnbHefsSqcNwCAXPX64WBvx+Hlw8ju68H0EW/xRv/ppKSkkTenL98G39gIY8LA1vQZvYDgiUvp8FJNvDxcMPy96u/VJpXoFjybsTPWYMFC/WrFadmwfJavV0RERESeLAaL9oiWOzhwJoaXR23nrymNH3UojzX/6u9zbNUIfL3cHnUoIiIiIvKI2GxZoDw94hLTiIpPJc1kYdb6s1Qs5P2oQ3rsDP1mKX0/+wmANVsPE+DnocRKRERE5D9OM1dykz+OXKP1mB0kppioWMib6e9WILe/y6MO67FyITyKjh/P5OLlKFxdHBk/oDU1KxR61GGJiIiIyCOk5EpERERERMQGtCxQRERERETEBpRciYiIiIiI2ICSKxERERERERtQciUiIiIiImIDSq5ERERERERsQMmViIiIiIiIDSi5EhERERERsYEsJ1dLVqyhe9/BdH1/IBOn/kBScrK17MDhY/QeOJyOPT9k5LhviI6JtWmw8vSr3m/TLc8HvbmCU2EJDzeYLKj35hi27P7roY0XERVPsecGEROXCMDMRVvJ32AA3lV6sWzj/gcy5pqth2nSeUKGc2kmM891mXCbFrd29FQY+RsMIKBmbz78/GdbhigiIiLySGUpudp38Agbt2xn5JB+fD1mKIlJSSxduQ6AxMQkJk77gbffaMW0r0aTP18eZs7RByfJvNjraVyMSHzUYWTZ0g378HJ3oXbFwjbv+3a/8f3ZtFV0ea0Onu7OAHR4qSah60ZTo3xBm8fwTxzBE5cyrNeL1nMTZq1lybq9WCzwxcw1bNxxLFN9FS8YROi60fR5q9EDiVVERETkUclScuXq4kLHdq/i5elBtmwOVChbkothlwE4dPQ4+XLnpFTxItgZjbzYtAH7DhwhJSX1gQQuj6evl5/i9bE7aTcuhGcGbqbh4C1cjk6f3TRbLLw3dT9F3llNoS6r+WjWIWu7s1euU6zbaq7EJJO7w0pyd1jJ9LVnMvT9255wyvZaR+4OK/lmxSmbxTxwcDAtXm51T21NZjNDv1nG0HfTk45jp8Pwq/Ye8ddvzOj+un4fZZp/AoDZbKHP6AWUbDaY4k0H8fGExdZ6aSYz/tXf58SZcOq+MYbAWn14J3j2TWOevXSNFb8foNvrz2QqxriEJDoNmkWZ5p9QruVQxs5YbS1LTTPxTvBsij03iMZvf8HoaSt5a8CMm/r4+bdd5AnyoUrp/NZzzeuXY9u+U+zYf5oc2b2oUCJvpuK5E4vFwmfTVlGuRTBlXwym8+BZ1nuZ2VhFREREHhX7rFQuXDBfhuM9+w9TvGghAMIvXyUwILu1zMXZGVdXF65eiyRnUMD9RypPBDujgVW7wzk0sSE5fZ35YMZBPvvlOF90KsPSHWH8cfQah79pSGKymZI91tCyek6qFPEmb3YXNo6sQ4NBWzg/s+kt+94fGsOeCfU5diGO6h9solOj/Dg63P9jg56eHvj5+t5T2x+Xbqd04ZyULZYbgGIFgihaIJAVm/bTqmkVAH5aFULbF6oBsGzjfrbuOcm+JcEkJadS5sVgWtQvT+XS+bC3M5IjuxddhvzAuP6vUalUPszmm2euhk1aRt8OjXB2dMhUjMMnLcOChf2/BhOXkETttp9RoUQenq1WnKUb9rHv6Hn2/foJCdeTebb9WCqWypehfWqaiU+/XcGC8V0znM+Z3ZuDJy4wqs9L/HX2Cq3/nkW7H8s3HWDBqhC2zBmAm4sj7QfMYOyM1QT3bJ6pWEVEREQepXv+ZLp4+Woio6Jp/GxtAJJTUsnmYM+2nXt4vdN7pKam4uBgn+GZLPlvqFrEh5y+6R+0G1cI4M9j1wB4sWoOfh9VBwc7Ix4u9pTJ58np8PhM99u5cX7sjAZK5vHA1cmOsMgkm8Tb/4M+fDd1UpbbJaWkMua7VQzu8UKG862bVuXn1buB9FmjNVsP06ZZVQCaP1uW9d9/gIO9He6uTpQukpPQC1etbT3dnWlUsySV/k4ajEZDhr4P/XWR3YfP0r5lzUzHuXLzQTq9UhuDwYCHmzMtGpRnzdbDAOzYf5pm9crglM0BXy83mtcvd1P76b9soVq5AhQrEJThfJrJzMddn6drq7pUKJkn0/HcLdbWTavg7uqEwWCgfYsaWYpVRERE5FHK0szVPxYu/Y2du/cxsG8PHBzSvz13dMxGZHQ0gQHZafRMbYx2dly/noSTo6NNA5bHn497NutrDxd7ouLTl4ZeiUmm//cHOX4xHjsjnLgYT9t6mf9Q7uN2o197OwOmW8zqPEzfzttEg+olKJjbP8P5156rxNCJvxIde53lmw5QuUx+8gT5AHA1Mo6Pxi/iROhl7OwMnDhzmdefr2ptazQaKF0k123HHPLVrwx6pxn2dpn/XuTKtVj8fdytx75ebuw7dh6AyJjr5M3pZy0L9PPk4uVo63H89WQmzFrH2pl9burX1TkbdasUBeD5umUyHc/dYv330kNfLzeuRsZlKlYRERGRRy3LydWvK9ay/9ARhvTvhauLi/V8jsDs7N53iPx5c5E/7ytEx8SSmpZKdv97W24lT67o+BvP2V2LS7EmW0PmHMZktvDHZ3WxMxqoP2jLowrxvsXEJTJp3kY2/9j/prIAXw9qVizM0g37+GXNbtr9vSQQIHjiUswmM5tm98POaKTx21/c1N7pNsv9/thzkvCIGF5uVCFLsWb39eBqZByF8qQv242IiifA1wMADzcn4hJubCJy8XJUhrZf/7ieF+uXI3egT5bGvFf/xPqPiKi4TMcqIiIi8qhlaVngsROnWL1hMx/26pohsQIoWbwI4ZevsP/QUdLSTCxZvobK5cvgYH9Pk2PyBNt+PJLT4enbpv/8x0VqFk9PsCNiUyidzxM7o4GQv6I4fDaW+KQ0azt3J3uuxaUQFpVESpqZKzEPZ0np6DFj6dCp690r/su4mWto3bQqgX6etyx//fkqLFm/j92Hz/Ji/fLW89ei4ylVJCd2RiO7Dp3h8Kkw4hMzd51DvlzCsHdfxGAw3LaOnZ2RxOSMm8g0q1eG735JT2SjYhJYtHY3zeqlzzRVLJmX37YcIs1kJjImwboE759YZyz8g35vN8lUfP8vIiqe/A0GsDnkRJZinb9yJ/EJSZjNFmYu2kqzZ+4eq4iIiMjjIEuZz4bNf5KQcJ0+gz61ngvw82X4oL44OTrybtf2TJ/9E1HRMRQvUojub7ezecDy+Hu2rD99Zxzg4JlY8ge48NlbpQDo/WJhukzcw/KdYVQp4kPw68UZMf8Y5Qt4UbmwNzl8nXnjmTyU7L4WB3sDb9XPZ237IMXGxRMVlfnlZeERMcxdvp3dC4fcts4Lz5aj16fzaNGgPK7ON5Yz9nqjAd2H/siKTQepXDofQ7q/wMhvV1CuWG7rc1a3smzjfrI52NGgRok7xtagegneHT6H/mN/octrdfioS1MGvdOMXiPnU6b5J9jZ2dH99WeoWSF9I5qXG1dk1eaDlGn+CYXzBdCifnlCL0YA6du9d3ipJn7ebpm+N/9mMpu5ci2W5NS0W5ZXL1eQCT+sY/mmA5Qpmotfv+nJ83XLcPDEBWq1HY3FAnUqF+G9NxveNVYRERGRx4HBcrsf0hG5B5NWnmbniUi+f7/Sow5F7sGEWWs5FxbJFwPubWv6h+lJilVERET+G7RmTzJIM1no8e3e25Z7u2UjKj7llmUtq+cE4GGm658tPHHbHQcDvJy4HH3rHQVL5vGg1wuFHmRoT4SIqHhqvj6KtTP6EuTvyfJNB+j4cq1HHdYtPUmxioiIyH+TZq7EpiatPM2O45HM6q2ZqyfFxDkbmDR3IwYD1KtSjC8/bpOl3QgfpicpVhEREfnvUXIlIiIiIiJiA/rKV0RERERExAaUXImIiIiIiNiAkisREREREREbUHIlIiIiIiJiA0quREREREREbEDJlYiIiIiIiA0ouRIREREREbEB+6w2WLJiDWs2bMFkMlG6RDE6tW+Fk6OjtTwpOZm+H39KpzdbUb5MSZsGKyIiIiIi8rjK0szVvoNH2LhlOyOH9OPrMUNJTEpi6cp1AJjNZkLPnmfUF5NISk5+IMGKiIiIiIg8rrKUXLm6uNCx3at4eXqQLZsDFcqW5GLYZQC279rLdz8soEn9uuTLk+uBBCsiIiIiIvK4ytKywMIF82U43rP/MMWLFgKgRpWK1KhSEYB1v2+1TXQiIiIiIiJPiHve0GLx8tVERkXT+NnatoxHRERERETkiXRPydXCpb+xPWQvA3p3w8HBwdYxiYiIiIiIPHGyvFvgryvWsv/QEYb074Wri8uDiElEREREROSJk6WZq2MnTrF6w2Y+7NVViZWIiIiIiMi/GCwWiyWzlSd9N5sdu/bh6HTjd60C/HwZPqgve/Yf4tuZcwFIvJ5INsds2NnZ0eH1V6hepYLtIxcREREREXmMZCm5EhERERERkVu7590CRURERERE5AYlVyIiIiIiIjag5EpERERERMQGlFyJiIiIiIjYgJIrERERERERG1ByJSIiIiIiYgNKrkRERERERGxAyZWIiIiIiIgNKLkSERERERGxASVXIiIiIiIiNpDl5GrJijV07zuYru8PZOLUH0hKTraW7T1wmL6DPqVTrwEM++wrLoZdtmmwT4tP5hyh7biQTNdvNWYHM9aeeXABPSU+/Pxnug/98VGHcV9OX7hK+wHT77l9tVYjmb9ipw0jEhEREZHMss9K5X0Hj7Bxy3ZGDumHi7MzX347k6Ur1/Fay+eJi09g4rQf+LBXV4oUys/SleuYNms+wQPee1CxP7G6NMlPUor5UYfx1OnZrj4m05N9X4+eCruv9tNHvEWgv4eNormZxWLBYDA8sP5FREREnmRZSq5cXVzo2O5VvDzTP7xVKFuSA4ePA5CamkrbV1tQtHABAKpULMuKNRtsHO6TrdmwP9kfGk1iionGFQKZ07eytez4xTh6TN7HpcgknLIZGflmKZpUCLCWnwpPoHq/TVyMSKRZlUC+7loOO+OdP+R+vfwUB8/EkJxqJvRyAmkmCws/qkaQjxMAM9ed5fNFJ0g1mSmVx4NZvSvj4WLPtNWhbDoUQWh4AmXye+Job2TFrnB+6l+VCgW9iEtM471p+9l+LBIHewNdmxSge9MCGcYeODiYI0eOsmThgkzdm4MnLtB58A80rVuaP/ecJDwihq8+fp06lYsAsHXPSXoMnwMWC+1b1OS7XzazZGJPCucLYO2fR+gy5AeuJ6XwcsMKTPqknbXfb+Zu5NBfF0lOSePMhQjSTCYWjH+HIH9PRkxezqnzV5k5sgMAI6es4EToZb4f3fGu8YZeiKDXp/M4HhqGs2M2Pu7WjNeaVAIgLiGJ3qMWsPPAaYx2Rtq9UI0POja+azw/rQqh16fzSE01kb/BAABWTnmP4gWDAJi15E++mLmG1DQTJQrlYObIDri7pv8th09azoxFfxATd51JQ9rR+vkq1lhb95lChRJ52b7/NBcuR1K8QBAzR3bE+Pf75/PpvzFn+Q4A6lYqwph+r+KY7X/s3Xd0VFXbxuHfpJDeSEJCD733jjQRULGBioKACGIBBCkiiEiRKoKoKAgiqCBgpfcqfPQaeu8lQEjvycz+/ogO5qUlMGK7r7VYK+fs9pwzZ2Ae9p4dFzKsNvLW683G2f155b1vOXIqgqceqszkoS9m6zUVERER+c8x92DMJ5PNwmWrb1q2cOkqM+aTyffS/b/W5GUnzQtjt9mPbTZjqvdabaauOGWMMWbvqRgT3HahuRafaowx5rkPtpgqb64y0QlpJj453ZTtusLM33LxjuN8vviECXphoTl7JdEYY8xrn+8yQ2YdNMYYcyU2xXi3mmfORyYZm82Yp4ZtMmN+PmKMMearFadM1Z6rTXqGzfi3nm+W7YowI344bAbNPGCMMabvtL2m7dhtxmqzmci4VFPitWVmx7GoLGOP/nCcefmVLtm+JweOXTA+VbuZ+at3G2OMmbN4q2naaZy9vErLoeaHZduNMcZ8/M1K41+juzl+9kqWPibMXG26DJmR5dyk2WtNaL3e5uyla8YYY7oOnWne/3yhMcaYtPQMU7fNSLNswz5z+OQlU6b5QBMVk5CteBu0+8BM/XG9McaYI6cumeA6b5pT5yONMcb0HfOD6fTudGOz2UxsfJKp+ORgs3rzwTvGY4wxX/643rzYb+oN412NijcBNbub8xHRxmazmae7f27GTVt+Q73nek4ysxdtzXLuhT5TzIMvfmhSUtNNeobVVG4x1KzbetgYY8zidXtNpRZDTHRsosmwWk3r3pPNx9+stLet+ORg07D9B2b7vlPGGGOsVlu27o+IiIjIf9Fdb2gxd9FyoqJjeLhx/RvK9h86yqLla2j3XIt7Svz+Ky5cS+bI+QQ6NC4MQIUwP0oX8GHTwWv2Oi1r58PfyxVvdxeerJmXTYev3aq7LOqVC6RgsCcAlYr4ceZqEgDBvm5c+Pox8gd6YLFAnTKBnIxItLcrX8gXF2cLvp6ulC3gQ4i/G1EJaQAs2h5Bl+ZFcbJYCPTJRev6BVmwNetytn5v9WbqlIk5ug8eHrl4snFlACqWKsjZi1EAxMYnc/zMFVo2qQrAK881IMNqzXa/9aoVp2Bo7t/6LcDZS5n3ztXFmanDXuLtD3/i9cEz+HhAawL8vO7Y38UrMRw4doGXnn4AgJJhoRxbPopCeTPHWLJ+H52frY/FYsHX24MWTaqwYuOBO8ZzO0EB3pxZM4b8If5YLBbqVC7GyfNXs30PWjSpglsuF1ycnShXPC9nL0X9Fute2jSvib+vJ85OTrzSqj4L14bb2/n5eNDsgXJULx8GYJ/tEhEREZEb5WhZ4O9+XrDOzRP8AAAgAElEQVSMbTv3MKBPN1xdXbOU7dl3kClfz6Z3t5fJG5rHIUH+3Yz/ZALfzpgFQK1aNfji80/vqb/LMSkE+Lji4nz9g2ugby6uxF7fLCSPv7v9Z3/vXJy4lJCtvn09rr8+zk4WrFYDgNVm+PCXI6wOv4rFAhExqTSpFGyv654rM++2WCy4ujphAWyZTbkam0rbcdtx+e2DdnqGjRa18+Xsom8Wq9f1a3R2tmC1ZX5/Kio2EW8vN1ycM2PydM9lXw6XHT5eHn/o1wnr7xcClCmWl1JFQjl65jJN65bNVn8RkbH2ZOR3fj7Xx7hyLY7g3D7240B/b/YcPpeteG7FarMxdtpy1m49jMVi4XJkHI1rl85WvAC+3n+8t072e3s1Kp75q/fw9dyNANiMIcD3eoLp5GShQskC2R5HRERE5L8sx8nV/MUrCd9/kEH9euDl6Zml7ODhY0z99nv69XydwgXzOyzIv5tXO3ei3QttAMiVK9c99xfi7050fDoZVmNPsCJj0wgJuP6BOCYx/frPCWkE+tzbuN9vOM/cLRfZMLoRAd6uvD/7EBeikrMXb4Ab03pUp2bJgHuKIbt8vd1JTknHarPh7OREQlIqsfHZi/VO1m07wvnL0ZQuEsoX3/9Kl9aN7tgmT25fomOT7PFA5i5/eQJ88PZyJ0+gL1ej4ileKPM/FyKjEwgJvLdNJn5cuoP5a/aw7pu++Pt6MnzSIi5eibmnPgFCgvzo1aEpvTs2u2UddzfXW5aJiIiIyHU5WhZ4+OgJlq9Zz9s9XrshsUpITGLClG/o1rn9vzqxAvDy8iI4OIjg4CD8/O59Z7YCQR6UKejDt2vOALD7ZAwnIhKoXzbIXmf+loskp1lJTrOyaHsE9csH3aq7bImMSyUsjxcB3q5ExqWxcPslElKyt9SuRa18TFxyApsxpKbbeHv6PrYdjc5SZ/SYsXTs/No9xfi7QH9v8gb7seL/MpfWfTNvE7lc72rSNYv4xBS6D5vFpMHt+PTdNoz/egXHzly5Y7sCoQGZG0r8kjnbc+zMFeq2HsW12MxllY83qsjUnzYAEB2byC8rd/J4o4rZisnH042jpy+TYbWRkJhiTyIjYxIonC8Qf19PrsUksPjXvSQmp96htzt78sFKfLdoKzFxSRhjmP7LRvssloiIiIjkTI4+oa5Zv4nExCR6DxxhPxcSFMiwgX3YsWsvcfEJjJ80LUubMUP723cXlFub0bsGr0/cxdi5x/D2cGF231r4ema+PFab4aFKwTR9bwMXrqXweI3QLDsJ3o3n6xdkzvrz1O27jnyB7ozqUJ52Y7fz5fJTd9yF8J1Wpek1NZyyXVeSnGqlRe18VC7ql6VOXHwC0dH3PrPyu48HtKb36O8Z8tkCOj79AP6+nvy+I3jN54ZzNSqBpJQ0rBlWlm7YT/FCwayc1ue2fb499ieefaQalUoXBOD97i145b2vWf31W1mW/N3M16M70WP4LMZ+tRy3XC58PaoThfMFAjDw9cfpMXIOFZ8cjLOzM11feJAHqhbP1nU+XK88k79fT956vfHxcmdM31Y8+3A1nnukOj8s3U6Ddh+QL48/I3q25MX+0/jqpw00qlWaJh3HARAbn8T6Hcd4Z/wvtH2iFsPfbHnb8ZrULcuLxy/S6MUxxCemUqFk/iy7LYqIiIhI9lmMMXf+woc41IRFJwg/FcPU7tX+6lD+sYLr9OTw0uEE+nv/1aGIiIiIiAB3uaGF5FxkXBpe7s6kZdj4eeMFnm9w75sEzNtykaU7I25aVq6QLz2eyN5syT/B0M8XEJeQwrh+z7Fi4wFCgnz/tMTq0IlLTJi5+qZlri7OfPJumz9lXBERERH5Z9PM1X3y8YLjjPj+ME5O8GStfHz+emVyudz1Tvj/Oecjoun07nQuXI7Gy9ON8f1bZ3upnYiIiIjI/aDkSkRERERExAE0dSIiIiIiIuIASq5EREREREQcQMmViIiIiIiIAyi5EhERERERcQAlVyIiIiIiIg6g5EpERERERMQBlFyJiIiIiIg4QI6Tq3mLV9C1z3u81nMAn035lpTUVHvZzj376PPuCDr36M+Q0Z9w/mKEQ4P9t3vp4x0cuRCf43YnIxJpO277LcsXbL1E6S4r7iW0++anjRco+fpyfJ6bT2j7xRw+n/V+VO+1hlm/nvuLohMRERERubUcJVd79h1k7YYtjBzUlwljhpKcksKCJasAiI6J5Ytps+j6Snu+/GQUlSuUYcrXs/6UoP+tDp7LeWIFcPBs3G3L65cL4vu3a91V3/fbkNkHee/5MsT/8BQRMx6jdAGfLOVf96xOsyohf1F0IiIiIiK3ZjHGmOxWPnbiNEnJyVQqXwaA1b9uZO+BI/Tq2omrkdc4cvwU9WpXB+DMuQuMGPc5Uz4e+edE/g80d/NFhs45hM1m8PFwYWKXKlQq4gdAzT5r2Xsqltw+rjg7WXi4aghTu1cD4GpcKi+N38HxS4lYLDCsbVla1SsAwJz153hj8h7S0g1+Xi4ALB9aj7KFfIlLyqBctxVkWA1+Xq4cntQsSzyrw6/Q7+v9RMankT+3O5+/XpnKRf3veB2JKVbemraXlXuuYLUZXmhYkOHtymGxgDEw6qcjfLfuLMZA7dK5+fTVSni7uzBh0Qn2nY4lNd3GqcuJZFgNP79Tm7y53flq5WmGzDrI1dg0+z0AOD7lEdxcnRg6+xBTV5wiJjGdyd2q8kLDgvZ4LkWl0O6j7ZyLTKJ2qUAsQL2ygbzycBEAhsw6yI8bL2CxQIl83kx/szr+Xq729gPeG8LBg4eY9/P3d/nKioiIiIiAS04qlygWluV4V/gBypQqDkBwUCDBQYEAJCQksnDpampVq+yYKP8lun2xm53jHyJvbnd+3R/J0p0R9uRq27gHKdhxCauG16dU/qyzNSN/OEKREC8WD36A7ceieXjQ//F03fw4O1lo3aAgcckZ/Lo/ku/61MjSztfThXPTmxN+Kpbnx2zNUnY1LpV247az4v16VAjzY8baszw/ZhuHJzXDYrn9dQz//hDJaVaOfNGMpFQrDd/5lTIFfGj3YCEWbrvEnPXn2Pzhg/h4uNB23DbG/HyU99uWxdnJwtzNF9n1cWMKBnvy+sTdTFl+isFtyvBy0zBebhp2y3swuE0ZBrcpwzOjttwQz8gfD1O6gA+rh9dn29Fomr63gYblgwDYfyaOuVsuEv5pE1ycLXy2+ASbDl+jebVQe3s/P1+CAgNvf9EiIiIiIneQo+Tqj+YuWk5UdAwPN66f5fzPC5bx84KlFC8axts9Xr3nAP9NfD1d+XrNGV56qDANywfZE4A7+bBjBdKtNgBqlAggLcPGlZhU8uZ2v+tYVu25QtVi/lQIy0zu2jYqyBM1894xsQKYt/Ui09+sjrOTBR8PF34d1RD3XJkrTBdtv0SbhgXx9cx8tDo2CePdGQd4v21ZAOqVC6RgsCcAlYr4sf1Y9F1fw+82H45ibKcKANQsGUCFMF97ma+nCxevpbBg60WaVQ3hjceK3dC+31u97zkGEREREZG72i3w5wXL2LJ9N/17dcHV1TVL2TNPPsLUT0dTo0oF3h/zKVabzSGB/hssfK8uh87FU7nHKur2XceuEzHZarf7ZAytRm+lbt911Ou3jgyrwZb91Zw3dSkqhUBfN/uxk8WSZanc7UREpxDkm8t+7OPhgqtz5qN0JSaVPH7X+w3yzcWV2Oubnvh6XB/D2cmC1Xpv1wEQlZBGbp/r8YQGXE86CwV78t1bNZi64jSFOi7l2dFbuBafds9jioiIiIj8rxwnV/MXryR8/0EG9euBn+/1pVsnT59l87ZdAHh6evDEo02IjIomMjLKcdH+w5XI5823vapz8ZvH6NwsjA7jd2SrXfuPtvNEzbxs+rARq4c3sH8f6V6E+Ltx9Q9Jj80YDpyNy1bSlsfPPUvCFBGTQkRMSmaZv1uWsquxqYT6u93QhyP5eroSl5RhP75wLSVLebMqISwZ8gBnpz9KkK8bg787+KfGIyIiIiL/TTlKrg4fPcHyNet5u8dreHl63lA+fdZP9u3Xt+0Mx8nJidy577xBwn9BREwKjw7ZSHKaFWcny003jvD2cOHAmcwE5+K1ZPv5a3FpVC6auXxv2qrTODlBQsr1ZMLHw4WjF+LJsBrikzOISUy/YzxNq4Sw60Q0e0/HAjBn/XmeHb0Fp2ysC2xZJx9fLD2FzRgSUjJ4fOgm1oRfBeDJmnmZ/es54pMzsBnDVytP80TNvHfs815UL+7Pwm2XANhxPJqjf9jOfunOCHpN3QuAt7sLpfJ739B+9JixdOz82p8ao4iIiIj8++XoO1dr1m8iMTGJ3gNH2M+FBAUybGAfioYV4oVnn2TshCkkJCYRHJibnl064epy11/r+lcJ9XenQfkgqvdag7OTBW93F6a8UTVLnT4tStJ10h5e+WwX5Qr5sn50QwAGv1CGDuN3EOrvTqemYbSsk59nRm1hx/jGuLs680jVUCYtOUlQ24X4ergy7uUKtKpXgG5f7GHB1otkWA0xiekU7LgEgF2fPEQePzdm9K5Bx092EpOYTr4Adxa990C2rmXg86XpPXUvpV5fgdVmePXhIvbd+x6vmZfw07HUfmstxkCjCkH0blHinu7diUuJNBrwKwAxiems3x9Jv6/30f7BQox8sTzvPleaF8Zup/wbK6lfNoimVUKw/JYkNiwfzOz15ynbdSUuzhbC8ngypXvW+x4Xn0B0dPaWaIqIiIiI3EqOtmIX+Sd4avhmOjQuxNN18//VoYiIiIjIf4imlSSLDKuh2xe7b1ne/9lSFAnxuo8R3dmSnRGM/vEIq0fUJzIuja1HovjklUp/dVgiIiIi8h+jmSv5x0u32ugycTdr90Xi6mzhzSeL0+XRon91WCIiIiLyH6PkSkRERERExAHu6vdciYiIiIiISFZKrkRERERERBxAyZWIiIiIiIgDKLkSERERERFxACVXIiIiIiIiDqDkSkRERERExAGUXImIiIiIiDhAjpOreYtX0LXPe7zWcwCfTfmWlNTUG+ocOXaStq/05Mixkw4JUu7eyYhE2o7b/leHYfd3i0dERERExFFylFzt2XeQtRu2MHJQXyaMGUpySgoLlqzKUsdqs/Hdj/Pw8/VxaKBydw6ejXNIP476VdOOikdERERE5O/GJSeVvTw96dSuFf5+vgBUrVSOvQeOZKmzdMVaalarzMYtOxwXpdyVOevP8cbkPaSlGwp2XALA8qH1KFso8/WbvuoMH/5ylHSrjfKFfPmmVw18PTMfiWHfH8bYDLlcnfh88Qmi4tM5OLEphfN4cikqhXYfbedcZBK1SwViAeqVDeSVh4sAMPqnI8xcdxaARuWDGfdyRdxcne4Yz9zNFxk65xA2m8HHw4WJXapQqYif/XquXo2kRp36fDNtCg0b1L8v91BEREREJLtylFyVKBaW5XhX+AHKlCpuP74WFcOO3ft4r18PJVd/A60bFCQuOYNf90fyXZ8aWcquxqXSY8oeDk9qRr7cHrQcsZnJy07S9+mSAJTI68XQOYdoWD6YY1Mexs3F2d525I+HKV3Ah9XD67PtaDRN39tAw/JBACzeHsHMdWfZMLoRvp4utP5wG58vPkHvFiVuGw9Aty92s3P8Q+TN7c6v+yNZujMiS3Ll7OxEaEgIbm5uf8btEhERERG5J3e9ocXcRcuJio7h4cbXZxC+nfML7Z5vgbOT9sn4uwv2dePC14+RP9ADiwXqlAnkZESivdzPy5XL0amM61QRd1dnLBawWDLLNh+OotUD+QGoWTKACmG+9naLtl/ihYaFCPB2xdnJwmuPFGHB1kvZisnX05Wv15zhUnQKDcsH0f/ZUlnKc+fOzZaN66hdq+Y9Xr2IiIiIiOPlaObqdz8vWMa2nXsY0Kcbrq6uAOzeewA/Xx+KFw1zZHzym7YvduTgwcMAdOv6Gp07vXRP/Vlthg9/OcLq8KtYLBARk0qTSsH2cicnC0VDvfByd76hbVRCGrl9ctmPQwPc7T9fiU1l3paLTFt5GgCbMeT2zvW/XdzUwvfqMuz7w1TusYpiod589nplqhbzv8srFBERERG5v3KcXM1fvJLw/QcZ1K8HXp6e9vPbd+9l5+59bN8VDkBCQiLjPvuS1zq+QLXKFRwX8X/UZ5+OJyM9AwAvb6977u/7DeeZu+UiG0Y3IsDblfdnH+JCVHKWOu65bj4D6evpSlxShv34wrUU+8+hAe70blHCvrwwJ0rk8+bbXtWx2gzfrD5Dh/E72PdZkxz3IyIiIiLyV8jR+r3DR0+wfM163u7xWpbECuDVDm2Y/PFIJn00nEkfDadA/rz0eeMVJVYOEuDvT3BwEMHBQXh6eGS7nY+HC0cvxJNhNcQnZxCTmA5AZFwqYXm8CPB2JTIujYXbL5GQYs1Wn9WL+7NwW+ZSvx3Hozl6Id5e9lStvMxcd5bohHSMga9WnrbPYt0unoiYFB4dspHkNCvOThYqF71xxioqKorqteuxecvWbF+/iIiIiMj9kqOZqzXrN5GYmETvgSPs50KCAhk2sI/DAxPHeKRqKJOWnCSo7UJ8PVwZ93IFWtUrwPP1CzJn/Xnq9l1HvkB3RnUoT7ux2/ly+Sn7rn+38u5zpXlh7HbKv7GS+mWDaFolBMtvX8hqViWE/WfiqNdvHQnJGVQM82Nytyp3jCfU350G5YOo3msNzk4WvN1dmPJG1SzjWq02IiOvkZaW5vgbJSIiIiJyjyzGOOo3GMl/1VPDN9OhcSGerpv/rw5FREREROQvo239JMeW7IygQf9fSbfauBSdwtYjUVQtFvBXhyUiIiIi8pfSzJXkWLrVRpeJu1m7LxJXZwtvPlmcLo8W/avDEhERERH5Sym5EhERERERcQAtCxQREREREXEAJVciIiIiIiIOoORKRERERETEAZRciYiIiIiIOICSKxEREREREQdQciUiIiIiIuIASq5EREREREQcwCWnDeYtXsGKNRuwWq1UKFuazh2ex93NDavNRvtXe+Ht7WWvW6lcabq98qJDA5a/v8othhAZk0iBkAC2fD/gTx/v0IlLNH/tE5KSU+nQoi5j+rayl30xZx3b9p1m2oiXHD7uywO/pl/nRygZFurwvkVERETknydHydWefQdZu2ELIwf1xdPDg0++mM6CJat4ruVjJCcl4+7uxpSPR/5Zsco/xJ55Q9i0+wS9R39/X8YrUywvp1aN5oMvl3ItJuG+jAmZSZ2IiIiIyO9ylFx5eXrSqV0r/P18AahaqRx7DxwBIDE5GW9PT8dHKP8axhjGTF3G7MVbMQZqVizC+Hda4+3pBsDarYd556NfuBaTQL48/nz6bhsqlS4IwLZ9p+g5cg5xCcn4+XgweeiLlC+RP1vjZmRYadf3S7buPUXB0NzM/uhVQgJ97xjPvNW7GT5pETabwcfLnQkDX6BiqQIA1G0zin1Hz9Ok40c4OzvR7IGyTB6qWVoRERGR/7IcfeeqRLEwKpUvYz/eFX6AEsXCAEhKSiHDamXkRxPp2uc9Ro77nIsRlx0arPyzLVq3l++XbmfDd/3ZM28wqWkZjJ22HIDI6ARe7PcVU4d34Njykbz6XAPa9v0SYwwAbwz7jt4vNWP/wvd5tll1Bn48N9vjrtx0kLc7P8qx5SPJH+LP1B833DEegB7DZ7NwUg92/TKI4W+2YPn/7beXbZr9DkEBPqya3ptTq0YrsRIRERGRu9/QYu6i5URFx/Bw4/oA5MrlSoWypWjb6ikmjBlCqRLFGP/5V/YPxyJL1u+jdfOa+Hi5Y7FY6NCiLis2HgBg9eaDVClbyD4b1eaxWmyc9Q4WiwWAX2f0o2XTKgDUrVqMU+cjsz1u7UpF7TNOD1QtzukLkXeMB8DP24MZ8zcTERlL/eol6fvyI/d+E0RERETkX+uukqufFyxjy/bd9O/VBVdXVwDy5w2hy8vtKFwwP87OzrR8vBlXr0VxLSraoQHL/ZGUnEyV6nXsf/aE773nPq9ciyM4t4/9ONDfm6tR8QBERMYR6O9tL3NysuDn42E/nr9qN806fUTD9mN4Y9gsbLbsJ+0Bftc3WXFxccb6W9vbxQPwy2fdOHTyEtWeGUaDdh+w+9DZHFytiIiIiPzX5Hi3wPmLVxK+/yCD+vXA6w/fsYq8FkVsXDzFihQGMr9fY7XaHBep3Fce7u6sWLrQfhwQ4H/PfeYJ9M2SvERGxxMS6PtbmU+WMpvNcPjkJUoXzcv5y9G8PmQGm2a/Q9ni+Vi//Sjd3v/uT40HoEThPEwf2RGrzcaM+ZvpNOBrds8ddM/jioiIiMi/U45mrg4fPcHyNet5u8drWRIrgMioaMZO+JKIy1ex2Wz8snA5BfKFEhSY26EBy/1hsVgIDg6y/3FxyVke7uxsISU1Lcu5xxtVZM6SbSQkpmCzGab/spHHH6wIQJM6Zdl96Cz7jp4H4Iel22ndezJOThZi4pJwc3OleOE82GyGGQs2k5CcepMxnUhOTc92jLeL5/K1OB5//VOSU9NxdnKyb6zxRz6ebhw4fgmbzXDxSky2xxURERGRf6ccfWJes34TiYlJ9B44wn4uJCiQYQP7ULpEMVo81owR4z4jKTmFYmGF6Nm1k8MDln+GEoVDACjQqC+uLs4cWPQ+jzWsyL6j56nXdjTGQIMaJXnzxaYABOf24ZtRneg88Bti45PJG+zH3M/fAKBCyfw0b1CBum1GEeTvzaBuT7I1/CSdB37D1OEd7GPWqVyMj79dxaJ1e6lYqgDzf2t/K7eLJyTQlwbVS1Ln+RE4OTnh7enGpCHtsrTv2aEp3YfP4vUhMyhXLB9rvnnLYfdPRERERP55LEY7ToiIiIiIiNyzu94tUERERERERK5TciUiIiIiIuIASq5EREREREQcQMmViIiIiIiIAyi5EhERERERcQAlVyIiIiIiIg6g5EpERERERMQBlFyJiIiIiIg4gJIrERERERERB1ByJSIiIiIi4gAuOW0wb/EKVqzZgNVqpULZ0nTu8Dzubm4AxMTGMemrmZw4fZag3AG81rEtRQoXcHjQkn3luq3kWlwaBYI82DG+cbbb5X1xMf/3QSOK5fW6b2OKiIiIiPyT5Wjmas++g6zdsIWRg/oyYcxQklNSWLBklb188vRZlClVnCkfj+TxRx7ip/lLHB6w5MyBz5vy84Da//oxRURERET+ajlKrrw8PenUrhX+fr7kyuVK1UrluHDpMgDRMbGcPH2WJx5tgpOTE/VqV6dvj1f/lKDFMaavOkPZrisp8dpyWo7YTFxSRpbyhdsvUf6NlRR+eSlTlp+yn49PzqDTpzsp23UllXqsYuKSk9kec8isg5TrtpLyb6yk5cjNxCSmZx1z0RLCipchNTX13i5OREREROQ+y9GywBLFwrIc7wo/QJlSxQE4e/4ieUND+Hb2z+wOP0BQUG46tXuOAvlCHRasOM7VuFR6TNnD4UnNyJfbg5YjNjN52Un6Pl3SXmff6Vj2TmjC0QsJ1Oqzlha185HHz41hcw6Rlm5j/+dNiE5Ip07ftdQqGUC14gG3HXP/mTjmbrlI+KdNcHG28NniE2w6fI3m1a4/I+4e7oSGhGCxWP60axcRERER+TPc9YYWcxctJyo6hocb1wcgKSmZE6fOULpEMT4ePYjqVSryyaRpGGMcFqw4TrCvGxe+foz8gR5YLFCnTCAnIxKz1HmxcWGcLBZKF/ChXCFfdhyPBmDR9gi6NC+Kk8VCoE8uWtcvyIKtl+44pq+nCxevpbBg60USUjJ447FiWRIrgKYPNWbLxnXkypXLcRcrIiIiInIf5HhDC4CfFyxj2849DOjTDVdXVwA8PT0Iyh1AnZpVAXi0SUO+/2UR0TFx5A7wc1zE4hBWm+HDX46wOvwqFgtExKTSpFJwljoh/m72nwO8XYmOTwPgamwqbcdtx8Upc3YpPcNGi9r57jhmoWBPvnurBh/PP07nCbtoXCmYyd2qEuijREpERERE/vlynFzNX7yS8P0HGdSvB16envbzIcFBJKekYozJsqTL2Vm7vf8dfb/hPHO3XGTD6EYEeLvy/uxDXIhKzlLnj9+Hik5IJ/dvSVBIgBvTelSnZsnbLwO8mWZVQmhWJYSElAzemraPwd8d5LPXK9/bxYiIiIiI/A3kKPM5fPQEy9es5+0er2VJrABCQ4LJE5yb5WvWY4xhxZoN5AvNg5+vj0MDlpxzdrKQnGbNci4yLpWwPF4EeLsSGZfGwu2XSEjJWmfO+nMAHL+UwKHzcdQsmRuAFrXyMXHJCWzGkJpu4+3p+9h2NPqOYy7dGUGvqXsB8HZ3oVR+7xtiXblqNdVr1yMtLe3eLlpERERE5D7L0czVmvWbSExMovfAEfZzIUGBDBvYB4DXO7Vl0lff8dO8peTPF8Ibr3ZwbLRyV0rky0xiQtsvxtXFwpEvHub5+gWZs/48dfuuI1+gO6M6lKfd2O18ufwUrzxcBKvNEBbiRdWeq4lJTOejlyvZl++906o0vaaGU7brSpJTrbSonY/KRf3uOGbD8sHMXn+esl1X4uJsISyPJ1O6V83SLiUllcjIa/qunoiIiIj841iMPsWKiIiIiIjcM30hSkRERERExAGUXImIiIiIiDiAkisREREREREHUHIlIiIiIiLiAEquREREREREHEDJlYiIiIiIiAMouRIREREREXEAJVciIiIiIiIOoORKRERERETEAZRciYiIiIiIOIBLThvMW7yCFWs2YLVaqVC2NJ07PI+7mxu7wvfzxfRZWeomJCQyc8p4nJyUw/1TrQ6/wksf7+Dc9ObZqj9xyUm2Honim17V/+TIcmbh2nAGfPQL+xYO/atDEREREZF/KYsxxmS38p59B5n+3U8Mfacnnh4efPLFdAoXzM9zLR+7oe7WHXvYtG0nvbq+7NCA5f6KS8rgREQCVYr6Z6v+3zW5iqmHTAEAACAASURBVIlL4uylKCqWKvBXhyIiIiIi/1I5mrny8vSkU7tW+Pv5AlC1Ujn2HjhyQ7309HTm/LKQt3u85pgo5b4b/sNhJi89idVmcHayZJm5ikvK4M0vw9ly5BrOThbaP1iYfs+UtJenZth4ZtQWdhyLplQBH2b2qUEePzd7+YD3hnDw4CHm/fx9tuPJ16APw99sybzVuzl9PpLOrRrQo/1DAFy6GstL/b/i/OVoalYsisVi4YEqxXj52frEJ6ZQ8akhZGRY8ffxzDJz9fmstew/doHUtAxOn48kw2rl+/GvkzfYj1+3HaHHiNls+eFdPNxc2bDzGN2GzmTz9+/i5ZHrXm6tiIiIiPxL5Wi9XoliYVQqX8Z+vCv8ACWKhd1Qb93/baV40TDyhua55wDlrzHwudKcm96ctSMb3FA2dPZBjDEc/LwZG8c04pvVZ1gVfsVevnxXBEPalOHMtEfJG+DOBz9lTcD9/HwJCgzMUTzOTk4cPR3BgondWTzlTYZ+toCUtHQAPvhyKaWK5uXAomF0bfMgC1bvxtk589H28XLn1KrRLJ785k36tDBv1W6Gdn+SNd+8RYWSBZj64wYAGtYsRdO6ZRk+aREpaen0GD6bye+/qMRKRERERG7prr8MNXfRcqKiY3i4cf0s540xLF+9nqYP1rvn4OTvadH2CF59pAgWC/h5uvJM3Xws33XZXl6tWAAVwvwAaN2gAJsOR2Vp3++t3kydMjHH47ZuXguAgqG58fJ0I+JqHABbwk/ybLNqANSoEEb5kvmz3We9asUpGJobgIqlCnD20jV72bCeLVm2YT8d35nO4w9WpE7lYjmOWURERET+O+4qufp5wTK2bN9N/15dcHV1zVJ2/OQZrFYrJYsVcUiA8vdzJTYlyzK/QF83rsSk2o/z+F8vC/DORVR8mkPG9fF2t//s7OyE1WYDIDoukQA/T3tZaJBf9vv08vifPq9/BdHDzZWXWj7AonXhdGnd6B4iFxEREZH/ghwnV/MXryR8/0EG9euBn6/PDeV7DxyifNlSDglO/p7y+LlzJfZ6MhUZm0powPXEJzYx3f5zdEIagT5/7lI6Hy934hJS7McXLsc4pN+rUfFMmr2W7u0e4q0xPzikTxERERH598pRcnX46AmWr1nP2z1ew8vT86Z1Tpw6S7GwQg4JTv6enqyVlynLTgEQlZDGjxsv8ETNvPbyLUeiOHMlCYAfN16gQfmgLO1HjxlLx86O2+ykWrnCLFq3F4CdB85w9MzlO7TInu7DZ9Gj/UOM6NmSq1HxzFm8zSH9ioiIiMi/U452C1yzfhOJiUn0HjjCfi4kKJBhA/vYj6NjYvHzu3FGS/49BrUuwxtf7KFM1xW4ODnR/Yli1CubuUGF1WZoXj2Unl+Gs/9sHMVCvRjzUoUs7ePiE4iOdszsEkD/V5rzYr+vqNxyKPWqFqdpnTJYLBYAeoyYzcK14WRkWImNT6ZIk/4AbP9x4G37nL14K1Gxibz2fEMsFguThrTn4ZfHU796SfKHZG9behERERH5b8nR77mS/569p2N5ZtQWjk1++K8OJdue7j6R9k/VoWWTKn91KCIiIiLyH3LXuwXKv1d8cgbRCelkWA3frD5DteIBf3VIt7Vsw34adxhLeoaViMhYtu07RZUyWpoqIiIiIvdXjpYFyn9D+KlYWo/ZSnKalWrFA/iqe9W/OqTbeqhOGeau2kWFJwbj6uLMe10eJyx/zn6PloiIiIjIvdKyQBEREREREQfQskAREREREREHUHIlIiIiIiLiAEquREREREREHEDJlYiIiIiIiAMouRIREREREXEAJVciIiIiIiIOoORKRERERETEAXKcXM1bvIKufd7jtZ4D+GzKt6SkptrLtu7YQ99Bo+g1YBjDPpzApctXHBqs/POdjEik7bjtd92+eq81zPr1nAMj+vtZuDacCk8Mdlh/9V4YjX+N7uSu1YOiTfrz1gc/kJqWwapNByn16Ls31H+mx0TGTlvusPFFRERE/itylFzt2XeQtRu2MHJQXyaMGUpySgoLlqwCIDomli+/mUPf7q8yfuR71KhSkcnTZv0pQcs/18GzcffU/uue1WlWJcRB0dzo7/ArtetXK8F3Y19xaJ8zxnQmauunrJ/Zj+37T/PJt6toVKs0iclp7D501l4vMTmNdVuP0KJJFYeOLyIiIvJf4JKTyl6ennRq1wp/P18AqlYqx94DRwCIuHyVgAA/8gQHAlCudAnmLV7h4HDlfjl1OZFuk/Zw6Hw8HrmcGdymDM/XLwBAXFIGb34ZzpYj13B2stD+wcL0e6YkABMWnWDf6VhS022cupxIhtXw8zu1yZvbnTnrz/HG5D2kpRsKdlwCwPKh9ShbKPN5mr7qDB/+cpR0q43yhXz5plcNfD0zH9Ghsw8xdcUpYhLTmdytKi80LGiP9dnRW6hWPIAth6M4F5lEmYK+zOhdHSeLBYDRPx1h5rrMBKJR+WDGvVwRN1cnMqyGoLYL2TruQTp9spMjF+JpUTsfU7tXs/e9cNESuvfsw5EDe3Bzc8vWvWvdezJVyxZmS/hJzl+OokzRvEwf2QknJwvpGVa6D5/Fuq1HKJwvNw/WLs3hExF8PboT8YkpVHxqCBkZVvx9PNm3cKi9z31Hz/PKe9/SvGEFNu06TkRkLJ+++wINapTkalQ8dduMYsHE7pQplpeo2ERqPTeCuZ91o3yJ/FliKxAawKvPNWDGgi283fkRHmtYgYVrw6lSphAAqzYdpERYCMUL5cnmkyIiIiIiv8vRzFWJYmFUKl/Gfrwr/AAlioUBEFaoAImJSZw8nfkhdseefVQsV9pxkcp91W7cdlrWycepqY8w993avD5xF6cvJwEwdPZBjDEc/LwZG8c04pvVZ1gVnrkE1NnJwtzNFxnerizrRzekYhE/piw/BUDrBgUZ+WJ5nqiVl3PTm3NuenN7YnU1LpUeU/awclg9jn7xMMbA5GUn7fEMblOGc9Ob33TWytnJwtIdEfzQrxbbxjVm76lYft0fCcDi7RHMXHeWDaMbEf5pEy7HpvL54hMAuDhbyJfbg5c/3cnHr1Qi8rsnmPJG1Sx9u3u4ExoSguW3RC07nJ2cWLZhP7PHvcqm2QPYe+QCG3YcBWDBmj3sOXSOPfMHM2vcq8xetA0n58y3oY+XO6dWjWbx5Ddv2ufB4xepXLogy6b24p1XmzP8i0UABOf2Yezbz9F16ExsNkPfD3/k9dYNb0isfpeSmo6TU+b1tGxSlYVrw+1li9aF01KzViIiIiJ35a43tJi7aDlR0TE83Lg+AB4e7rR/viWDR47n1Z4DWLt+M61aPOawQOX+uXgtmf1n4ujUNAyAUvl9ODX1UQrl8QBg0fYIXn2kCBYL+Hm68kzdfCzfddnevl65QAoGewJQqYgfZ64m3XHMYF83Lnz9GPkDPbBYoE6ZQE5GJGY75qfr5sfN1QkXZwvlCvty9krSb7Fe4oWGhQjwdsXZycJrjxRhwdZL9nb+Xq48XDWUGiUCAOyzXb9r+lBjtmxcR65cubIdC0CLJlVwy+WCi7MT5Yrn5eylKAC2hp/k8UYVcc/lSqC/N08+VDnbfXp45OLJxpn1K5YqyNmLUfaypx6qTNFCwXTo/xWnz0fSs0PTm/Zx/OwVPp+1lmeaZiaRjWuX5nxENKfOR2K12Vi2YT8tmyq5EhEREbkbOVoW+LufFyxj2849DOjTDVdXVwDOX4xg9k8LGDv8XULyBLFl+24++PgLxrzfHycnbUr4T3IpOgX/35KR3/l7udp/vhKbQh6/60vkAn3d2H0ixn7s63G9rrOTBav1zl9kstoMH/5yhNXhV7FYICImlSaVgrMds6/H9UfZ2cmC1WZ+izWVeVsuMm3laQBsxpDb+3qi5OQElcL8sj1OtuPxdr8ej7MTVpsNgKjYJArnD7KXhQb5ceFyzA3tb9qn1x/7tNj7/F2Pdg9Rt80opo/qhPP/vOfavz0VJycLvt4edHqmHh2frgdALlcXmv++NLBsIUKD/SgZFpqzixURERER4C6Sq/mLVxK+/yCD+vXAy9PTfv7AoaMUK1qYkDyZHxxr16jCxK9mEB0TR2Buf8dFLH+6EH93ouPTsdqMPcE6GZFIsJ8bPh4u5PFz50psKsXzegMQGZtKaID77bq8o+83nGfulotsGN2IAG9X3p99iAtRyfd8LaEB7vRuUYK+T5e8ZR23XPcv+ff1dic+8fp1Xbgc7ZB+jTH0G/sT/V55lOETF9K8fnm8/5CMzRjTmScerHTTti2bVOWzmau5Gh3P002r3rSOiIiIiNxZjj5VHj56guVr1vN2j9eyJFYABQvk49iJ08TFxwOw98BhPNzdCfD3dVy0cl8UCPKgXGFfvvpttufYxQRq9llDVHwaAE/WysuUZZnfo4pKSOPHjRd4ombebPXt4+HC0QvxZFgN8ckZxCSmAxAZl0pYHi8CvF2JjEtj4fZLJKRY7/lanqqVl5nrzhKdkI4x8NXK0/ZZrOxYuWo11WvXIy0t7Z5jAahWrjDLNuwnw2ojKjaRFRsPOKTfz2etJdDfm0Fdn+DpZtV4e+xP2W7btG5ZDhy/yNL1+/R9KxEREZF7kKOZqzXrN5GYmETvgSPs50KCAhk2sA9lSxWnedNGDBn9CcZm8PLypHe3zloS+A81s3cNun2xmw9+PoqbixPf9q5B4TyZCfWg1mV444s9lOm6AhcnJ7o/UYx6ZQOz1e8jVUOZtOQkQW0X4uvhyriXK9CqXgGer1+QOevPU7fvOvIFujOqQ3najd3Ol8tP0bhiHhoN+BWAmMR01u+PpN/X+2j/YCFGvlj+tuM1qxLC/jNx1Ou3joTkDCqG+TG5W/YTiJSUVCIjr2EctEf7Mw9XY+n6fVR8cjAlwkJo8VAVTl3I3Hyjx4jZLFwbTkaGldj4ZIo06Q/A9h8H3rbPY2eu8OmMVfzfd5n133m1OQ+8MIql6/fxaIMKd4zJLZcLTeqUIfzIeUoXzV6SLCIiIiI3shhHfWoUkRz7+JuVnL0UxUf9n/+rQxERERGRe6RpJZH7KDI6gVKPvsvZS1GkZ1hZtG4v1cuH/dVhiYiIiIgD3NVugSJyd4ICvOne7iEe6TweiwUa1SzNc4/W+KvDEhEREREH0LJAERERERERB9CyQBEREREREQdQciUiIiIiIuIASq5EREREREQcQMmViIiIiIiIAyi5EhERERERcQAlVyIiIiIiIg6g5EpERERERMQBcpxczVu8gq593uO1ngP4bMq3pKSm2st27N5Hn4Ej6Ny9P2M+mUxCQqJDg5V/vzp91930fN4XF3Pi0t/3eWr04hg27Dx238aLjE6g9KMDiY1PBmD6Lxsp0qQ/ATV7sHBt+E3bvP3hj3QdOjPLuS/mrKPTu19na8wVGw/wyCsf37Rs75HzVHhicPYv4BYuXI4hb/0+99zPndyv16t+2w/uuu3NXq+/g4GfzGXk5MX24/cnLqTCE4Mp9/h7vPLeNyQmpwGwduth/Gt0p2CjvvY/U35Yb2+3dP0+KrccSr4GfWj28kccORVhL8uw2ug5cg4FGvWl1KPvMnvxVntZbHwy7d+eSvknBlHhicGMnbbcIdf1y8pdVHtmGBWfHMwjncdz7MyVbLf96qcNFG/2DoUbv03/cT+RnV8febv3XobVhleVrlnuXccB0+3lh09eommnceRr0Ieazw1n96Gztxzn+V5fMGfxtpuWffbdmps+Y2OmLsO32hs3bbNp9wm8q3Zj0+4T9nNNOo4jb/0+9ljLNB94y3huNlaxpu9Q6MG36fjONBKSUrOU7z50Fu+q3W44/0f/+/fPH+9P5RZDWLBmj72saadxWe5rUO03eX/iQnv5yMmLKfXouxRo1Jd+Y7O+llvCT1LtmWHkb/gWLbp9Rkxckr1s0bq9VG4xhHwN+tCk4zgOnbiUrXjiEpLpOGA6YQ/1o8TDA5i16Pqzfiejpiyx37sO/b8iPjHlhjp383olJqfx7JuTCK3Xm6Dab9LlD8/I7e7B7271/CQkpVK82TssXb/vhrKDxy9S74XRBNV+k9B6vflm3iZ72d28v7J7f24mO++vT2espt4Lo7Ocy8m/p/IvZ3Jg994Dpke/oSY6JtakpqaZMZ9MNt//ssgYY0zktWjT6Y23zfGTp02G1WomTp1hJn01Myfdy39cbGK6KfjSkpuWhbZfZI5fTLjPEWXP/NW7zVNdJ/wpfdtstpuef+uDH8y4actvON/81Y/NgjV7btrmzMVr5uS5q1nOTZq91nQcMD1bcdRpPdJs3XvypuXhh8+Z8o8PumM/d3I+ItqE1ut9z/0YY4zVevN792e+Xn8Ul5BsijzU767b3+z1cqRb3Z/buXglxpR+9F0Tn5BsjDHm5xU7TZ3WI01SSpqxWm2mTZ/JZvCE+cYYY+au2mWefXPiTfuJjI43IQ/0Mht3HTc2m82MmbrUPPTSWHv5uGnLzdPdPzeJyanm6OnLpuxjA01CUqoxxpieI2ebHsNnGWOMiYlLMqUffdes3nwwx9fyv9cVWq+3/X5/9t0a07jDh9lqu3XvSVP2sYHm7KVrJj4xxTRqP8Zs3HX8ju1u9967FpNg8jzQ65Ztqz79vvnsuzXGZrOZr37aYMo9/t4tX8/nek4ysxdtvWnZhJmrTZchM7KcO3U+0tRoNcz4VO12Q/30DKtp2P4DU+Shflmusfqzw8zug2dvGe+tLNuwz5R9bKC5dDXGJKWkmWd6TDRDPst8fpJT08zidXtN5RZDjWflLiY+MeWW/fzv3z/Vnx1mJn//qzHGmA07j5mg2m+amLikG9plWK2m9vMjTPjhc8YYY35avsNUajHEXI6MNddiEkz1Z4eZGfM3G2OMiU9MMcWa9jdrthwyVqvN9Bg+y3w0fYUxJvP5ydegj9mx/7Sx2Wzmgy+XmobtP8hWPG+OmG3a9f3SpKVnmD2HzpqQB3qZE+eu3PHezV21y1R75n1zOTLWJKdm3ruBn8zNUuduX68flm03NVsNN7HxWe/Z7e7B7272/GRYrWbXwTPmwRc/NCEP9DJLft17w5jdh88yXYbMMOkZ1izn7/b9lZ37cyu3e3/FxCWZT2esNgUb9TUPtBmVpV12/z2Vfz+XnCRiXp6edGrXCn8/XwCqVirH3gNHADh87AQlioZRrEhhAFo+/jDvDh/L67R1cDoof2cTFp1g8+FrOFksXLiWjIuzhZl9ahLi74bNGHp9uZeluyKw2aDVA/kZ1aE8AGeuJFGn71qi4tMp2HEJAENeKMvLTcPsfS/bFcGU5aeIik+j/7Ol6PZYMYfEPOC9IRw8eIh5P3+f47ZWm42hny9k2oiXgMz/8ar3wmhOrxmDt6cbAPNX7+G9T+ayd8FQbDbDW2N+YPn/7cdmMzzdrBojerYEMv+3Om+93myc3Z9X3vuWI6cieOqhykwe+mKWMc9cvMbiX/ey85dB2Ypx5aaDvDroW5JS0nimaVUmDm6XpTwtLZ3ne33Bjv1nKFkkhG9Hv0xwbp8sdX5ctoNCeXNTs0IR+7nPvlvDhJmrCfD1okWTylnqHz0dQY/hs7l0NRY3NxeGv9mSZg+UAzL/V7Tf2B9ZvfkQVpuN55vX5P3uT2GxWLL0YYyhTZ8plCoSytDuTwHw4VfL+O63/9ltWL0kY/q2wi1X5l9jj7zyMb1fasrMBVtYs/Uw/j4e7F/4fpY+//f1ulM8xhjGTF3G7MVbMQZqVizC+Hda4+3pxuez1rL/2AVS0zI4fT6SDKuV78e/Tt5gP85cvEb9th8QHZdIkSb9ARjU9Qk6Pv0AANv2naLnyDnEJSTj5+PB5KEvUr5E/ju+Xrcb817uz6ETl+g6dCaxCclYLBb6dX6E5x6tccOzNOKLRbzR7iG8vdyBzOe9VsUieLi5AlC/ekk27ToOZM4w+ft43tAHQEpqBqN6P0PdKpnv4RYPVeGTGavt5d/O38S3H3TG0z0XJQrn4cCiYfayQycjePW5BgD4+XhQpWwhjp+9SuPaZW77/rpd2fGzV8iXx58iBYIAaFSjFGOmLrWPeezMFboP+46IyFi8PN344K1W1KtaHIAZ8zfTpc2DFAzNDcDab/tmudZPZ6zmq582kJSSRrVyhfliSHv8fTPvy63eezHxSQTc4t5duhrLmQuRdGndCIvFQqdn6jFqyhL2HjlP5TIFuXglhg79v+LilRiqlClESlqGvW16hpVu73/H+u1HKRAaQMVSBW7ov++HPzCy59M83X3iDWWfzVxNyyZVmf0/M2Gx8Un2a/pfkdEJdHp3OifPXcWChcFvPMmzD1cDwN/Xk48HtCE0KPP5fbR+eVZvOQTAwPFzOXb2CtNGvnTDDAHc+u+f9Awr7Z6oTedn6wNQr2pxXF2duXA5Gj8fjyx9TP9lI+WK57ffh7VbD9P+ydrkCcz8jNO1zYPMX7Obdk/WZsn6fVQrV5gHa5UG4JN329j7SU3LYNzbz1GtXObnn0fql2fCzNXZimft1sN8ObwDri7OVCpdkEcbVGDR2r30aP8QcOv3dHCAD+PfaW2PtVHNUmz+w+zU3b5elVsMISIyjvR0K5VaDAWgS+tGvN35kdveg9/d7Pn5ecUuPv12FW92aMJXP27IUv/QiUs0f+0T4uKTcXV1ZumG/QB8M6oTDWqUvOP7627vz7IN+xk0YR5paRkUyhfIpMHtyR/if8f311PdJlC6aF4+6v88H3+z8obr/9/39NIpPW96n+XfLUfLAksUC6NS+TL2413hByhRLAwAiwVsf5iqdXPLRXJyCvFaGvif4uxkYenOCD54qfz/s3ffgVEUbRzHv3cpJCG9EAgttEDoHUQQ6UVELBRBQKQpIFIERZEiVUAUQVCUIkVRpPeOSA+hd+m9pJJe7u79I3CYFwgEDkH5ff5KbrY8O7tzd8/O7Bwbhr9AqXyefPF7WgK+eMdlNh8J59C3ddj9dS1mbTzHzuORAOTN5sKG4S/g5+HI+WkNOT+tYbrECmDf6Wh2f12LlYOr0u+nQySlmG0Ss4eHO74+Pg+17qzF2ylRKCeliuQGoEj+HBTOn51lG28PzfttRQitXq4MwJIN+9iy+wR7Fw5i59z+/Lx0ByEHzgBgb2ckIJsnnQbM4MuPmnFl81gmDWx9xz4/n7iE3u3qWr/Q3k+dKkU5vXYkn73X6K7lq7cc4rMuL3NyzQhy+HkyesrKdOUpqSaGfbeMQd0aW1+7cCWSIZOWsm7ah2yb0y/dECqLxULbj6fSvGFF9i0axNRh7Xi731Qio9PeC4Z/v4yEpBQOLv2c3fMGsGrzwTs+/AGGTFqKndFo3e/yPw4we+kONv7Uh9B5n3EtIobv5my0Ll8wjx99Rs2l9nPBnFs/iv2LBt+xzf8/X/eLZ+nG/fy6IoQ/Z3/M3oUDSUpOtQ5DszMaWLh2D4Pfb8z6nz6kRFAufrz5xSFvgA9rp/XC18uN02tHcnrtSGtiBdBtyGx6vV2Xg0s+54265en/9YIHOl8Z7fNR6mfIpCW817IGu+cPYPWUnqzcfOiOoTd/nbnKHzuP07FpNetrL1YswoadxwiPiiU5JZXVmw9Ru0pRIC25OnrqCs+1GE6hep/QeeAM67CcnP6e6epj2R/7qVQyLXFPSErh1Pkwtu87RalXBlGh6VAWrbs9jKpW5SIsXLuHlFQTV8NvsPfIeapXCAIybl8ZlZUukpvI6Dh2Hz6btuzGvdbjAGjXbyqv1S3H3oWDGN+/JW36/khicgoAB45fIC4+iaotR1L85QEMnbTUWnerNh9kxqKtbJzRh2MrhuHtkZWPx86zbvdebe9GTCLJKak0evcbCtTpx0udx3H8TNqwyVuftRZunx8XJ0dOXwwDYNh3yyhVODeHlg7h03cbsSnkuHW5+atDOXLyMvsXD2LBhK5s3Hks3TletG4vufy9qPC3myi3XLgSyZIN++jaquYdZdGxiXz61XwK1fuEys2Hpxv2NXLycvLl9OXgks+ZNqIdXT+fhcmc9t5dqWR+6vytnpdvOkClkvkBGPNRMxZ9240ywXnuGsu93n8c7O34oE1tjEYDCUkpTJi9npz+XgTly55uGympJr74YQUfd2pgfc1gMGAy3a7XrM6OnL6QVq8Hjl/Az9uNJl0nENywP+0+mWYdlh2Y04cWL1UEICI6jq+mr+bVOmUfKB6DAUwmc7p9nrl5LjNq08+XLUi1coWAtOR/xqKtNKlT5pHP196Fgxja41Ua1Shpfe/q26H+fesA7n39NKtfns0/f0zTeuXviCW4QA5Orx1JoxolGdrjVes+X7jZpjNqXw9bP9fCb9Duk2n8OORt9i4cRJ0qxeg+7Gfr+ciofW2c0ZfvBrXG3yf9Dchb/r9Ny7PpoSe0WLB0FRGRUdSrmfZBW6RQQU6cOsOxv06RnJzCkhXrMBqNpKSk2CxY+XeoFORNTp+0O4T1yvqz9Wg4AK9UCuCPES/gYGfE3cWekoEenLoS+8Db7VgvH3ZGA8XyuJPVyY7LEQ82fvp+PvqwFz9OvvMu7f0kJqcw6scVfNb15XSvt2hYibmrQgGIiUtk9ZZDvNmoEgCNa5Zi3fQPcbC3wy2rEyWCcnL6wnXruh5uztR9vhjliwcCYDSm7805+NdFQg+dpe2rz2MrZYvmtfaaNG9Qnm17T6Urn/L7n1QunZ8i+XNYX9u27yTliuUlV3YvDAYDLV+qZC27eDWK46ev0vqV5wAoXignRfLlYOvetLuGS9bvpVOzF7AzGnHN6sT6aR/StH76D935a3azbtsRfhz2trVHa/mm/bzZsCKe7i7YGY10bFot3fNlHm4u5MjmSZsmVTAaDXfU3b3OV0bxLN90gBYNK+KW1QmDwUDbJlVYveWQdd2q5Qpa76iWLJyLc5fDH6jO/5j5Ea/e/KCvUraA9Qvcg7jXPh+lfjzdXFiyfi9HT13Gx9OVqX+rKXUW1AAAIABJREFU91sGTVjMx50a4Ohwe8BDlTIFqFmpCAXrfkLuGn1JTkml5c1rPU+AN5VK5mPRt93YPX8A1yNi+fRvSeQtG3ce46uf1jCy1+tA2jMoFiycPHeNnXP7M+GzlnQaOIPzVyIA6PZWLU5fCCNPjb4Urv8pb75UicI3v6hm1L4yKnPL6sQXfd6gRpvR5H6xD9Pnb2VAl7Tr5PL1aA6duET7N6oCae0lXy5f613wqJgE1m8/wuJJ77N2Wm9+X7WLeat3A7B4/T5aNKyIl0dWjEYDY/s1Z+zHza3Hfq+25+zkQM3KwQzv+RpHVwzl+bIFadFrMhaLhey+HhTMm40Js9aTkmpizrKdnL8SQVJS2mftlj0nrF/sgwvkSJecbNlzkpdeLIGjgz1uWZ14uUYpa1lcQjJjp6+29hL/v75j5jKi9+vY2935taFhteI0a1CBI8uHMuSDJrzdbypnL6VdlyM/fIORH74BQPnigSSnmLgWHnPHNr74YQUXr0bRuUX1u+7/7zJ6/7llU8hxslXpwdc/rWHSwLfuiHvB2j0UyZ+DgnmyWV+r/VxRZi3exqVrUVwLv8HUeZtJSkrr+YuOSWDFpoMM7fEqexcOIiUllQHfLEy3zeHfLyP3i304czE83c2ojOKp/VxRxs9aR0JSCnuPnGfV5kMk3jyX92vTkNYjXbrJICqXKsDrdcpZX3/Y85WRjOrgftfPw8qofT1s/WzceYyyRfNYeyw7NK3Gum1HSE5JvW/7up//b9PybMrUsMBb5i1eyc7QvXzSuysODml3z729PHjvnVZM/ukXzCYzjRvWxmKx4OLifJ+tyX+Nt5uj9W93F3siY9PelK5FJ/HR9AMcuxiLnRGOX4yl1Yt33pW853Zdb2/X3s6AyfxgD7U+Lt/9spHazxWlQG6/dK83a1CewRMWEXUjnqUb91OhZD7y5Ej7Mnw9IoZ+X83n+Omr2NkZOH7marovBkajgRJBdw7VuWXAN4vo/26ju35gPqxbwyYgbZhO5I3bvc2x8Ul8/dNa1kzrlW6dyOj0w5b+PtzmWsQNvDxc0sXo45WV6xFpX6iuhEXj4+lqLbs1xOyWhMRken/xG6UK50rXO3c9IoZF6/YyfcEWIO3uopd7Vmu50WigZFDOex7nvc5XRvFcC7+Rbiikj6er9TgA3LLePm47O+MDX5OL1u7hh7mbSDWZiU9MxpyJa/le+3yU+hn14RsM+34Zr3b7FoCBXRtb78QDhB46y/GzV5n5Uod0601fsIUjpy5zbsMonJ0c+XjM7/QYPodvB7SiSa0yNKl1+076Rx3r067ftHTrr95yiHcHzmTO2M4UCvQH0q4ls9lC99a1yeJoT6WS+alUMh9bd5+gecOKdP18NtUrBvHHzL7ExCXy2vvfEhSYjeYNK2bYvjIqO3LyMp99vZDdCwZSILcf81aH0qTrt+ya15/rETGYTGaKN7o9DDc+MZmwqLQbQ55uzrR7rSreHml1/Vbj59iw4yhv1CvHlbBo640SACfH9L3N92p7hfNl58ehbf9Wdw0YO201569EkieHNzNGtqfr57P5ZuY6mtYvR9miea3DvCKj4/Byv3vbjIyOo2iB2zdJPN1crNfz0ElL6d66Fu6uzul6IyBtCFU2b/d0beHvpo14x/p3nSpFqVQqP5tD/yJvgA97j5xjyKSlREbHYTQaSDWZ7rjeh3+/jAVr97Dsu+531NHdZPT+c8sLFYK4vu1r1m07QvOe37NmWi/y57rd9mct3karRumTssY1S7H/2AVqtB1NNm93Xq1dhgVr91j3Ua9qMesX5/db16Jj/5/Srf9J55fo2rImU37/k7rtx7L910+t74P3imdA15d5f+jPFG80gDJF89DwhRJkvTmk/H5tGmDlDz24cCWSfmPn0WPEHL759M1HOl8ZyagOMrp+HkVG7eth6+daRAwhB06nm8gjq0sWrkfEktPfM8P2dT//36bl2ZTp5GrRsjXsO3iYAR91J6tL+gunXOkSVCibdifs5OmzZPP1wSlLFttEKv8aUbG37/CExyRbk60Bsw9hMlvY/EV17IwGavX/816beOpFxyQw8ZcNbJr10R1l/j7uPF+uEIvX7+X31aG8dXNIIKTd/TebzGyc2Qc7o5F67cfesb7TPYb7bd59gith0bxet6ztDgSIirk921PUjXjrhxjA+FnreKVWaWtPyS2ebs5E/C0Juxp+w/p3Nm93IqPjSTWZrV8swiJi8b/5oZPNx53rETHWO8a31r1Vbm9nZOdvn9K0xySmzd9iHT7m7+tBz7Z16NWu7j2PJcs96i6j85VRPLfKbgmLjLHG+bDOXY7g3UEz2fpLP4oWDGBTyHG6fj77kbYJj1Y/rlmdGNHrdUb0ep2QA2do0m0CNSoXsR5r/3ELGNi18R29gau3HOLV2mVxu5mQvlG/PB36Twdg9+GzeLlntT7HlJxiSrfuppDjdBsym0UTu6W7oeDk6EAOPw+iY+LJ6X97WI2dnZ11n2un9sJoNODh5kz9asXZGHKc5g0rZti+MirbGHKMCiUCrYn363XL0aH/T1y+Fo2/rztZHO05vGzIHb15APly+aVrQ4D1uv//6yc2LpFrkTHWL/n3anvnLkdwLfyGNTEzmy2k/m3oWFBgdtZN/xBIe94nf52PrV94Pd1ciPjbDG5/b5sebs5EpiuLtv69YtN+5izfyYej5mKxWDCZzeSr/TEhc/uzeP1elm7cz6Kbs9xFRMXSrOd3fDeoNS9WCGLr3pPWZyoh/blu128a3dvUomPTF0hKTsX/+Z7p6mr0lJWs3nKINVN6PfCX0Yzef8IiY5m5aBs9366Dk6MDL1UvyfQFW9gUctxa74nJKWzdfYLJn6d/ntVgMPDJuw35rEvakNyvpq+hxM0bEvlz+XHq3PV0y9+6JncfPsvJ89dpWq88Hm7O9GpXly+mrOTspXA8XJ0zjMfd1Zlpw9+xtq1Xu31L85vPO2bUphes3UNOf08qlshHruxe9G5Xj6Y9JsGnbz7S+cpIRnWQ0fXj6+V6t809kIza18PWj7+vO1XKFGTht3efETOj9nU//9+m5dmUqdvfR4+fZNX6TfTt3vmOxOpGTAxden/GtevhJCYl8duCZbxYtfI9tiT/ZduPRXDqStoH39zNF3k+OO1uWNiNZEoEemBnNBDyVySHzt4gNvH2w9ZuTvaExyRzOTKR5FQz16LvPfWuLY0cNYZ2HTpnap0vp62mRcNK1gex/1/LlyqycN1eQg+d5ZW/3b0Pj4qleFBO7IxGdh08w6GTl4lNeLDjHDBu4V0nfvg7OzsjCQ84fOGWHftPW4eE/L4qlKo3x6mHR8Uydd5m+rSvf8c6FUvmZ9eBM5y5GE5KqolZi7dby3Jl96JIgezMWrwNgL1HznPy/HXrdhvXLM3k3zZhNluIjU/ilS4T2LD9qHV9Bwd7/Lzd+H5wGwaOX2SNrXGNUsxeuoOoG/FYLBamzd9ivWN5Pxmdr4ziafRiSeYs30lsXCJmc9o+G9Uo+UD7dHVxIiIqlith0SSnpFq/ZEfdiCdLFgcK5s2G2Wxh5uJtD3wNZORR6ueNDyZZp0IPzp+drM6O1t6FtVsPk5iYQqMX7zzuYgVzsmrzQZJT0trx8j8OWL+ErN5yiPcGzyImLpGYuERGT1lp3UZkdBxt+01lyrB2d+2pfbNRJUb+sIKUVBO7D59l18EzPH9zAoniBQOsQ38Sk1NYt/2odZ8Zta+MyooXDGDH/lPWc7R262HcsjqRI5sH/j7ulAjKxdR5m4Gbz2v0m2p9fqxlo0p89+sfXI+IISwylllLtluf13qlZmnmLN9J1I14zGYLH4+dx5gpt6eOv1fbO385gqY9vuPEuWuYzGZGTF5Okfw5rD3gVd4cwcJ1ezCZzXzx4wrKFk0bIgdQqVR+5q4IAWDL7hMcO3V7ivvKpQqweP1eEpJSuBp+g+V/pH/W5tbzLvsWDsLOaOT02pH4erkyceBbnNswyloeXCCA3756l0YvlsRgNNL246ks3bjfet73HD5Lzcppz2eHRcVan3GcvmALRqOBuIS0utu8+wSTftnI/PFdM3WXP6P3H7esTnz10xrmrtoFpD0ruGPfaYoWDLAuc+ivS3h7Zr3j/WDJhn3UensMcQnJnL4QxqQ5G6zDm1+tXYaNIccIOXCGlFQTE3/eQJ0qt59B7zXiV+v06wvX7cHOaCCXv9d94+k7ei59R6clJKs2H2Tv0fO8dLOdZNSmz18O5+Mx84iMjiPVZOaXZTsodnObj3K+MpJRHWR0/TyKjNrXw9ZPrcrB7D58joN/XQRg18Ez9Bwxx7rPjNrX/fx/m5ZnU6Z6rtZv2kpcXDy9+g+zvubv68OQ/r1xd3Pj9cYNGPzFOJKTU3iuYhkaNahl84Dl6VezlB+9p+7nwJkb5PN34Yu302YE7PlKITpN2M3SnZepGOTNoJbBDJ1zlDL5PalQyIsAH2da18hDsS5rcLA38HatQOu6j9ONmFgiI6MeePkrYdH8vHQ7ofPuPVvfyzVL033YLzSpXYaszreHM3ZvXZsug2exbOMBKpQIZECXlxn+3TJKF8mdbvjQ/1uyYR+ODnbpHrK/m9rPFeX9IbP5aMzvdGr2Av06NaRis6Fcj4glPjEZU6qJFX8epGAeP9ZM7Y3JbKFhteL0/uI3Dp+4RL5cvozsnfbsyxc/rKDda8/f9cMxMKcP/To1pEbb0Xi4OtGlZU32HT1vLZ8+/B26DpnNV9PXkNUlC7NHd7D2bnzS+SX6jJ5L8ZcHYDKb6fBGtXRD0G4pnC873VvXovPAmayY/AG1qxSlzYlLvNhmFDFxSZQIynnHzId3c7/zlVE8L1UvyYHjF6jaaiQWS9rQng/a1LnvPgECsnnS6uXKlHplEPb2drR5pQojer1GiaCcNHyhBFXeHIGvpysDujZmx75TdOj/Ez8ObZvh+crIw9YPwDuvVaXNR1NISTVhNBr4pPNL5PDzwGKxMGD8Ir64+czM/+vVri69R/5K2dc+x4CBwvmz883NGcR6vV2XC1ciKdZoAGaLhVdqlmbQzecxFm/YR1hkDC17T063vZDf+5Pd14OPOjTgvUEzyVOjL35ernw/uI11RsSJg97ig2FzrL+DU69qcTo3T3tOJ6P2lVFZtfJBdGtVi9rtvsRstuDp7sKcsZ2xM6bdf5wy7G26DZnN2OmrsVig59t1rNdznSpFaVa/POVeH4Kjgx3tXqtqfZapfrXiHD11meqtRxGfmEzVcoUY378lQIZt7/myBenboT4vdR5HdEwC5Yrl5ecvO1rraezHzen6+WzeGzSLcsXyphtC2P+9RrT9aAqBtT6ieoUgGlYvYZ1Aomn98qzbfoQiDT4lMKcvb9Qvz8WrkQ90jdxLVmdH5nzZib5jfqdD/+nkzuHN7NEdrefrsy6NaP/JdPx93Xn71ed5pVYZmvX8nu2/fsK0+ZuJiomn1CuDrNvLl8uXTbM+4rNvFjJ9/u2bA7eGcG2b80mG7z9ZHO2ZO+5d+oyaywfDfsHD1ZmPOzVIN0Tu8vVo/H3uvNHSsHoJVv55kCINPsXRwZ5+nRvyXOm0GS093V34fnAb2n48hdj4JGpUKsxnN5/LK1s0L8N6vErTHpOIiI4jTw4ffh7TyTpTZ0bx9H6nHm0/mkLO6h+Sw8+Tn8d0tF5bGbXprq1qcvFqFOVeH0JyqolyxfIy7pM7Z+/L7PnKSEZ1kJHlfxyg88AZQNozlXuPnsfB3o6x/ZrfdZKLv8uofT1s/Xh7ZGX6iHZ06P8TkTfi8PbIyui+zaz7zKh91XnnS46eukJKqomExOS03wrL4c3WX/rdtU3Ls8lg+f8poUQewcTlp9h5PILpPfQgp4iIiIg8Wx5qQgv570o1Wej63Z57lnu5OhIZm3zXslefSxua80+m61/MO37PGQf9PZ24GnX3GQWL5XGn+8sFH2doIiIiIvKMUc+V2NTE5afYcSyCn3qq50pEREREni1KrkRERERERGzAdj+WIyIiIiIi8gxTciUiIiIiImIDSq5ERERERERsQMmViIiIiIiIDSi5EhERERERsQElVyIiIiIiIjag5EpERERERMQG7DO7wvwlK1m7cQsmk4niwUF0aNMCZ2cnAPYfOsq02XOJvhFDwXx56dKhNZ4e7jYPWkRERERE5GmTqZ6rnaH72B6yhxED+zJh9GASk5JZuHwNAAkJiUz4YQbtWzfnh29Gki8wD9Nmz30sQYuIiIiIiDxtMpVcubu70q5VUzzc3XBwcKB4cBBXr10H4OCRYwTmzknx4CDsjEZeaVibvfsPk5yc8lgCFxEREREReZpkKrkqUqgAwYULAnD56jU2btlBpXKlAbhy9TrZ/bNZl3VxdiZrVheuh0fYMFwREREREZGn00NNaDF09Hh6fzqMoAL5qFyhDABJySk4OtizbeduWnb4gJSUFBwc7ElMSrJpwCIiIiIiIk+jh0qu+vd5n/GjBhMbF8fUWWnPVWXJ4kh8YiLZ/bNRt0Y1jHZ2xMcn4pQli00DFhEREREReRplKrnaEbqXE6fOAODj7UnjBnXYs/8gAAHZs3Hp8jXy5c3F263eICYmlpTUFLL5+dg8aBERERERkadNppKrsPBIZv66gNi4eExmM5u3h5A7ZwAAxYKDuHL1GvsOHiE11cTCpaupUKYkDvaZnu1dRERERETkX8dgsVgsD7qw2Wxm9txFbNu5m9TUVPIH5qF962b4+ab1Th06epwpM38jMiqa4KCCdGn/Fq6uWR9b8CIiIiIiIk+LTCVXIiIiIiIicncPNaGFiIiIiIiIpKfkSkRERERExAaUXImIiIiIiNiAkisREREREREbUHIlIiIiIiJiA0quREREREREbEDJlYiIiIiIiA0ouRIREREREbEBJVciIiIiIiI2oORKRERERETEBjKdXM1fspIuvT+jc49PGP/9dBISEtOVJyYl0fXDAezZf8hmQT5Lyvdcz89/nLfZ9op1XUP21sso33P9Xcuj4lJwfHUBF8MTbLbPR/Fcn41POgQRERERkYeSqeRqZ+g+tofsYcTAvkwYPZjEpGQWLl8DgNls5vTZ84wYO5HEpKTHEuyzYHqP8tQt42+z7R36tg7zPql8z3I3Z3v+/KI6fh5ZbLbPh3UjPpWLYU9HkiciIiIikln2mVnY3d2Vdq2a4uHuBkDx4CCOnTgFwPZde1i2agON6tVk7R9bbB/pv9z+M9E0+2IHzavmYuvRcCJjU5jwbmkqF/YGYPAvR/hx9Wmi4lL4vmtZWlbPbV33jZHbKZzTjQNnorkWnUTp/J58+25p7IwGAEb+foxZG88B8GJxP75sX5IsDvfPm+sP3Myhcze4Fp3EqR/qk9PH2VqW7a2lDG9TnAXbLnLqahyd6+enR+OCAMQkpPLBD/vYfjQCB3sDnevnp0vD/A9UD4N+PszcLRcxGKBQgCvTPiiPZ1YHzl6L57k+G4iISSF3u+Vpy7YsSvs6gQDsOB7B+9/vIzouBc+sDvz4fllKBHoAcDkikbfGhnA+LJ7KhX0wAFWL+tCxXr771s+94rllydLlvN+jN8cO7SVLliefgIqIiIjI0ytTPVdFChUguHDaF+zLV6+xccsOKpUrDUCViuUY9tmHPFexrO2j/A+wMxo4fTWOMgU8WTOkGgPfDKbrd3ut5QPfDOb8tIZ37bWyMxrYsP86v/erzJZRL7LvdDRLd14GYFnIFWZtPMefI19k3ze1uRqdxLfLTj5QTCsHV+X8tIa4OzvcUWZnNHDsYgzLBj7P6sFVGTDrMIkpJgCGzDlCcoqZg9/WZv2wF/h68V+Enoi87/4Onr3Bgu2X2PdNbQ5OqEOtUtnYejQcgLzZXNgw/AX8PBw5P60h56c1tCZWAO9N3EOfVwtx7Lu6NK2ai09m3B52OnzuUYrkcuP4d/Xo9lIBFm6/ZE08M6qfjOK5xcnZiez+/hgMhgeqUxERERF5dj3UhBZDR4+n96fDCCqQj8oVytg6pv8sBzsjL1fMAUC9sv4cOBNNbGLqA63bqGIOHO2N2BkN1C7lx9ajEQAsDblMy+p58HJ1wM5ooHP9fCzecdkm8d7qPcvt54Krsx1XIpJu7vMK7zXMj9FgwMfNkRbVcj/QPt1d7LkUnsjiHZeITUyl20sFaFgu+wPFsmXUi7xWJSeQ1it18kqctWzb0QiaPp9WVjHIixKB7tayjOrnQeKpU6sm27dsxNHR8YHiFBEREZFnV6aGBd7Sv8/7hEdEMeu3BUydNZf2rZvZOq7/JM+sDtYeFUd7I1kcjETFpuDqdP/T4ON2+8u9m4sDJy7FAnAtOomF2y8xdc0ZAMwWC96utkkE/t6jZWc0YDJbALgenUSrL0Owv3ksKalmmlQOuO/28vi5MPvDCny96AQdxu+mZik/vu9aNt2x3cuCbZf4fuUpUk0W4pNMmC0Wa1lEbDLef9tGdi8n698Z1c+jxCMiIiIi8v8ylVztCN2Lj5cnBfMH4uPtSeMGdfhywmRAydWDiI5PwWyxYDQYiEs0kZRixusBE6HI2GTr3xExt5OJ7F5O9GpSiD6vBT2WmO/G3ysLU7uXp2KQV6bXrVvGn7pl/IlNTOXDqQcYOPswE94tneE6567H03H8bnaOrUGxPO5sPHCddyfusZa7uzhwI/52D+DF8NszWN6vfh4mHhERERGRu8nUsMCw8Ehm/rqA2Lh4TGYzm7eHkDvn/XssJE2qycJvf14AYO6WC5TK50FWJ7sHWnfh9kvEJ5mITzKxLOQKzwf7APBKpRzM2niOyNgULBaYsuaMtZfmFjujgYRkk82Oo0mlACYuP4nZYiEpxUzfaQfYefz+z1ytCL1Czx/3A+DqZE/hnK7pyt2c7AmPSeZyZCLJqWauRacNQ4yMTcHJ0UihAFfMFgszNpwj7m/DKcsX9GTJzWfQdp2I5PjFGGtZRvVzv3gA1qxdR/nKVUlOTr6jTERERETk7zLVc9WgdnUiIqPoO2AEqamp5A/MYx0SuHvfQb6b9jMACfEJTDh3ATs7O9q1fEOTXNyUw9uJ/Wei+XzOUYxGmNK9HAAnL8fx4id/AGm/O7XpYBgfTT9A6xp5GN6mOADVivlSd8CfXAxPpEE5fxqWT3s2qG4Zfw6evUHVjzYSm5BKyUAPvu+a/jm4QgFpSUP21stwsDdw7Lt6zN96kX4zDgJwIyGFir02YDTCxPfKWJ8Lu5d+TYvQ88d9FO2yhoQkE00qB1A6v8d9j796cT9+2XSBol3WYG9nIDCbC5Pfv31tBPg407pGHop1WYODvYG3awXyxdvFKRnowUsVclCx9wZ83RwZ3Koo246G025cKNM+KMenzYrQckwIxbutoVpRX+qUuT0BRUb1c794ABITkwgLC8fyt2GIIiIiIiJ3Y7DoW+M/4tC5GzT6fCunf6yf6XWbj9pB/bLZaVc772OI7L/nlaHbaFszj3UCDBERERGRf8JDTWghD+dRsth/Qw68cPslVoReuWtZsTzudH+54GPZ7/LQK4yce4x1w6oRdiOZHcciGNex1GPZl4iIiIjIvSi5EptpUjnggWYNtLU6pbMxf+tFiry3Bgc7AwNbBhPo7/KPxyEiIiIizzYNCxQREREREbGBh/oRYREREREREUlPyZWIiIiIiIgNKLkSERERERGxASVXIiIiIiIiNqDkSkRERERExAaUXImIiIiIiNiAkisREREREREbyPSPCM9fspK1G7dgMpkoHhxEhzYtcHZ2AmDP/kPM+m0h0TdiyJMzgPZtmpMzh7/Ng5bMe7HfJlq+mJtO9fI96VBERERERP6TMtVztTN0H9tD9jBiYF8mjB5MYlIyC5evASAmNo4JP8ygU9s3+WHcCEoVD+aHn+Y8lqAl8yZ1KUOTygFPOgwRERERkf+sTPVcubu70q5VUzzc3QAoHhzEsROnAEhJSaFV0yYULpQfgIrlSrFs9XobhyuZEZ9kovC7qwCIjktlTPsS6XquFmy7xOA5RzCbLbg52zPxvTKUyucBwLGLMXSdtJdLEYk4ORoZ3qY49cum9UK+MXI75Qp6sf1oBOfD4gnO7c7MXuUxGgzWbX/y2SAOHz7Cwnm//oNHLCIiIiLy5GQquSpSqID178tXr7Fxyw6aNKwDgLeXJzVfeM5aHrr3AIUKaAjak+SSxY7z0xoC0OrLkDvKu363h9CvapHD24k/DoaxIvQKpfJ5YLHAW1+G8G6D/LSvE8iBM9HU6v8nR7+ri7erI3ZGAyt2XWHNkGrYGQ2U+WAdfxwMo0YJP+u2PTzc8fXx+ceOVURERETkScv0M1cAQ0eP5/CxE9Sq/jyVK5S5o/zgkeMsXbWegR998MgByuPj7uLA9PVnebtWXqoX96V6cV8ALoYncOxCLG1r5gWgRKAHRXK5sfVwOI0q5gDgtSo5yeKQNqq0WF53zl2LT7ftjz7s9Q8eiYiIiIjIk/dQswX27/M+40cNJjYujqmz5qYr23vgMBN/nEmvru3JkT2bTYIUaNWmHWXKP0eZ8s/x49TpNtnmks+qcOR8DKW7r6VKn43sPhkFwNWoRLzcHLC3uz3Mz8fdkWvRSdb/3Z1v5+V2RgMms8UmMYmIiIiI/FtlqudqR+hefLw8KZg/EB9vTxo3qMOXEyYDzQA4fPQvfpzxKx/1eJe8uXM+jnifWRO++YrUlFQAsrpmtck2CwW4MqNneUxmCz+tO0vbr3ZxYEJt/D2diIxJIdVksSZYYdHJ+Hs52WS/IiIiIiL/RZnquQoLj2TmrwuIjYvHZDazeXsIuXOmzUAXGxfP+Mk/0bVDayVWj4GXpyd+fr74+fni4uz8yNu7EpVIg0FbSEg2YWc0UDq/p7Usl68zwbndmLH+LAB7TkVx8kos1Yr6PvD2R44aQ7sOnR85ThERERGRf4tM9Vw1qF2diMgo+g4YQWpqKvl7akLyAAAgAElEQVQD89C+dVqv1a7d+7kRE8tXk6amW2fU4I/x9HC3XcRiE9k9nXihuC/le67HzmjA1cmeyd3KWstn9qrAuxN3M2bBX7g62/NLn0q4uzz45XIjJpbIyKjHEbqIiIiIyFPJYLFY9LDMM+CNkdt5pVIArWvkedKhiIiIiIj8Jz3UhBby73A5IhGT2cJfl2LZcjicMn8b+iciIiIiIrb1UFOxy79Djx/3sXrPVdxdHPikWRGK59XwTBERERGRx0XDAkVERERERGxAwwJFRERERERsQMmViIiIiIiIDSi5EhERERERsQElVyIiIiIiIjag5EpERERERMQGlFyJiIiIiIjYgJIrERERERERG8j0jwjPX7KStRu3YDKZKB4cRIc2LXB2dgIgdO8Bfp67mOiYGHIF5KBDm+bkCshu86BFMmvxjsv0nX6Ao5PqPulQREREROQ/KlM9VztD97E9ZA8jBvZlwujBJCYls3D5GgAio6L5burPdOnYmh/GjaB0iWAmT//5sQQt/x3/1E9YVyvmy699K/0zOxMRERGRZ1Kmeq7c3V1p16opHu5uABQPDuLYiVMApKam0rbl6xQIzANAmZLFWL5mo22jlX/MX5dieW/iHi5HJuLqZM+Yd0pQrZgvFgvUHfAnLV7ITfs6gQDUG7CZN57PScd6+Ri/9CTbjoZjNBi4GJ6AvZ2BWb0r4u+ZhVSTBd9WS9jxZQ3eGRfKsYsxNKkcwI/vlwNgeegV+s88RFKKmcBsLkzuVpacPs4AHD53g87f7iE6PgWDAfq9UZgWL+QGIDYxlXbjQjly/gZmMzSpnINhrYtjMMCN+FSKdV1NqsmCR1aHdD1XFguM+P0Yszeew2KBykW8+aZTKVyd7Nl/Jpp3xoXSqEJ2Nh8O53JkIt++W5oXS/jdN55batZtSL06tfioT+/HfbpERERE5CmQqZ6rIoUKEFy4IACXr15j45YdVCpXGgA/Xx+qVi4PQGxsHEtWrLOWyb9P67EhvPF8Tg59W4eJ75Wm1ZgQElNMGAwwpXs5hv12lMsRiUxbexZHeyMd6+UDwM5oYEXoFb54uzgbhr9AqXyefPH7MQDs7QwEeDvT/ptQvu5YirDZLzO5W1kArkYl0XbsLqZ9UJ5D39ahbhl/uk7aa41n0C9H6NaoAPvH12bd0BdYEXrV2uv107qz+Lk7cnBCHQ5MqE1MQirnrscD4O5iz/lpDVk5uOodx7hk52XmbDrPttE1OPRtHRKTTYyad9x6HIfO3aBMfk/WDq1G/+ZF+HzOkQeK5xY/X1/c3Nxsc0JERERE5Kn3UBNaDB09nt6fDiOoQD4qVyiTrmze4pV06vEJ18LCaf7qSzYJUv5ZlyMSOXj2hjVhKlfQi3zZXdhyOByAPH4ufNY8mHe+CWXk78esCdItlYK8rT1O9cr6s/VouLXMM6sD9cpmp0IhLwCMBgMAG/Zfo1xBT0rl8wCgU/18rNl7jeRUMwBerg4s3H6JI+dj8HV35Kee5bm5Kl6ujmw/FsHmw+FYLDC+c2nyZnO573EuDbnMm9Vz4+5ij8EA7WoHsnL3VWu5SxY7XqkcAECpQA/OXk+wlmUUzy2//jyDLu92um8cIiIiIvLf8FDJVf8+7zN+1GBi4+KYOmtuurLXG9fnx29GUqFMCT4f9Q0ms9kmgco/51p0EiazhcLvrqZgp1UU7LSKE5fiCI9Jti7zVo3c7DsdRa1SfuTwdkq3vrebo/Vvdxd7ImNTrP8bjWmJyt32ueN4hHV/JbqtxdXZjuvRSQCMeackuX2deXnIVgp2WsXPf5y3rtuyetoQxd5T9pPz7WX0++kg5gd4mOtaVBLZPLJY//d1d+Tazf0BuLk4WP+2szNgMt/eZkbxiIiIiMizKVPPXO0I3YuPlycF8wfi4+1J4wZ1+HLCZKAZp86c4+q1MJ6rWBYXF2deblCbBctWExYWgX8238cUvjwO/l5ZyOJg5K/v693RG3PL8N+O8VKFHGw4cJ09p6Iok9/TWhb1t2QqPCY5XbIFkMXxzpw+u5cTVYN9WTKgyl335+Zsz6h2JRjVrgQ7j0fy8pAt1CzlR3bPtMSu60sF6PpSAS6GJ9B05A7mbblI06q5MjzObJ5Z0iVT16OTyO6ZJYM1HjweEREREXn2ZKrnKiw8kpm/LiA2Lh6T2czm7SHkzhlgLZ/28+9cuHQFSJtZ0Gg04u3tea/NyVMqu6cTJQM9+HH1aSDteajWY0O4EZ8KQOiJSOb8eZ6vOpRkfOfStBsXSlLK7R7K7cciOHUlDoC5my/yfLDPffdZq1Q2Qk9GcuBMNAAhf0XSffI+a/mrw7Zx9EIMAMG53XDJYo/l5i6H/naUmRvOAZDD2+mOnrR7aVwxB7/8cZ6YhFTMFgtT1pzh5Yo5HmjdjOK5pWmLt5gw8bsH2p6IiIiI/PtlqueqQe3qRERG0XfACFJTU8kfmIf2rZsBkD8wDy3faMyY8ZOJjYvHz8ebHu+9g4N9pn9KS54CP/Usz3sT9zB6wXEsFvjw1SDcXexJSjHTfvxuJnQujauTPbVLZaNSkBcDZh/mi7eLA1CzlB+9p+7nwJkb5PN3sb6eER83R2b0qkC7caFExCbj4+bI2PYlreUd6uaj1ZchpKSaMRoNfNa8iDWJalEtFx3H72bUvONYsFC7VDZeq5ITgK7f7WXxjkukmixExaWQu91yAHaPq0WjijnYdyaayh9uwGKBF0v40qtJoQeqn4ziuSU8IoK4uLgH2p6IiIiI/PsZLJZ/6peG5Fkwcfkpdh6PYHqP8k86FBERERGRf9RDTWghkhGl6yIiIiLyLFJyJSIiIiIiYgMaFigiIiIiImID6rkSERERERGxASVXIiIiIiIiNqDkSkRERERExAaUXImIiIiIiNiAkisREREREREbUHIlIiIiIiJiA0quREREREREbMA+syvMX7KStRu3YDKZKB4cRIc2LXB2dkq3zLG/TvH5qG8Y0Lc7hQvlt1mw8u9QrOsawm8kk8vXmV1f1XzS4VC6ySDCouLI5e/F9l8/edLhiIiIiMh/VKZ6rnaG7mN7yB5GDOzLhNGDSUxKZuHyNemWMZnNzJ67EA93N5sGKv8eh76tw7xPKj/pMKz2LhzEb1+9+6TDEBEREZH/uEwlV+7urrRr1RQPdzccHBwoHhzE1WvX0y2zYvUGKpYrreRK7mCxwPC5xyjWdQ1Fu6zhnW9CiU1MtZZPWHaSAp1WUaHXeqauOUOedivSrX/9ehiBBYP5Y9OfNorHwhc/rKB0k0GUemUQHT/7idj4JGv5xF82UKRBf55rMZzpC7aQv/bHNtmviIiIiPw3ZSq5KlKoAMGFCwJw+eo1Nm7ZQaVypa3l4RFR7NpzgAZ1XrRpkPLfsGTnZeZsOs+20TU49G0dEpNNjJp3HIDLEYl8NusQ64dWY8eXNVi15ypGO0O69e3sjGT39ydLliw2iWfpxv38uiKEP2d/zN6FA0lKTmXM1FVp8VyPZtD4Raya0pMtP/djzZbD2NnpEUURERERubeH+rY4dPR4en86jKAC+ahcoYz19Rlz5vNW8ybYGfUlVO60NOQyb1bPjbuLPQYDtKsdyMrdVwEI+SuSsgW8yJvNBaPBwDt1Au9Y39vbm+1bNlK5UkWbxLN80wFaNKyIW1YnDAYDbZtUYfWWQwDsOniGMsF5yBvgg9Fo4O3XnrfJPkVERETkv+uhsqD+fd5n/KjBxMbFMXXWXAD27D+Eh7sbBfMH2jI++Q+5FpVENo/bvU6+7o5ci04bhhcRm4yXq4O1LIeX0x3r2zye8Bv4ed8evurj6cr1iBgAIqPj8PLIai3L7uv+2OMRERERkX+3TCVXO0L3cuLUGQB8vD1p3KAOe/YfBCBkz3527NrDe736816v/ly4eJkvJ/xA6N4DNg9a/p2yeWaxJlMA16OTyO6Zlmy5O9sTE3/7+asL4QmPPx4fd2syBRAWGYO/T1oS5ebqzI24RGvZxatRjz0eEREREfl3y1RyFRYeycxfFxAbF4/JbGbz9hBy5wwAoFPbN/n+6+FMGjuUSWOHkitnDnp360i50iUeS+DydLMzGkhINqV7rXHFHPzyx3liElIxWyxMWXOGlyvmAKBsAS92nYjkcmQiJrOFXzdduGObERERlK9clW3bd2Q+HjsDiUnJ6V5r9GJJ5izfSWxcImazhWnzt9CoRkkAygTnIfTQWa6ERWMym/lt5a5M71NEREREni2Z+p2rBrWrExEZRd8BI0hNTSV/YB7at272uGKTf7FCAa4AZG+9DAd7A8e+q0ejijnYdyaayh9uwGKBF0v40qtJIQAC/V3o1aQQz/fdSIC3E+1qB7LpUFi6bZpMZsLCwklOTr5jf/eNJ68/ALle7IODvR2Hln7OS9VLcuD4Baq2GonFAi9UCOKDNnXS4snpQ8+2taneehQ5/Dxo2+R5Nocef5QqEREREZH/OIPFYrE86SBE/t+uE5F0GL+bveNqPelQAAg9dJbOA2ew6/fPnnQoIiIiIvKU0rR+8tSo3f9P5m5OGw44f+tFKhTyeqLx1O/wFb+vCgVgwdrdlC8e+ETjEREREZGnm3qu5Kmx4cB1evywj8RkM/n8XZjavRwBPs5PLJ4/dh6j1xe/kZScQt4AH34Y0paAbJ5PLB4RERERebopuRIREREREbEBDQsUERERERGxASVXIiIiIiIiNqDkSkRERERExAaUXImIiIiIiNiAkisREREREREbUHIlIiIiIiJiA0quREREREREbMA+syvMX7KStRu3YDKZKB4cRIc2LXB2dsJkNtO6U09cXbNaly1VrAhdO7axacAiIiIiIiJPo0wlVztD97E9ZA8jBvbFxdmJrydNY+HyNbz5+sskxCfg5JSFyV8Pf1yxioiIiIiIPLUyNSzQ3d2Vdq2a4uHuhoODA8WDg7h67ToAcQkJuLq4PJYgRUREREREnnaZ6rkqUqiA9e/LV6+xccsOmjSsA0B8fCKpJhPDx07kwsXL5ArIztut3iAgu79tIxYREREREXkKZfqZK4Cho8dz+NgJalV/nsoVygDg6OhAiaKFaVi3BrkCsrNw2Rq++nYKoz7vh8FgsGnQIiIiIiIiTxuDxWKxPMyK4RFRzPptAa5Zs9K+dbM7ys1mM+9068uYIZ/g6+P9yIGKiIiIiIg8zTL1zNWO0L2cOHUGAB9vTxo3qMOe/QcBCAuP4OTps9ZlLRYLJpPZdpGKiIiIiIg8xTKVXIWFRzLz1wXExsVjMpvZvD2E3DkD0soiIhkz/geuXL2O2Wxm/pJV5ArIrl4rERERERF5JmRqWKDZbGb23EVs27mb1NRU8gfmoX3rZvj5+gCwat0mlq5aR3xCIgUC89C+TXP8/XwfW/AiIiIiIiJPi4d+5kpERERERERuy9SwQBEREREREbk7JVciIiIiIiI2oORKRERERETEBpRciYiIiIiI2ICSKxERERERERtQciUiIiIiImIDSq5ERERERERsQMmViIiIiIiIDSi5EhERERERsQElVyIiIiIiIjZgn9kV5i9ZydqNWzCZTBQPDqJDmxY4OzsBEBV9g0lTZnHyzDl8vb3o3K4V+fLmsnnQIiIiIiIiT5tM9VztDN3H9pA9jBjYlwmjB5OYlMzC5Wus5d9P+5ngwgWZ/PVwGtWvxe+Llts8YHk0FsuTjkBERERE5L8pU8mVu7sr7Vo1xcPdDQcHB4oHB3H12nUAIqOiOXXmHC83qI3RaKRq5fL06d7psQQtDybVZMGzxWKOXYzh+b4b8W21hI4TQq3ly0OvULbHOop1XcNLg7dwMTzBWrb5cDjFu62hWNc1jFnwF0HvruL4xVgAYhJSeeebUIp2WUOp7muZuPyUdb3PfzlCm692Wf8f8utR3voyJF1cn3w2iCavN39chy0iIiIi8kRkalhgkUIFrH9fvnqNjVt20KRhHQDOXbhEjuz+zPhlHnv2HcLX15t33mpGroDsto1YHpi9nYEAb2fafxPK1x1LUaGQF+abXVdXo5JoO3YXa4dWo1Q+D8YtPkHXSXtZ2P85ALpM2sOAFsE0q5qLsQv/4lJ4InZGAwBD5hwhOcXMwW9rExmbwnN9NlApyItyBb3o16wwVfv+wYrQK+Tzz8qM9WfZ8WWNdHF5eLjj6+Pzz1aGiIiIiMhj9lATWgwdPZ7enw4jqEA+KlcoA0B8fAInT5+lSKECfD1yAOXLlGTcpKlYNA7tifLM6kC9stmpUMgLAKMhLUHasP8a5Qp6UiqfBwCd6udjzd5rJKeaiYpL4a9Lsbz2XE4A3m2Qn1TT7fO4NOQK7zXMj9FgwMfNkRbVcrN4x2UAHOyMTPugHL2nHKDj+N2M71wab1fHdDF99GEvfpw88bEfu4iIiIjIPynTE1oA9O/zPuERUcz6bQFTZ82lfetmuLg44+vtxXMVywLQoHZ1fp2/lMioG3h7edg06GdRqzbtOHz4KABdu3SmwztvP9B6RiOUCryz/q9FJ7HjeAQFO62yvubqbMf16CSSU824Odtjb5eWiLlkscPd5falcj06iVZfhmB/sycrJdVMk8oB1vKiedwpktuN4xdjqFfGP9PHKiIiIiLyb5Sp5GpH6F58vDwpmD8QH29PGjeow5cTJgPN8PfzJSExCYvFguFm7wiAnZ1me7eFCd98RWpKKgBZXbNmat0sjneeg+xeTlQN9mXJgCp3lIXdSCY+yYTJbMHOaCA2MZWouBRrub9XFqZ2L0/FIK+77m/9/utcCEugSC43Ji4/SdeXCtx1ORERERGR/5JMZT5h4ZHM/HUBsXHxmMxmNm8PIXfOtB6L7P5+ZPPzZtX6TVgsFlav/5OA7NnwcHd7LIE/a7w8PfHz88XPzxcXZ+dH3l6tUtkIPRnJgTPRAIT8FUn3yfsA8HV3JIe3Eyt3XwVg2tqzONrfvlSaVApg4vKTmC0WklLM9J12gJ3HIwG4EZ9Kl0l7mNy1DN++W4YxC/7ir0ux6fY9ctQY2nXo/MjHICIiIiLyNMlUz1WD2tWJiIyi74ARpKamkj8wD+1bN7OWv/tOKyZNmc3vC1eQM8Cfbp3a2jxgsQ0fN0dm9KpAu3GhRMQm4+PmyNj2Ja3l4zuX5oPJ+xgw+zDt6wTi5erArQ7Jfk2L0PPHfRTtsoaEJBNNKgdQOn/a0MMPp+6nedVclM7vCcCw1sVoN24Xf4yobp0Q40ZMLJGRUf/sAYuIiIiIPGYGi2ackAfg2WIxJybXx9fd8f4Li4iIiIg8g/RAlNzVwNmH6fFD2jDBlbuv4u/ppMRKRERERCQD6rmSu7oQlkCbr0K4EJ6Aq5M933QqTdWi+m0qEREREZF7UXIlIiIiIiJiAxoWKCIiIiIiYgNKrkRERERERGxAyZWIiIiIiIgNKLkSERERERGxASVXIiIiIiIiNqDkSkRERERExAaUXImIiIiIiNiAfWZXmL9kJWs3bsFkMlE8OIgObVrg7OzE7n0H+W7az+mWjY2NY9bkrzAalcPJk7V4x2X6Tj/A0Ul1n3QoAPQft4ADxy+y6Ntu6V4v3WQQ779Vi+JBOanZdgzhO8bh5OiQbpkxU1dx9NQVfhza1vraxp3H+PjLeZy+GEYufy8GdWvMyzVKAVC15UgO/nURo9GAp5sLr9Upy7Cer5HFMdPNP1Pa95/ORx3qExSYPd3rrT78gTrPF+XtV59/pO1PmL2ewycuMXHgWw+0fPdhvzB35S5cXbLQrEEFhvV41VpmMpvJV+tjqpYryM9jOj3Q9t75dDq/Lt+Z7jWDwUDs7m8BeH/oz6z88yA34hLp1OwFhnRv8oBHBuNmrCXkwGlmje541/J7XT8iIiLyZGXq29XO0H1sD9nDiIF9cXF24utJ01i4fA1vvv4yZUsVZ/LXw63L7ti1l607Q5VYSYYsFjAYHv9+qhXz5de+lR7/jh6Qp5sLHq7Od7zu7uqMu5szHq7OODrY35FYnbkYzsSfNxA67zPra5evR9O6749MG96OWs8Fs3XPSV7vPpF9iwbh7+MOwMxRHXi5RikuXImkVZ8fGDdjLX071L9j/6kmM/NW7aJp/QoYjY92Yo6cvPxI62fGHzuPkS+3H3lyeGe43McdG/BBm9p3vP7nrr+Ijoln9eZDxCUkk/V/7d1neFRV4sfx70x674ROQomUSOiwSFMSEVAXC8KKgBRFQVBE+bsKKgsooqDSLLggoDQVEJRiaFKkhNB7R6QlpCekzGTm/yI4OAaE4KXo/j6vyD33njJzn3nmxzn3jJf7VducMvJJpox80vF3nzem4+Vx6brxQx4HYNjEhVgLbZet47vVO2nbIhqX331O9n+iNc2fGMXiH3fRruWdxa670v0jIiIit1aJko+/vy89unQkwN8PNzc3omtEcS4pudh5FouF2fMW0fnhBwzrqNxch05nEztkLbX6xdN40CrW7jkPFIWhuKFr+W/8cce5bV5fx+RlxwAY/90RHn9vM0+MSeDuV9cQN3Qt59LzAbAW2gnsvJADp7K4a/BqQrss4qkJiY56Fieepd4LK6jVL572w9ZzKiXXUbb350ya/9+P1O6/nJgBy5m95qSjLDvPSsd3NhH9XDw1+8bz6vTd2O1FZZkXrFTosZiafX+g0+hNTmO02+Gtrw5Qq1/RdT3HJZKdZwVg5/EMGgxcyZsz9zpeh9W7nO/15OTzRFStwY9r1pb49Q3w88Lf17PYcX9fLwL9vItC1mXKx81YTrcOTQkK8HEcO3T8HL07Nie2aU1MJhN31atK+dJBHD6RVOz68qWDePqxFqzctN/peHZOHuNmrKBuh2Es37APkwlqtBvCq+/Po2b7oXw+fz0tu46m52ufO65ZunY3jR4bQZ0Ob/Jg3/GcOpfuKGv6r7fZdfAXYnuMJTL2Ffq8Md2pvROnU7in+3tExr5CryGfY7/4htntdt6ZvIQ6Hd4k5p9v8tTQaWRfKLp/LNZCnn59OtXbDiG2xxiOnrz0fuTmW3jgmXE8+coUtu87SUnNi9/Kw3H1CPDz5of1e0p8/ZI1u1iXeIgRv5kNuxZvTvgWi7Ww2HGz2cSgHm14b8qyy153pftHREREbq0Shavq1apQ446qAJw5l8Tq9ZtoXL9OsfNWr9tE1coRlCldypheyk3XdWwCj95Vjj0T45j0bB26vJdAnqUQkwn+O6A+I+fu50xqHlOXn8Dd1cxTbSIBcDGbWJJ4lneejGbVWy2IiQzkna8PAODqYqJssBe9xiXywVMxnP/yAT59rh4A59Lz6T52C1Ofb8CeiXHcWzecfh9td/TnzVn7eO7+KuwcH8uKES1YknjOEaCmrThBmL87uyfEsWtCLFm5Vn5OvgCAv7crJ6e2Y+mwZsXGuGjzGWavOcmGd+9mz8Q48goKGf3NQcc49vycSd3KgSwf0Zwhnarzn9n7nK53cTFTOjwcDw+PEr++ARcDVLHjvl4Xvzh7XXZmYl78Vh65t57TsRYNo3ij34OOv3cfOsWZ5AxqVilz2bbz8i2OWakzyRkMHbeAeo/8h9NJaSz9bCCTh3fHZDJhLbTRuHZlejx8F9MXbGD51EF8t2o7+QVWklIy6fHqVD4b/iTbF7xJXNNaDBh5aVnwT7P+TWiQH8unvsix5aP4ZFg3pz4sW7eHb8Y9y66Fw9iw7QjrEg8BRTM5c5YksPbLV9i+4A3yC6yOgDHvh0T2HTnDzoVvMn9CP1ZvPuCo777m0Wyd/zrtWtXm2WEzaNfnQ+J/2vtHb4FDoc3GwpXbuf/uGNq3qs2C5Vuv6bpfpWXk0H/ETD4e1g1f75LfC1fSvmVtdh44yZnkjGJlV7p/RERE5Na6rjV7I94dz6DXRhJVJZImDes6ldntdpatWEPc3cW/zMpfw5nUPHafyHQEpvpVg4gs7c36vSkAVAzzZminGvQcl8iorw84AtKvGkcFUy6k6Itfm3rh/LQ/xVEW6ONGm3qlaVgtCADzxTWBq3YmUb9qIDGRAQA8fV8k8duTKLAWLacK8nVjwcbT7DuZRai/O9MGNnAsJwzydWfjgVTW7U3BbofxfepQqZT3Vcf5XcIZ/tWyAv7erphM0CM2gqVbzznKvT1c+GeTsgDERARwIjnX6frg4GA2rl9Nk8aNruFVdfZQbF1e71d8ZnfyiO7Ur1UJX28Pfpr1b6eyE6dTyM7JI7pauSvWu2nnUR4ZMInPhnd3mt361eGfk5g4cxWPxBW9Z48MmER+voXNc4cwatCjlAsPdDo/OqocoUF+REWG4+bqgr+vF5nZuazefIB6NStS+47yAPTu2JwVG/ZRYLFe0/g7tmlAUIAPvt4e1K1RkeOniu6RxWt20bldI/x8PDGZTHTv0NQxk7R+2xHat7oTdzdX/Hw8Hc+U/crFbOax+xqwYfarDOweR5/Xp/PjbwLYlazbcojsnDzua34n/7ynDkvX7iavwHJN4wB4cdQcHoqtR/P61a7p/KVrd1Om+SDKNB/EgWNniWz9CmWaD2L0Z0udzvNwdyWmegW27D5erI4r3T8iIiJya13XE+1DXu5PSmo6X8ydz5QvvqJX18ccZYePnqCwsJCoKpGGdVJurqSMfAptdu545gfHsdz8QlKyChx/P3F3BV6bsZsOTcpSJth5eVKw36XnTvy9XUnLvvRF1WwuCiqXa3PTwVSqPn1pGZSvlwvJGfmUC/HivZ61GT57Hw8M/wmA/3SpyeMtKwDweMsKpGUXMOi/OzmelEPP2AhGdqvlCG5XHGd6Po3vuPSMTqi/O0kZ+Y6//bwvPe/k4mKi0Gb/w/pKws3VBTdcih339rz02vn6OL+uSSlZhAb5YbrCuDKzc+n84qfMHvs0jWtXdirrOvgzzGYT/r5e9HykGT0eLvrPj05tGzJx5kqshTYGdI0lolyI03We7m6YTODuVvRRYTKZsNntJKVmkbDrGDXaDXGc6+PtQXJqdrGAdjlBAeo0iRkAABOQSURBVJfCr6urmUKb7eIYM2l056XPjpBAX5JTs4CiGaLfzsYF+nk7yn5lsRYyd0kC70+LJzqqHFUqXn32fF78Vto0i8bHy50WDaNwdXVh+U/7uL9VbQBGfPQdn8z5EYDmDao5bXixYMU2EvecYOPc167azq/uax7NmbVjAGjw6HDWzXyl2LN1vyoV4l9sjHDl+0dERERurRKFq02J2wkJCqRq5QhCggN5sG0cYyZ8ClwKVzv37CO65h1G91NuovAgDzzczBz6pM0VN5t4a+4B2jcsw6pdyWw7mk7dype+UKf/JkylZBU4hS0AD/fiE6algzxpViOURa83vWx7fl6ujO5xJ6N73Mnmg2k8MHw998SEUTqwKID0a1+Ffu2rcColl46jNvHN+lN0bFb+D8dZKtDDKUwlZ+RTOtC4ZV0324nTKXTv0LRYsIJLG1r83vPdYundsQXTv/2JDv3GU6d6RQY+GUdM9Qp/2FZ4qD9N61ZlgcG71f0+TJxPy3JsyhHg50Va5gVH2bmUS8vlsi/kM3Xeej6Zs5p/1KnCtLd7Uata2au2V2iz8e3K7eRcyKdM80EA5OYVsGD5Nke4eqFbLE891gIAD7dLH5nn07IZ+PYcZr73lFMoFhERkf9dJVoWeD4ljRlz5pOdc4FCm411GxOoUM75C8yRYz9TJaKioZ2Um6t0oCe1IwL47IeiTSrOpefTdWwCmReKlnwlHk5j9tqTvN+7NuP71KHHh4nkWy7thrbxQCpHz+YA8NW6U9xVI6R4I7/TOqYUiUfS2HW86AtzwqE0Bny6w1H+0MgN7P+l6Et3jQp+eHu4Yr/Y5Ii5+5mx6mcAygR7FptJu5IHG5Vh1o8nycq1YrPb+W/8cR5odPnnlC4nNTWVBk2asWHjpqufbICwYD/Op2U5Nn/4vZBAX9q3rF3ien283Hm2cysS573Og63r8PxbsxwzSVfSukkNtu79md2HTgGwZfdxBr492+kcP28P9hw+g81m53RS+uWqKeb+VrWZvXgz2Tl52Gx2ps5bz/13F42pSUwVFq7cTm6+hXMpmSz+cZfjunEzlnMuJYP4KYOYPLz7NQUrgPWJh8nNt3B85WjOrB3DmbVjmPN+H77/cadjiaOvjyfhIf6Eh/gT6H9pxm3AyJl0bteIf9Spck1tXY+klEzCgv1uWP0iIiJirBLNXLWNbUlqWjqDX38bq9VK5YiKTksCAdLSMwgI0JeBv7ppAxvw7KRtvDv/IHY7vPRQFP7eruRbbPQav5UJferg6+lKbEwpGkcF8fqXe3nnyWgA7okJY9CUnew6nklkuLfj+B8J8XNn+osN6fFhIqnZBYT4uTO216Wg0PveSLqMScBitWE2mxjaqbojRHVuXp6nxm9l9DcHsWMnNqYUDzctei6p38fbWbjpNNZCO+k5Fir0WAzA1g9bc3+jMuw4nkGTl1Zht0OrO0N5scO1PTcDUFho4/z5FAoKCq5+sgEiyoXg4+3B7kOnuDOq+Kzcyo37+Xz+epZPHXRd9buYzTwcV4+H4+pd9dzgAB8+f7sHvYdMIy0zh+AAH94d7PxZ8EL3OPqPmMkzb86gVpWyrJz20lXrbd+yNrsO/kKzLqOw24s263i+WxwAHe9rwIqN+6je9jUiyoXy6H0NOHUuDYBX+7S/jhEXLQns2Ka+09brcU1rEejnxapN+2nT7PL3bmpGDt+u2I6L2czEL1c6lS36qD8tG13b7P2Wr4desazAYmXH/pPUr1XpmuoSERGRW89kv9J/g4tch0mLj7L5YCqfv9DgVnflb+n5kbMIDvRx2h1Qrs2AkbOoUiHssr9zdSP9+jtXJfkRYYD5y7cxbvpyVk1/+Qb1TERERIymX/gVwymu3zgvdI9j2vyfSP/Ns0fy92Oz2RkzZRkv9yr+Q88iIiJy+1K4EvkLiSwfSt/H72bQ6Lm3uit/SaMmL6Fam1d57YP5N7yt/iNmUq3Nq0yatbrE1074cgWVyobQruWdxndMREREbhgtCxQRERERETGAZq5EREREREQMoHAlIiIiIiJiAIUrERERERERAyhciYiIiIiIGEDhSkRERERExAAKVyIiIiIiIgZQuBIRERERETGAa0kvmLdoKctXr6ewsJDoGlH07tYZLy9PADZt2c7XC5dgtVoJDgqkd7dOlAkvZXinRUREREREbjclmrnanLiDjQnbePuNwUx4dxh5+QUsWBwPQFp6BpOnzebl/k/z/ltDaVi3Np9MmXlDOi0iIiIiInK7KVG48vf3pUeXjgT4++Hm5kZ0jSjOJSUDcPZcMkFBAZQKCwGgVvVqnL1YJiIiIiIi8ndXonBVvVoVatxRFYAz55JYvX4TjevXASCiYnlyci5w9PjPAGzZvovataob3F0REREREZHbk8lut9tLetGId8ez98BhWre8i55PdMRkMgGwYfNWJn02Ay9vLzzd3Rk6eABhocGGd1pEREREROR2c13hCiAlNZ0v5s7H18eHXl0f45fTZxn9wce89tJzhJcKZWPCNr7+dgmj//MKZrM2JRQRERERkb+3EqWeTYnbOXz0OAAhwYE82DaObTt3A7Bn30GqVK5EeKlQAJo0rEvS+fOkpWca22MREREREZHbUInC1fmUNGbMmU92zgUKbTbWbUygQrmyAFQoX5ZDR46TmZUFwM49+/Hy9CQo0N/4XouIiIiIiNxmSrQs0Gaz8eVX37Jh81asViuVIyrSq+tjhIUW7RC4+IdVLP9xPXabHR8fb7p2eog7qlW+YZ0XERERERG5XVz3M1ciIiIiIiJyiXaaEBERERERMYDClYiIiIiIiAEUrkRERERERAygcCUiIiIiImIAhSsREREREREDKFyJiIiIiIgYQOFKRERERETEAApXIiIiIiIiBlC4EhERERERMYDClYiIiIiIiAFcS3rBvEVLWb56PYWFhUTXiKJ3t854eXkCsGXbLmZ9s5CMjCyiqkbSt9cT+Pr6GN5puXa1+sWTkllA+VAvtrx/zzVfV6bb96x7pxVVypT8/bveNkVERERE/spKNHO1OXEHGxO28fYbg5nw7jDy8gtYsDgegJTUdD6a8gV9ez3BJx++hZ+vD1/MXXBDOi3Xbs/EOL55tcnfvk0RERERkVutROHK39+XHl06EuDvh5ubG9E1ojiXlAzA/kNHqFY5giqRlXAxm3no/jYkbNt5Qzotxpi6/AQ1+8ZTrc8yHhq5gcwLVqfyRQlniH4unkq9lvDpsmOO41m5VnqOS6Rm33hiBixn0uKj19zmmzP3UqtfPNHPxfPQWxtIz7E4t/ndYiKq1iA/P//PDU5ERERE5CYrUbiqXq0KNe6oCsCZc0msXr+JxvXrAGAygc1ud5zr4eFObm4eWdk5BnZXjJKcmc+AT7cTP7wZBz9ug90Onyx1Dkm7jmewc3wsy4Y14+Upu0jKKAo8w2fvo8BiY/fEWFaObMEHCw+ReDjtqm3uPpHJ/I2n2TEult0T4mgdU4qf9qc4nePp5Unp8HBMJpNxgxURERERuQmua0OLEe+OZ9BrI4mqEkmThnUBqF6tKoePHufAoaMUFFhYtGQFZrMZi8VyldrkVgjz9+DU5+0pF+KFyQT/qBHC0bPOQbjbPZUwm0xUL+9HrYr+bLkYoL5LOMuz7SpjNpkI8XOnc/MKLNx05qpt+nu7cjolj4WbTpOdZ+W59lVoV7+00zlxre9h4/rVuLu7GzdYEREREZGboMQbWgAMebk/KanpfDF3PlO++IpeXR8jOCiAZ3t24dNps7AV2niwXSx2ux1vby+j+/w/qUu3Huzdux+Afn370Lvnk3+qvkKbnXfnHWDFjmRMJjibnk9sTJjTOeGBHo5/B/m6kZZVAEByRj5dxiTgai6aXbJYbXRoUvaqbVYM8+bLlxrywbeH6T1+K/fEhPFJv3qE+ClIiYiIiMhfX4nC1abE7YQEBVK1cgQhwYE82DaOMRM+BR4DoH6dO2lYLwaAI8dOUCo0BE8Pjz+oUa7VhHHvY7UUPRPlY8AOjHPW/sL8jadZO6oVQb5u/GfWPk6l5jqd89vnodKyLQRfDEHhQR5MGdCARlFBJW733rrh3Fs3nOw8Ky9N2cUbX+5lwjN1/txgRERERERuAyVaFng+JY0Zc+aTnXOBQpuNdRsTqFCuaMYiMyuLvoOGkpScQl5+PnPnf0+rZtoxzihBgYGEhYUSFhaKt1fJZgNdzCZyCwqdjp3PzCeilA9Bvm6czyxgUcIZsvOcz5m95iQAh89ks++XTBpFBQPQoXFZJi0+gs1uJ99iY/DUXWw+6PzM1eXaXJJ4loGfFW1y4uvpyh3lfIv1NX75Cho0aUZBQUGJxigiIiIicquVaOaqbWxLUtPSGfz621itVipHVKRX16JZK38/Px55sC3D3vmQggIL/2hUl/vbtr4hnZaSqVa2KMSU7vo9bq4mDnzchk7NKzB7zS80fXk1ZUM8ebt7NE+8l8DkZcd4qk0khTY7EeE+1HthBek5Fsb2inEs3/t3x+oM/GwHNfvGk5tfSIcmZalTOeCqbbaMDmPWml+o2TceVxcTEaW8+bR/Pafr8vLyOX8+BftvNkcREREREfkrMNn1LVZERERERORPu67dAkVERERERMSZwpWIiIiIiIgBFK5EREREREQMoHAlIiIiIiJiAIUrERERERERAyhciYiIiIiIGEDhSkRERERExAAKVyIiIiIiIgZQuBIRERERETGAwpWIiIiIiIgBrjtcLfj+B554eqDTsZ179jPw1eH0fG4wb42ZSHpG5p/uoPz1HD2bQ5cxCcWOT1p8lO7vbzGkjbAu33EqJdeQukREREREjHBd4Sr5fAobErY5HcvNzWPC5On06tqJyeNGERlRkalffmVIJ+WvZe/PCtUiIiIi8r/H9XoumjZrHl06/pPRH37iOLZ73wEiKpQjukYUAP9sF8uzA4dQUGDB3d3NmN7KTTF52TFW7z7PsbM51I4MwMPVzPdbzjL3/xpTr0ogWblWnp+8g437U3FzNdHnvsr0bVcZgNlrTvLcJ9spsNip0GMxAMuGNaNmRX8ALIU2Or+7mY0HUqkY6sXcVxpTOtATgO8TzjL0yz3kFdgoG+zJx/3qUrWMLwBr9pznmYnbMJuhU/MKl+33Pfe2o01ca/7v5UE3+iUSERERESmmxDNXCVt3EBIcSNXISk7Hz55LpnR4Kcff3l5e+Ph4k5yS+ud7KTeVi9nE/l+yWDOqJXPWnqRdw9L0jIvg242nARg+ex8FFhu7J8aycmQLPlh4iMTDaQB0blGBt7pF80DjMpyc2o6TU9s5ghVA/LYk/v3oHRz/7D7KhXgxeekxAM6k5fHkB1v44sWG7J0Ux6N3laPXuETHdc9M3MZb3Wqxe0IcZYI8ycy1FOt3WGgofn5+N/KlERERERG5ohKFq/z8AhYuWUGnh+8vXlZgwd3NlQ2bt/J47+exWCy4ubmSl59vWGfl5omu6I+riwl/bzdqlvcjPNCD1OwCAL5LOMuz7SpjNpkI8XOnc/MKLNx05prq/Uf1YGIiAwBoXiuUY0kXAFi5I4kG1YIcQaxHbAQbD6SSecHK2fQ8TiRd4IFGZQDoenfFy9Y9Z+Z0+j7z9J8at4iIiIjI9SrRssCvv11M+3vvxtvLiwsXnDcT8PBwJzU9ndLhpbj37uaYXVy4cCEPTw8PQzssN4ene1HuNplMuLmZMQE2e1FZckY+XcYk4Go2AWCx2ujQpOw11Rvk6+74t6uLicLCokrPpecTFnDpXvFwM+Pr6UpyRj4FVhv+3q64XGzPw82Mp5vLnx2iiIiIiIihShSutu7Yw7qNW5g26xvsdrDZbDz74hDeGfYKZUuXInH7biIrlSey0qOkZ2RisVooFRZyo/out0h4kAdTBjSgUVSQcXUGepCccWmWM89SSHaelfAgD7IuWMm8YKXQZsfFbCLzgpXcgkLD2hYRERERMUKJlgWOGfkaH40dwUdjRzB25GuYzWY+GjsCfz9fatWI4uy5JHbs3ofVWsiC736gYd3auLle154Zchvr0LgskxYfwWa3k2+xMXjqLjYfTHOU+3m5cvBUFtZCO1m5VtJzij8f9XuxdcLZciiNfSezAJi87DitosPw9XSldJAnZUM8+eanUwB8vPQori6mYnV07PwEEyZ9bNAoRURERERKxrAfEfb08KB/n+5Mm/UNTz3/CknnU+j+r0eMql5uI//uWB13VzM1+8YT1WcZ+RYbdSoHOMrvq1caL3cXQrssolbfeOK3nbtqneGBHnz+QgMef28zNfvGszTxLJP71wPAZIKP+tZlyBd7iOi9FBeziTB/Dwp/Xad4UUpqKjk5OcYOVkRERETkGpnsdrv96qeJiIiIiIjIHzFs5kpEREREROR/mcKViIiIiIiIARSuREREREREDKBwJSIiIiIiYgCFKxEREREREQMoXImIiIiIiBhA4UpERERERMQAClciIiIiIiIGULgSERERERExgMKViIiIiIiIARSuREREREREDKBwJSIiIiIiYgCFKxEREREREQMoXImIiIiIiBjAdefBE7e6DyIiIiIifyu1oyrd6i7ILWCy2+32W90JERERERGRvzotCxQRERERETGAwpWIiIiIiIgBFK5EREREREQMoHAlIiIiIiJiAIUrERERERERAyhciYiIiIiIGOD/AR1Rc1DIc4ApAAAAAElFTkSuQmCC;" vertex="1" parent="1">
          <mxGeometry x="50" y="20" width="770" height="736.68" as="geometry" />
        </mxCell>
        <mxCell id="Cq-9Z9GXgd56kL1-xHdN-2" value="" style="rounded=1;whiteSpace=wrap;html=1;fillColor=none;strokeColor=light-dark(#FF0000,#D7817E);strokeWidth=7;" vertex="1" parent="1">
          <mxGeometry x="80" y="10" width="430" height="180" as="geometry" />
        </mxCell>
        <mxCell id="Cq-9Z9GXgd56kL1-xHdN-3" value="" style="rounded=1;whiteSpace=wrap;html=1;fillColor=none;strokeColor=light-dark(#FF0000,#D7817E);strokeWidth=7;" vertex="1" parent="1">
          <mxGeometry x="80" y="250" width="350" height="140" as="geometry" />
        </mxCell>
        <mxCell id="Cq-9Z9GXgd56kL1-xHdN-4" value="" style="rounded=1;whiteSpace=wrap;html=1;fillColor=none;strokeColor=light-dark(#FF0000,#D7817E);strokeWidth=7;" vertex="1" parent="1">
          <mxGeometry x="80" y="400" width="470" height="350" as="geometry" />
        </mxCell>
        <mxCell id="Cq-9Z9GXgd56kL1-xHdN-5" value="" style="rounded=1;whiteSpace=wrap;html=1;fillColor=none;strokeColor=light-dark(#00CC00,#D7817E);strokeWidth=7;" vertex="1" parent="1">
          <mxGeometry x="95" y="560" width="345" height="180" as="geometry" />
        </mxCell>
        <mxCell id="Cq-9Z9GXgd56kL1-xHdN-6" value="&lt;font style=&quot;color: rgb(255, 0, 0); font-size: 20px;&quot;&gt;Configuration générale de Promatil&lt;/font&gt;" style="text;html=1;align=center;verticalAlign=middle;whiteSpace=wrap;rounded=0;" vertex="1" parent="1">
          <mxGeometry x="530" y="60" width="210" height="110" as="geometry" />
        </mxCell>
        <mxCell id="Cq-9Z9GXgd56kL1-xHdN-7" value="&lt;font style=&quot;color: rgb(255, 0, 0); font-size: 20px;&quot;&gt;Configuration 1er job&lt;/font&gt;" style="text;html=1;align=center;verticalAlign=middle;whiteSpace=wrap;rounded=0;" vertex="1" parent="1">
          <mxGeometry x="440" y="270" width="210" height="110" as="geometry" />
        </mxCell>
        <mxCell id="Cq-9Z9GXgd56kL1-xHdN-8" value="&lt;font style=&quot;color: rgb(255, 0, 0); font-size: 20px;&quot;&gt;Configuration 2e job&lt;/font&gt;" style="text;html=1;align=center;verticalAlign=middle;whiteSpace=wrap;rounded=0;" vertex="1" parent="1">
          <mxGeometry x="570" y="400" width="210" height="110" as="geometry" />
        </mxCell>
        <mxCell id="Cq-9Z9GXgd56kL1-xHdN-10" style="edgeStyle=orthogonalEdgeStyle;rounded=0;orthogonalLoop=1;jettySize=auto;html=1;exitX=0;exitY=0.5;exitDx=0;exitDy=0;curved=1;strokeColor=#00CC00;strokeWidth=4;" edge="1" parent="1" source="Cq-9Z9GXgd56kL1-xHdN-9" target="Cq-9Z9GXgd56kL1-xHdN-5">
          <mxGeometry relative="1" as="geometry" />
        </mxCell>
        <mxCell id="Cq-9Z9GXgd56kL1-xHdN-9" value="&lt;font style=&quot;font-size: 20px; color: rgb(0, 204, 0);&quot;&gt;Configuration piepline 2e job&lt;/font&gt;" style="text;html=1;align=center;verticalAlign=middle;whiteSpace=wrap;rounded=0;" vertex="1" parent="1">
          <mxGeometry x="600" y="620" width="190" height="110" as="geometry" />
        </mxCell>
      </root>
    </mxGraphModel>
  </diagram>
</mxfile>
